# Blender v2.91.0 OBJ File: 'houses.blend'
# www.blender.org
mtllib houses.mtl
o House_Cube.001
v -4.964243 0.309850 3.000000
v -4.964243 6.309850 3.000000
v -4.964243 0.309850 -4.000000
v -4.964243 6.309850 -4.000000
v 4.964243 0.309850 3.000000
v 4.964243 6.309850 3.000000
v 4.964243 0.309850 -4.000000
v 4.964243 6.309850 -4.000000
v 1.000000 0.309850 -4.000000
v -1.000000 0.309850 -4.000000
v -1.000000 6.309850 -4.000000
v 1.000000 6.309850 -4.000000
v -1.000000 0.309850 3.000000
v 1.000000 0.309850 3.000000
v 1.000000 6.309850 3.000000
v -1.000000 6.309850 3.000000
v -4.964243 4.515757 3.000000
v -4.964243 4.515757 -4.000000
v 4.964243 4.515757 -4.000000
v 4.964243 4.515757 3.000000
v 1.000000 4.515757 3.000000
v -1.000000 4.515757 3.000000
v -1.000000 4.515757 -4.000000
v 1.000000 4.515757 -4.000000
v -4.964243 0.000000 -4.000000
v -4.964243 0.000000 3.000000
v -1.000000 -0.000000 -4.000000
v 4.964243 0.000000 3.000000
v 4.964243 0.000000 -4.000000
v 1.000000 -0.000000 3.000000
v 1.000000 -0.000000 -4.000000
v -1.000000 -0.000000 3.000000
v -4.964243 2.412804 -4.000000
v 4.964243 2.412804 -4.000000
v 4.964243 2.412804 3.000000
v 1.000000 2.412804 3.000000
v -1.000000 2.412804 3.000000
v -1.000000 2.412804 -4.000000
v 1.000000 2.412804 -4.000000
v -4.964243 2.412804 3.000000
vt 0.054110 0.500000
vt 0.001252 0.500000
vt 0.001252 0.293766
vt 0.054110 0.293766
vt 0.054110 0.118047
vt 0.001252 0.118047
vt 0.001252 0.001252
vt 0.054110 0.001252
vt 0.054110 0.998748
vt 0.001252 0.998748
vt 0.001252 0.792514
vt 0.054110 0.792513
vt 0.054110 0.616795
vt 0.001252 0.616795
vt 0.607135 0.324290
vt 0.607135 0.383215
vt 0.598006 0.383215
vt 0.598006 0.324290
vt 0.180529 0.413065
vt 0.180529 0.296270
vt 0.386763 0.296270
vt 0.386763 0.413065
vt 0.180529 0.588784
vt 0.180529 0.471989
vt 0.386763 0.471989
vt 0.386763 0.588784
vt 0.607136 0.207493
vt 0.598007 0.207493
vt 0.607136 0.881956
vt 0.607136 0.998745
vt 0.598008 0.998745
vt 0.598007 0.881956
vt 0.001252 0.675719
vt 0.054110 0.675719
vt 0.001252 0.176971
vt 0.054110 0.176971
vt 0.116067 0.293766
vt 0.116067 0.176971
vt 0.116067 0.792513
vt 0.116067 0.675719
vt 0.116067 0.616795
vt 0.116067 0.500000
vt 0.116067 0.998748
vt 0.116067 0.118047
vt 0.116067 0.001252
vt 0.180529 0.118047
vt 0.180529 0.001252
vt 0.386763 0.001252
vt 0.386763 0.118047
vt 0.180529 0.293766
vt 0.180529 0.176971
vt 0.386763 0.176971
vt 0.386763 0.293766
vt 0.607136 0.706242
vt 0.607136 0.823033
vt 0.598007 0.823033
vt 0.598007 0.706242
vt 0.607135 0.500009
vt 0.598007 0.500009
vt 0.607136 0.001252
vt 0.598007 0.001252
vt 0.595502 0.293766
vt 0.595502 0.176971
vt 0.389268 0.176971
vt 0.389268 0.293766
vt 0.389268 0.118047
vt 0.595502 0.118047
vt 0.389268 0.001252
vt 0.595502 0.001252
vt 0.178025 0.500000
vt 0.178025 0.293766
vt 0.178025 0.118047
vt 0.178025 0.001252
vt 0.178025 0.998748
vt 0.178025 0.792514
vt 0.178025 0.616795
vt 0.178025 0.675719
vt 0.178025 0.176971
vn -1.0000 0.0000 0.0000
vn 0.0000 0.0000 -1.0000
vn 1.0000 0.0000 0.0000
vn 0.0000 0.0000 1.0000
vn 0.0000 1.0000 0.0000
vn 0.0000 -1.0000 0.0000
usemtl Wall
s off
f 17/1/1 2/2/1 4/3/1 18/4/1
f 24/5/2 12/6/2 8/7/2 19/8/2
f 19/9/3 8/10/3 6/11/3 20/12/3
f 22/13/4 16/14/4 2/2/4 17/1/4
f 14/15/4 13/16/4 32/17/4 30/18/4
f 11/19/5 4/20/5 2/21/5 16/22/5
f 8/23/5 12/24/5 15/25/5 6/26/5
f 12/24/5 11/19/5 16/22/5 15/25/5
f 5/27/4 14/15/4 30/18/4 28/28/4
f 9/29/2 7/30/2 29/31/2 31/32/2
f 20/12/4 6/11/4 15/33/4 21/34/4
f 21/34/4 15/33/4 16/14/4 22/13/4
f 18/4/2 4/3/2 11/35/2 23/36/2
f 23/36/2 11/35/2 12/6/2 24/5/2
f 33/37/2 18/4/2 23/36/2 38/38/2
f 35/39/4 20/12/4 21/34/4 36/40/4
f 37/41/4 22/13/4 17/1/4 40/42/4
f 34/43/3 19/9/3 20/12/3 35/39/3
f 39/44/2 24/5/2 19/8/2 34/45/2
f 40/42/1 17/1/1 18/4/1 33/37/1
f 31/46/6 29/47/6 28/48/6 30/49/6
f 25/50/6 27/51/6 32/52/6 26/53/6
f 27/51/6 31/46/6 30/49/6 32/52/6
f 3/54/2 10/55/2 27/56/2 25/57/2
f 10/55/2 9/29/2 31/32/2 27/56/2
f 1/58/1 3/54/1 25/57/1 26/59/1
f 7/60/3 5/27/3 28/28/3 29/61/3
f 13/16/4 1/58/4 26/59/4 32/17/4
f 5/62/6 14/63/6 9/64/6 7/65/6
f 14/63/5 9/64/5 10/66/5 13/67/5
f 10/66/5 3/68/5 1/69/5 13/67/5
f 1/70/1 40/42/1 33/37/1 3/71/1
f 9/72/2 39/44/2 34/45/2 7/73/2
f 7/74/3 34/43/3 35/39/3 5/75/3
f 13/76/4 37/41/4 40/42/4 1/70/4
f 5/75/4 35/39/4 36/40/4 14/77/4
f 3/71/2 33/37/2 38/38/2 10/78/2
f 10/78/2 38/38/2 39/44/2 9/72/2
o Table_Cube.002
v -3.497025 1.711935 -3.430507
v -3.497025 1.911475 -3.430507
v -1.531941 1.711935 -3.084010
v -1.531941 1.911475 -3.084010
v -4.185339 1.711935 0.473119
v -4.185339 1.911475 0.473119
v -2.220255 1.711935 0.819616
v -2.220255 1.911475 0.819616
v -2.153653 1.711935 0.441897
v -1.598543 1.711935 -2.706291
v -1.598543 1.911475 -2.706291
v -2.153653 1.911475 0.441897
v -3.563627 1.711935 -3.052788
v -4.118737 1.711935 0.095400
v -4.118737 1.911475 0.095400
v -3.563627 1.911475 -3.052788
v -1.862820 1.711935 -3.142353
v -3.166146 1.711935 -3.372165
v -3.166146 1.911475 -3.372165
v -1.862820 1.911475 -3.142353
v -3.854460 1.711935 0.531462
v -2.551134 1.711935 0.761273
v -2.551134 1.911475 0.761273
v -3.854460 1.911475 0.531462
v -2.484532 1.911475 0.383554
v -3.787858 1.911475 0.153742
v -1.929422 1.911475 -2.764634
v -3.232748 1.911475 -2.994445
v -1.929422 1.711935 -2.764634
v -3.232748 1.711935 -2.994445
v -2.484532 1.711935 0.383554
v -3.787858 1.711935 0.153742
v -3.225755 1.711935 -3.324269
v -3.457392 1.711935 -3.365113
v -1.638176 1.711935 -2.771686
v -1.591550 1.711935 -3.036114
v -2.491525 1.711935 0.713377
v -2.259888 1.711935 0.754221
v -4.079104 1.711935 0.160794
v -4.125730 1.711935 0.425223
v -2.213262 1.711935 0.489793
v -3.504018 1.711935 -3.100684
v -3.272381 1.711935 -3.059840
v -3.847467 1.711935 0.201638
v -1.823187 1.711935 -3.076958
v -3.894093 1.711935 0.466067
v -1.869813 1.711935 -2.812530
v -2.444899 1.711935 0.448949
v -3.225755 0.298206 -3.324269
v -3.457392 0.298206 -3.365113
v -1.638176 0.298206 -2.771686
v -1.591550 0.298206 -3.036114
v -2.491525 0.298206 0.713377
v -2.259888 0.298206 0.754221
v -4.079104 0.298206 0.160794
v -4.125730 0.298206 0.425223
v -2.213262 0.298206 0.489793
v -3.504018 0.298206 -3.100684
v -3.272381 0.298206 -3.059840
v -3.847467 0.298206 0.201638
v -1.823187 0.298206 -3.076958
v -3.894093 0.298206 0.466067
v -1.869813 0.298206 -2.812530
v -2.444899 0.298206 0.448949
vt 0.873113 0.680631
vt 0.836530 0.680631
vt 0.836530 0.742229
vt 0.873113 0.742229
vt 0.829485 0.659925
vt 0.792902 0.659925
vt 0.792902 0.730243
vt 0.829485 0.730243
vt 0.873113 0.307755
vt 0.836530 0.307755
vt 0.836530 0.369353
vt 0.873113 0.369353
vt 0.785857 0.659925
vt 0.749274 0.659925
vt 0.749274 0.730243
vt 0.785857 0.730243
vt 0.065121 0.073841
vt 0.065121 0.003522
vt 0.055883 0.014068
vt 0.055883 0.063295
vt 0.437996 0.073841
vt 0.437996 0.003522
vt 0.376398 0.003522
vt 0.376398 0.073841
vt 0.437996 0.730243
vt 0.437996 0.659925
vt 0.376398 0.659925
vt 0.376398 0.730243
vt 0.369353 0.659925
vt 0.307755 0.659925
vt 0.316993 0.670470
vt 0.360116 0.670470
vt 0.065121 0.659925
vt 0.003522 0.073841
vt 0.003522 0.659925
vt 0.785857 0.003522
vt 0.749274 0.003522
vt 0.749274 0.073841
vt 0.785857 0.073841
vt 0.829485 0.003522
vt 0.792902 0.003522
vt 0.792902 0.073841
vt 0.829485 0.073841
vt 0.369353 0.073841
vt 0.307755 0.073841
vt 0.003522 0.003522
vt 0.012760 0.063295
vt 0.012760 0.014068
vt 0.307755 0.730243
vt 0.065121 0.730243
vt 0.742229 0.659925
vt 0.742229 0.073841
vt 0.680631 0.073841
vt 0.680631 0.659925
vt 0.742229 0.730243
vt 0.680631 0.730243
vt 0.742229 0.003522
vt 0.680631 0.003522
vt 0.055883 0.670470
vt 0.055883 0.719698
vt 0.307755 0.003522
vt 0.873113 0.003522
vt 0.836530 0.003522
vt 0.836530 0.065121
vt 0.873113 0.065121
vt 0.873113 0.376398
vt 0.836530 0.376398
vt 0.836530 0.437996
vt 0.873113 0.437996
vt 0.166235 0.996478
vt 0.209358 0.996478
vt 0.209358 0.737288
vt 0.166235 0.737288
vt 0.880158 0.528946
vt 0.929386 0.528946
vt 0.929386 0.269757
vt 0.880158 0.269757
vt 0.467241 0.996478
vt 0.510364 0.996478
vt 0.510364 0.737288
vt 0.467241 0.737288
vt 0.316738 0.996478
vt 0.359861 0.996478
vt 0.359861 0.737288
vt 0.316738 0.737288
vt 0.369353 0.730243
vt 0.360116 0.719698
vt 0.369353 0.003522
vt 0.360116 0.014068
vt 0.360116 0.063295
vt 0.316993 0.063295
vt 0.316993 0.719698
vt 0.316993 0.014068
vt 0.012760 0.670470
vt 0.003522 0.730243
vt 0.012760 0.719698
vt 0.560531 0.786516
vt 0.560531 0.737288
vt 0.517409 0.737288
vt 0.517409 0.786516
vt 0.610699 0.786516
vt 0.610699 0.737288
vt 0.567576 0.737288
vt 0.567576 0.786516
vt 0.711034 0.786516
vt 0.711034 0.737288
vt 0.667912 0.737288
vt 0.667912 0.786516
vt 0.660867 0.786516
vt 0.660867 0.737288
vt 0.617744 0.737288
vt 0.617744 0.786516
vt 0.059795 0.996478
vt 0.109022 0.996478
vt 0.109022 0.737288
vt 0.059795 0.737288
vt 0.003522 0.996478
vt 0.052750 0.996478
vt 0.052750 0.737288
vt 0.003522 0.737288
vt 0.880158 0.262712
vt 0.929386 0.262712
vt 0.929386 0.003522
vt 0.880158 0.003522
vt 0.936430 0.262712
vt 0.985658 0.262712
vt 0.985658 0.003522
vt 0.936430 0.003522
vt 0.116067 0.996478
vt 0.159190 0.996478
vt 0.159190 0.737288
vt 0.116067 0.737288
vt 0.936430 0.795180
vt 0.985658 0.795180
vt 0.985658 0.535991
vt 0.936430 0.535991
vt 0.366906 0.996478
vt 0.410028 0.996478
vt 0.410028 0.737288
vt 0.366906 0.737288
vt 0.417073 0.996478
vt 0.460196 0.996478
vt 0.460196 0.737288
vt 0.417073 0.737288
vt 0.936430 0.528946
vt 0.985658 0.528946
vt 0.985658 0.269757
vt 0.936430 0.269757
vt 0.216403 0.996478
vt 0.259525 0.996478
vt 0.259525 0.737288
vt 0.216403 0.737288
vt 0.880158 0.795180
vt 0.929386 0.795180
vt 0.929386 0.535991
vt 0.880158 0.535991
vt 0.266570 0.996478
vt 0.309693 0.996478
vt 0.309693 0.737288
vt 0.266570 0.737288
vn 0.1736 0.0000 -0.9848
vn 0.9848 0.0000 0.1736
vn -0.1736 0.0000 0.9848
vn -0.9848 0.0000 -0.1736
vn 0.0000 -1.0000 0.0000
vn 0.0000 1.0000 -0.0000
usemtl Table
s off
f 57/79/7 60/80/7 44/81/7 43/82/7
f 49/83/8 52/84/8 48/85/8 47/86/8
f 61/87/9 64/88/9 46/89/9 45/90/9
f 53/91/10 56/92/10 42/93/10 41/94/10
f 72/95/11 61/96/11 86/97/11 84/98/11
f 68/99/12 59/100/12 42/101/12 56/102/12
f 64/103/12 66/104/12 55/105/12 46/106/12
f 66/104/12 68/99/12 56/102/12 55/105/12
f 50/107/11 69/108/11 87/109/11 75/110/11
f 70/111/11 72/95/11 54/112/11 53/113/11
f 45/114/10 46/115/10 55/116/10 54/117/10
f 54/117/10 55/116/10 56/92/10 53/91/10
f 43/118/8 44/119/8 51/120/8 50/121/8
f 50/121/8 51/120/8 52/84/8 49/83/8
f 50/107/11 49/122/11 71/123/11 69/108/11
f 69/108/11 71/123/11 72/95/11 70/111/11
f 45/124/11 54/112/11 79/125/11 80/126/11
f 57/127/11 69/108/11 70/111/11 58/128/11
f 52/129/12 51/130/12 67/131/12 65/132/12
f 65/132/12 67/131/12 68/99/12 66/104/12
f 48/133/12 52/129/12 65/132/12 63/134/12
f 63/134/12 65/132/12 66/104/12 64/103/12
f 51/130/12 44/135/12 60/136/12 67/131/12
f 67/131/12 60/136/12 59/100/12 68/99/12
f 58/128/11 70/111/11 83/137/11 73/138/11
f 71/123/11 62/139/11 61/96/11 72/95/11
f 47/140/9 48/141/9 63/142/9 62/143/9
f 62/143/9 63/142/9 64/88/9 61/87/9
f 41/144/7 42/145/7 59/146/7 58/147/7
f 58/147/7 59/146/7 60/80/7 57/79/7
f 88/148/7 81/149/7 97/150/7 104/151/7
f 80/152/10 79/153/10 95/154/10 96/155/10
f 75/156/9 87/157/9 103/158/9 91/159/9
f 78/160/9 77/161/9 93/162/9 94/163/9
f 43/164/11 50/107/11 75/110/11 76/165/11
f 49/122/11 47/166/11 78/167/11 81/168/11
f 71/123/11 49/122/11 81/168/11 88/169/11
f 57/127/11 43/164/11 76/165/11 85/170/11
f 47/166/11 62/139/11 77/171/11 78/167/11
f 70/111/11 53/113/11 82/172/11 83/137/11
f 41/173/11 58/128/11 73/138/11 74/174/11
f 54/112/11 72/95/11 84/98/11 79/125/11
f 53/113/11 41/173/11 74/174/11 82/172/11
f 69/108/11 57/127/11 85/170/11 87/109/11
f 62/139/11 71/123/11 88/169/11 77/171/11
f 61/96/11 45/124/11 80/126/11 86/97/11
f 100/175/11 102/176/11 96/177/11 95/178/11
f 89/179/11 99/180/11 98/181/11 90/182/11
f 92/183/11 91/184/11 103/185/11 101/186/11
f 97/187/11 94/188/11 93/189/11 104/190/11
f 81/191/8 78/192/8 94/193/8 97/194/8
f 87/195/10 85/196/10 101/197/10 103/198/10
f 82/199/10 74/200/10 90/201/10 98/202/10
f 73/203/8 83/204/8 99/205/8 89/206/8
f 83/207/9 82/208/9 98/209/9 99/210/9
f 77/211/10 88/212/10 104/213/10 93/214/10
f 79/215/7 84/216/7 100/217/7 95/218/7
f 74/219/7 73/220/7 89/221/7 90/222/7
f 84/223/8 86/224/8 102/225/8 100/226/8
f 85/227/7 76/228/7 92/229/7 101/230/7
f 76/231/8 75/232/8 91/233/8 92/234/8
f 86/235/9 80/236/9 96/237/9 102/238/9
o Caisse_Cube.003
v 1.786885 0.304907 -0.843018
v 1.786885 2.141246 -0.843018
v 2.537812 0.304907 -2.518801
v 2.537812 2.141246 -2.518801
v 3.462668 0.304907 -0.092090
v 3.462668 2.141246 -0.092090
v 4.213595 0.304907 -1.767873
v 4.213595 2.141246 -1.767873
vt 0.375000 0.000000
vt 0.625000 0.000000
vt 0.625000 0.250000
vt 0.375000 0.250000
vt 0.625000 0.500000
vt 0.375000 0.500000
vt 0.625000 0.750000
vt 0.375000 0.750000
vt 0.625000 1.000000
vt 0.375000 1.000000
vt 0.125000 0.500000
vt 0.125000 0.750000
vt 0.875000 0.500000
vt 0.875000 0.750000
vn -0.9126 0.0000 -0.4089
vn 0.4089 0.0000 -0.9126
vn 0.9126 0.0000 0.4089
vn -0.4089 0.0000 0.9126
vn 0.0000 -1.0000 0.0000
vn 0.0000 1.0000 0.0000
usemtl Caisse
s off
f 105/239/13 106/240/13 108/241/13 107/242/13
f 107/242/14 108/241/14 112/243/14 111/244/14
f 111/244/15 112/243/15 110/245/15 109/246/15
f 109/246/16 110/245/16 106/247/16 105/248/16
f 107/249/17 111/244/17 109/246/17 105/250/17
f 112/243/18 108/251/18 106/252/18 110/245/18
o cBox_House_Cube
v -5.033353 0.000000 3.086824
v -5.033353 6.310770 3.086824
v -5.033353 0.000000 -4.077416
v -5.033353 6.310771 -4.077416
v 5.033353 0.000000 3.086824
v 5.033353 6.310770 3.086824
v 5.033353 0.000000 -4.077416
v 5.033353 6.310770 -4.077416
vt 0.375000 0.000000
vt 0.625000 0.000000
vt 0.625000 0.250000
vt 0.375000 0.250000
vt 0.625000 0.500000
vt 0.375000 0.500000
vt 0.625000 0.750000
vt 0.375000 0.750000
vt 0.625000 1.000000
vt 0.375000 1.000000
vt 0.125000 0.500000
vt 0.125000 0.750000
vt 0.875000 0.500000
vt 0.875000 0.750000
vn -1.0000 0.0000 0.0000
vn 0.0000 0.0000 -1.0000
vn 1.0000 0.0000 0.0000
vn 0.0000 0.0000 1.0000
vn 0.0000 -1.0000 0.0000
vn 0.0000 1.0000 0.0000
usemtl None
s off
f 113/253/19 114/254/19 116/255/19 115/256/19
f 115/256/20 116/255/20 120/257/20 119/258/20
f 119/258/21 120/257/21 118/259/21 117/260/21
f 117/260/22 118/259/22 114/261/22 113/262/22
f 115/263/23 119/258/23 117/260/23 113/264/23
f 120/257/24 116/265/24 114/266/24 118/259/24
