# Blender v2.91.0 OBJ File: 'master.blend'
# www.blender.org
mtllib Fence.mtl
o WallRondins_Cylinder
v 0.000000 -3.780473 -0.640000
v 0.000000 10.283789 -0.640000
v 0.452548 -3.780473 -0.452548
v 0.452548 10.283789 -0.452548
v 0.640000 -3.780473 0.000000
v 0.640000 10.283789 0.000000
v 0.452548 -3.780473 0.452548
v 0.452548 10.283789 0.452548
v -0.000000 -3.780473 0.640000
v -0.000000 10.283789 0.640000
v -0.452548 -3.780473 0.452548
v -0.452548 10.283789 0.452548
v -0.640000 -3.780473 -0.000000
v -0.640000 10.283789 -0.000000
v -0.452548 -3.780473 -0.452548
v -0.452548 10.283789 -0.452548
v 1.331200 -3.780473 -0.640000
v 1.331200 10.283789 -0.640000
v 1.783748 -3.780473 -0.452548
v 1.783748 10.283789 -0.452548
v 1.971200 -3.780473 0.000000
v 1.971200 10.283789 0.000000
v 1.783748 -3.780473 0.452548
v 1.783748 10.283789 0.452548
v 1.331200 -3.780473 0.640000
v 1.331200 10.283789 0.640000
v 0.878652 -3.780473 0.452548
v 0.878652 10.283789 0.452548
v 0.691200 -3.780473 -0.000000
v 0.691200 10.283789 -0.000000
v 0.878652 -3.780473 -0.452548
v 0.878652 10.283789 -0.452548
v 2.662400 -3.780473 -0.640000
v 2.662400 10.283789 -0.640000
v 3.114948 -3.780473 -0.452548
v 3.114948 10.283789 -0.452548
v 3.302400 -3.780473 0.000000
v 3.302400 10.283789 0.000000
v 3.114948 -3.780473 0.452548
v 3.114948 10.283789 0.452548
v 2.662400 -3.780473 0.640000
v 2.662400 10.283789 0.640000
v 2.209852 -3.780473 0.452548
v 2.209852 10.283789 0.452548
v 2.022400 -3.780473 -0.000000
v 2.022400 10.283789 -0.000000
v 2.209852 -3.780473 -0.452548
v 2.209852 10.283789 -0.452548
v 3.993600 -3.780473 -0.640000
v 3.993600 10.283789 -0.640000
v 4.446148 -3.780473 -0.452548
v 4.446148 10.283789 -0.452548
v 4.633600 -3.780473 0.000000
v 4.633600 10.283789 0.000000
v 4.446148 -3.780473 0.452548
v 4.446148 10.283789 0.452548
v 3.993600 -3.780473 0.640000
v 3.993600 10.283789 0.640000
v 3.541052 -3.780473 0.452548
v 3.541052 10.283789 0.452548
v 3.353600 -3.780473 -0.000000
v 3.353600 10.283789 -0.000000
v 3.541052 -3.780473 -0.452548
v 3.541052 10.283789 -0.452548
v 5.324800 -3.780473 -0.640000
v 5.324800 10.283789 -0.640000
v 5.777349 -3.780473 -0.452548
v 5.777349 10.283789 -0.452548
v 5.964800 -3.780473 0.000000
v 5.964800 10.283789 0.000000
v 5.777349 -3.780473 0.452548
v 5.777349 10.283789 0.452548
v 5.324800 -3.780473 0.640000
v 5.324800 10.283789 0.640000
v 4.872252 -3.780473 0.452548
v 4.872252 10.283789 0.452548
v 4.684800 -3.780473 -0.000000
v 4.684800 10.283789 -0.000000
v 4.872252 -3.780473 -0.452548
v 4.872252 10.283789 -0.452548
v 6.656000 -3.780473 -0.640000
v 6.656000 10.283789 -0.640000
v 7.108549 -3.780473 -0.452548
v 7.108549 10.283789 -0.452548
v 7.296000 -3.780473 0.000000
v 7.296000 10.283789 0.000000
v 7.108549 -3.780473 0.452548
v 7.108549 10.283789 0.452548
v 6.656000 -3.780473 0.640000
v 6.656000 10.283789 0.640000
v 6.203452 -3.780473 0.452548
v 6.203452 10.283789 0.452548
v 6.016000 -3.780473 -0.000000
v 6.016000 10.283789 -0.000000
v 6.203452 -3.780473 -0.452548
v 6.203452 10.283789 -0.452548
v 7.987200 -3.780473 -0.640000
v 7.987200 10.283789 -0.640000
v 8.439749 -3.780473 -0.452548
v 8.439749 10.283789 -0.452548
v 8.627200 -3.780473 0.000000
v 8.627200 10.283789 0.000000
v 8.439749 -3.780473 0.452548
v 8.439749 10.283789 0.452548
v 7.987200 -3.780473 0.640000
v 7.987200 10.283789 0.640000
v 7.534652 -3.780473 0.452548
v 7.534652 10.283789 0.452548
v 7.347200 -3.780473 -0.000000
v 7.347200 10.283789 -0.000000
v 7.534652 -3.780473 -0.452548
v 7.534652 10.283789 -0.452548
v 9.318400 -3.780473 -0.640000
v 9.318400 10.283789 -0.640000
v 9.770948 -3.780473 -0.452548
v 9.770948 10.283789 -0.452548
v 9.958401 -3.780473 0.000000
v 9.958401 10.283789 0.000000
v 9.770948 -3.780473 0.452548
v 9.770948 10.283789 0.452548
v 9.318400 -3.780473 0.640000
v 9.318400 10.283789 0.640000
v 8.865852 -3.780473 0.452548
v 8.865852 10.283789 0.452548
v 8.678400 -3.780473 -0.000000
v 8.678400 10.283789 -0.000000
v 8.865852 -3.780473 -0.452548
v 8.865852 10.283789 -0.452548
v 10.649600 -3.780473 -0.640000
v 10.649600 10.283789 -0.640000
v 11.102149 -3.780473 -0.452548
v 11.102149 10.283789 -0.452548
v 11.289600 -3.780473 0.000000
v 11.289600 10.283789 0.000000
v 11.102149 -3.780473 0.452548
v 11.102149 10.283789 0.452548
v 10.649600 -3.780473 0.640000
v 10.649600 10.283789 0.640000
v 10.197052 -3.780473 0.452548
v 10.197052 10.283789 0.452548
v 10.009601 -3.780473 -0.000000
v 10.009601 10.283789 -0.000000
v 10.197052 -3.780473 -0.452548
v 10.197052 10.283789 -0.452548
v 11.980801 -3.780473 -0.640000
v 11.980801 10.283789 -0.640000
v 12.433350 -3.780473 -0.452548
v 12.433350 10.283789 -0.452548
v 12.620800 -3.780473 0.000000
v 12.620800 10.283789 0.000000
v 12.433350 -3.780473 0.452548
v 12.433350 10.283789 0.452548
v 11.980801 -3.780473 0.640000
v 11.980801 10.283789 0.640000
v 11.528252 -3.780473 0.452548
v 11.528252 10.283789 0.452548
v 11.340800 -3.780473 -0.000000
v 11.340800 10.283789 -0.000000
v 11.528252 -3.780473 -0.452548
v 11.528252 10.283789 -0.452548
vt 0.048263 0.000000
vt 0.048263 1.000000
vt 0.082389 1.000000
vt 0.082389 0.000000
vt 0.096525 1.000000
vt 0.096525 0.000000
vt 0.082389 1.000000
vt 0.082389 0.000000
vt 0.048263 1.000000
vt 0.048263 0.000000
vt 0.014136 1.000000
vt 0.014136 0.000000
vt 0.000000 1.000000
vt 0.000000 0.000000
vt 0.082389 0.534866
vt 0.048263 0.549308
vt 0.014136 0.534866
vt 0.000000 0.500000
vt 0.014136 0.465134
vt 0.048263 0.450692
vt 0.082389 0.465134
vt 0.096525 0.500000
vt 0.014136 1.000000
vt 0.014136 0.000000
vt 0.148649 0.000000
vt 0.148649 1.000000
vt 0.182775 1.000000
vt 0.182775 0.000000
vt 0.196911 1.000000
vt 0.196911 0.000000
vt 0.182775 1.000000
vt 0.182775 0.000000
vt 0.148649 1.000000
vt 0.148649 0.000000
vt 0.114522 1.000000
vt 0.114522 0.000000
vt 0.100386 1.000000
vt 0.100386 0.000000
vt 0.182775 0.534866
vt 0.148649 0.549308
vt 0.114522 0.534866
vt 0.100386 0.500000
vt 0.114522 0.465134
vt 0.148649 0.450692
vt 0.182775 0.465134
vt 0.196911 0.500000
vt 0.114522 1.000000
vt 0.114522 0.000000
vt 0.249035 0.000000
vt 0.249035 1.000000
vt 0.283161 1.000000
vt 0.283161 0.000000
vt 0.297297 1.000000
vt 0.297297 0.000000
vt 0.283161 1.000000
vt 0.283161 0.000000
vt 0.249035 1.000000
vt 0.249035 0.000000
vt 0.214908 1.000000
vt 0.214908 0.000000
vt 0.200772 1.000000
vt 0.200772 0.000000
vt 0.283162 0.534866
vt 0.249035 0.549308
vt 0.214908 0.534866
vt 0.200772 0.500000
vt 0.214908 0.465134
vt 0.249035 0.450692
vt 0.283162 0.465134
vt 0.297297 0.500000
vt 0.214908 1.000000
vt 0.214908 0.000000
vt 0.349421 0.000000
vt 0.349421 1.000000
vt 0.383547 1.000000
vt 0.383547 0.000000
vt 0.397683 1.000000
vt 0.397683 0.000000
vt 0.383547 1.000000
vt 0.383547 0.000000
vt 0.349421 1.000000
vt 0.349421 0.000000
vt 0.315294 1.000000
vt 0.315294 0.000000
vt 0.301158 1.000000
vt 0.301158 0.000000
vt 0.383548 0.534866
vt 0.349421 0.549308
vt 0.315294 0.534866
vt 0.301158 0.500000
vt 0.315294 0.465134
vt 0.349421 0.450692
vt 0.383548 0.465134
vt 0.397683 0.500000
vt 0.315294 1.000000
vt 0.315294 0.000000
vt 0.449807 0.000000
vt 0.449807 1.000000
vt 0.483934 1.000000
vt 0.483934 0.000000
vt 0.498069 1.000000
vt 0.498069 0.000000
vt 0.483934 1.000000
vt 0.483934 0.000000
vt 0.449807 1.000000
vt 0.449807 0.000000
vt 0.415680 1.000000
vt 0.415680 0.000000
vt 0.401544 1.000000
vt 0.401544 0.000000
vt 0.483934 0.534866
vt 0.449807 0.549308
vt 0.415680 0.534866
vt 0.401544 0.500000
vt 0.415680 0.465134
vt 0.449807 0.450692
vt 0.483934 0.465134
vt 0.498069 0.500000
vt 0.415680 1.000000
vt 0.415680 0.000000
vt 0.550193 0.000000
vt 0.550193 1.000000
vt 0.584320 1.000000
vt 0.584320 0.000000
vt 0.598456 1.000000
vt 0.598456 0.000000
vt 0.584320 1.000000
vt 0.584320 0.000000
vt 0.550193 1.000000
vt 0.550193 0.000000
vt 0.516066 1.000000
vt 0.516066 0.000000
vt 0.501930 1.000000
vt 0.501930 0.000000
vt 0.584320 0.534866
vt 0.550193 0.549308
vt 0.516066 0.534866
vt 0.501931 0.500000
vt 0.516066 0.465134
vt 0.550193 0.450692
vt 0.584320 0.465134
vt 0.598456 0.500000
vt 0.516066 1.000000
vt 0.516066 0.000000
vt 0.650579 0.000000
vt 0.650579 1.000000
vt 0.684706 1.000000
vt 0.684706 0.000000
vt 0.698842 1.000000
vt 0.698842 0.000000
vt 0.684706 1.000000
vt 0.684706 0.000000
vt 0.650579 1.000000
vt 0.650579 0.000000
vt 0.616452 1.000000
vt 0.616452 0.000000
vt 0.602316 1.000000
vt 0.602316 0.000000
vt 0.684706 0.534866
vt 0.650579 0.549308
vt 0.616452 0.534866
vt 0.602317 0.500000
vt 0.616452 0.465134
vt 0.650579 0.450692
vt 0.684706 0.465134
vt 0.698842 0.500000
vt 0.616452 1.000000
vt 0.616452 0.000000
vt 0.750965 0.000000
vt 0.750965 1.000000
vt 0.785092 1.000000
vt 0.785092 0.000000
vt 0.799228 1.000000
vt 0.799228 0.000000
vt 0.785092 1.000000
vt 0.785092 0.000000
vt 0.750965 1.000000
vt 0.750965 0.000000
vt 0.716838 1.000000
vt 0.716838 0.000000
vt 0.702703 1.000000
vt 0.702703 0.000000
vt 0.785092 0.534866
vt 0.750965 0.549308
vt 0.716838 0.534866
vt 0.702703 0.500000
vt 0.716838 0.465134
vt 0.750965 0.450692
vt 0.785092 0.465134
vt 0.799228 0.500000
vt 0.716838 1.000000
vt 0.716838 0.000000
vt 0.851351 0.000000
vt 0.851351 1.000000
vt 0.885478 1.000000
vt 0.885478 0.000000
vt 0.899614 1.000000
vt 0.899614 0.000000
vt 0.885478 1.000000
vt 0.885478 0.000000
vt 0.851351 1.000000
vt 0.851351 0.000000
vt 0.817224 1.000000
vt 0.817224 0.000000
vt 0.803089 1.000000
vt 0.803089 0.000000
vt 0.885478 0.534866
vt 0.851351 0.549308
vt 0.817225 0.534866
vt 0.803089 0.500000
vt 0.817225 0.465134
vt 0.851351 0.450692
vt 0.885478 0.465134
vt 0.899614 0.500000
vt 0.817224 1.000000
vt 0.817224 0.000000
vt 0.951738 0.000000
vt 0.951738 1.000000
vt 0.985864 1.000000
vt 0.985864 0.000000
vt 1.000000 1.000000
vt 1.000000 0.000000
vt 0.985864 1.000000
vt 0.985864 0.000000
vt 0.951738 1.000000
vt 0.951738 0.000000
vt 0.917611 1.000000
vt 0.917611 0.000000
vt 0.903475 1.000000
vt 0.903475 0.000000
vt 0.985864 0.534866
vt 0.951738 0.549308
vt 0.917611 0.534866
vt 0.903475 0.500000
vt 0.917611 0.465134
vt 0.951738 0.450692
vt 0.985864 0.465134
vt 1.000000 0.500000
vt 0.917611 1.000000
vt 0.917611 0.000000
vn 0.3827 0.0000 -0.9239
vn 0.9239 0.0000 -0.3827
vn 0.9239 0.0000 0.3827
vn 0.3827 0.0000 0.9239
vn -0.3827 0.0000 0.9239
vn -0.9239 0.0000 0.3827
vn 0.0000 1.0000 -0.0000
vn -0.9239 0.0000 -0.3827
vn -0.3827 0.0000 -0.9239
vn 0.0000 -1.0000 0.0000
usemtl WallRondins
s off
f 1/1/1 2/2/1 4/3/1 3/4/1
f 3/4/2 4/3/2 6/5/2 5/6/2
f 5/6/3 6/5/3 8/7/3 7/8/3
f 7/8/4 8/7/4 10/9/4 9/10/4
f 9/10/5 10/9/5 12/11/5 11/12/5
f 11/12/6 12/11/6 14/13/6 13/14/6
f 4/15/7 2/16/7 16/17/7 14/18/7 12/19/7 10/20/7 8/21/7 6/22/7
f 13/14/8 14/13/8 16/23/8 15/24/8
f 15/24/9 16/23/9 2/2/9 1/1/9
f 1/1/10 3/4/10 5/6/10 7/8/10 9/10/10 11/12/10 13/14/10 15/24/10
f 17/25/1 18/26/1 20/27/1 19/28/1
f 19/28/2 20/27/2 22/29/2 21/30/2
f 21/30/3 22/29/3 24/31/3 23/32/3
f 23/32/4 24/31/4 26/33/4 25/34/4
f 25/34/5 26/33/5 28/35/5 27/36/5
f 27/36/6 28/35/6 30/37/6 29/38/6
f 20/39/7 18/40/7 32/41/7 30/42/7 28/43/7 26/44/7 24/45/7 22/46/7
f 29/38/8 30/37/8 32/47/8 31/48/8
f 31/48/9 32/47/9 18/26/9 17/25/9
f 17/25/10 19/28/10 21/30/10 23/32/10 25/34/10 27/36/10 29/38/10 31/48/10
f 33/49/1 34/50/1 36/51/1 35/52/1
f 35/52/2 36/51/2 38/53/2 37/54/2
f 37/54/3 38/53/3 40/55/3 39/56/3
f 39/56/4 40/55/4 42/57/4 41/58/4
f 41/58/5 42/57/5 44/59/5 43/60/5
f 43/60/6 44/59/6 46/61/6 45/62/6
f 36/63/7 34/64/7 48/65/7 46/66/7 44/67/7 42/68/7 40/69/7 38/70/7
f 45/62/8 46/61/8 48/71/8 47/72/8
f 47/72/9 48/71/9 34/50/9 33/49/9
f 33/49/10 35/52/10 37/54/10 39/56/10 41/58/10 43/60/10 45/62/10 47/72/10
f 49/73/1 50/74/1 52/75/1 51/76/1
f 51/76/2 52/75/2 54/77/2 53/78/2
f 53/78/3 54/77/3 56/79/3 55/80/3
f 55/80/4 56/79/4 58/81/4 57/82/4
f 57/82/5 58/81/5 60/83/5 59/84/5
f 59/84/6 60/83/6 62/85/6 61/86/6
f 52/87/7 50/88/7 64/89/7 62/90/7 60/91/7 58/92/7 56/93/7 54/94/7
f 61/86/8 62/85/8 64/95/8 63/96/8
f 63/96/9 64/95/9 50/74/9 49/73/9
f 49/73/10 51/76/10 53/78/10 55/80/10 57/82/10 59/84/10 61/86/10 63/96/10
f 65/97/1 66/98/1 68/99/1 67/100/1
f 67/100/2 68/99/2 70/101/2 69/102/2
f 69/102/3 70/101/3 72/103/3 71/104/3
f 71/104/4 72/103/4 74/105/4 73/106/4
f 73/106/5 74/105/5 76/107/5 75/108/5
f 75/108/6 76/107/6 78/109/6 77/110/6
f 68/111/7 66/112/7 80/113/7 78/114/7 76/115/7 74/116/7 72/117/7 70/118/7
f 77/110/8 78/109/8 80/119/8 79/120/8
f 79/120/9 80/119/9 66/98/9 65/97/9
f 65/97/10 67/100/10 69/102/10 71/104/10 73/106/10 75/108/10 77/110/10 79/120/10
f 81/121/1 82/122/1 84/123/1 83/124/1
f 83/124/2 84/123/2 86/125/2 85/126/2
f 85/126/3 86/125/3 88/127/3 87/128/3
f 87/128/4 88/127/4 90/129/4 89/130/4
f 89/130/5 90/129/5 92/131/5 91/132/5
f 91/132/6 92/131/6 94/133/6 93/134/6
f 84/135/7 82/136/7 96/137/7 94/138/7 92/139/7 90/140/7 88/141/7 86/142/7
f 93/134/8 94/133/8 96/143/8 95/144/8
f 95/144/9 96/143/9 82/122/9 81/121/9
f 81/121/10 83/124/10 85/126/10 87/128/10 89/130/10 91/132/10 93/134/10 95/144/10
f 97/145/1 98/146/1 100/147/1 99/148/1
f 99/148/2 100/147/2 102/149/2 101/150/2
f 101/150/3 102/149/3 104/151/3 103/152/3
f 103/152/4 104/151/4 106/153/4 105/154/4
f 105/154/5 106/153/5 108/155/5 107/156/5
f 107/156/6 108/155/6 110/157/6 109/158/6
f 100/159/7 98/160/7 112/161/7 110/162/7 108/163/7 106/164/7 104/165/7 102/166/7
f 109/158/8 110/157/8 112/167/8 111/168/8
f 111/168/9 112/167/9 98/146/9 97/145/9
f 97/145/10 99/148/10 101/150/10 103/152/10 105/154/10 107/156/10 109/158/10 111/168/10
f 113/169/1 114/170/1 116/171/1 115/172/1
f 115/172/2 116/171/2 118/173/2 117/174/2
f 117/174/3 118/173/3 120/175/3 119/176/3
f 119/176/4 120/175/4 122/177/4 121/178/4
f 121/178/5 122/177/5 124/179/5 123/180/5
f 123/180/6 124/179/6 126/181/6 125/182/6
f 116/183/7 114/184/7 128/185/7 126/186/7 124/187/7 122/188/7 120/189/7 118/190/7
f 125/182/8 126/181/8 128/191/8 127/192/8
f 127/192/9 128/191/9 114/170/9 113/169/9
f 113/169/10 115/172/10 117/174/10 119/176/10 121/178/10 123/180/10 125/182/10 127/192/10
f 129/193/1 130/194/1 132/195/1 131/196/1
f 131/196/2 132/195/2 134/197/2 133/198/2
f 133/198/3 134/197/3 136/199/3 135/200/3
f 135/200/4 136/199/4 138/201/4 137/202/4
f 137/202/5 138/201/5 140/203/5 139/204/5
f 139/204/6 140/203/6 142/205/6 141/206/6
f 132/207/7 130/208/7 144/209/7 142/210/7 140/211/7 138/212/7 136/213/7 134/214/7
f 141/206/8 142/205/8 144/215/8 143/216/8
f 143/216/9 144/215/9 130/194/9 129/193/9
f 129/193/10 131/196/10 133/198/10 135/200/10 137/202/10 139/204/10 141/206/10 143/216/10
f 145/217/1 146/218/1 148/219/1 147/220/1
f 147/220/2 148/219/2 150/221/2 149/222/2
f 149/222/3 150/221/3 152/223/3 151/224/3
f 151/224/4 152/223/4 154/225/4 153/226/4
f 153/226/5 154/225/5 156/227/5 155/228/5
f 155/228/6 156/227/6 158/229/6 157/230/6
f 148/231/7 146/232/7 160/233/7 158/234/7 156/235/7 154/236/7 152/237/7 150/238/7
f 157/230/8 158/229/8 160/239/8 159/240/8
f 159/240/9 160/239/9 146/218/9 145/217/9
f 145/217/10 147/220/10 149/222/10 151/224/10 153/226/10 155/228/10 157/230/10 159/240/10
o cBox_Wall_Cube.023
v -1.736923 -3.780473 0.660244
v -1.736923 10.285262 0.660244
v -1.736923 -3.780473 -0.660244
v -1.736923 10.285262 -0.660244
v 13.752434 -3.780473 0.660244
v 13.752434 10.285262 0.660244
v 13.752434 -3.780473 -0.660244
v 13.752434 10.285262 -0.660244
vt 0.375000 0.000000
vt 0.625000 0.000000
vt 0.625000 0.250000
vt 0.375000 0.250000
vt 0.625000 0.500000
vt 0.375000 0.500000
vt 0.625000 0.750000
vt 0.375000 0.750000
vt 0.625000 1.000000
vt 0.375000 1.000000
vt 0.125000 0.500000
vt 0.125000 0.750000
vt 0.875000 0.500000
vt 0.875000 0.750000
vn -1.0000 0.0000 0.0000
vn 0.0000 0.0000 -1.0000
vn 1.0000 0.0000 0.0000
vn 0.0000 0.0000 1.0000
vn 0.0000 -1.0000 0.0000
vn 0.0000 1.0000 0.0000
usemtl None
s off
f 161/241/11 162/242/11 164/243/11 163/244/11
f 163/244/12 164/243/12 168/245/12 167/246/12
f 167/246/13 168/245/13 166/247/13 165/248/13
f 165/248/14 166/247/14 162/249/14 161/250/14
f 163/251/15 167/246/15 165/248/15 161/252/15
f 168/245/16 164/253/16 162/254/16 166/247/16
