# Blender v2.91.0 OBJ File: 'master.blend'
# www.blender.org
mtllib IODoor.mtl
o Door_Cube.069
v 0.000000 0.003165 -0.166847
v 0.000000 6.433292 -0.166847
v 0.604305 0.003165 -0.166847
v 0.604305 6.433292 -0.166847
v -0.000000 0.003165 0.166848
v -0.000000 6.433292 0.166848
v 0.604305 0.003165 0.166848
v 0.604305 6.433292 0.166848
v 0.652649 0.003165 -0.166847
v 0.652649 6.433292 -0.166847
v 1.256954 0.003165 -0.166847
v 1.256954 6.433292 -0.166847
v 0.652649 0.003165 0.166848
v 0.652649 6.433292 0.166848
v 1.256954 0.003165 0.166848
v 1.256954 6.433292 0.166848
v 1.305299 0.003165 -0.166847
v 1.305299 6.433292 -0.166847
v 1.909603 0.003165 -0.166847
v 1.909603 6.433292 -0.166847
v 1.305299 0.003165 0.166848
v 1.305299 6.433292 0.166848
v 1.909603 0.003165 0.166848
v 1.909603 6.433292 0.166848
v 1.957948 0.003165 -0.166847
v 1.957948 6.433292 -0.166847
v 2.562253 0.003165 -0.166847
v 2.562253 6.433292 -0.166847
v 1.957948 0.003165 0.166848
v 1.957948 6.433292 0.166848
v 2.562253 0.003165 0.166848
v 2.562253 6.433292 0.166848
v 2.610597 0.003165 -0.166847
v 2.610597 6.433292 -0.166847
v 3.214902 0.003165 -0.166847
v 3.214902 6.433292 -0.166847
v 2.610597 0.003165 0.166848
v 2.610597 6.433292 0.166848
v 3.214902 0.003165 0.166848
v 3.214902 6.433292 0.166848
v -0.011993 5.414614 -0.207801
v 3.201039 5.414614 -0.207801
v -0.011992 5.078365 -0.207801
v 3.201039 5.078365 -0.207801
v -0.011993 5.414614 0.207800
v 3.201039 5.414614 0.207800
v -0.011993 5.078365 0.207800
v 3.201039 5.078365 0.207800
v -0.011993 1.467409 -0.207801
v 3.201039 1.467409 -0.207801
v -0.011992 1.131160 -0.207801
v 3.201039 1.131160 -0.207801
v -0.011993 1.467409 0.207800
v 3.201039 1.467409 0.207800
v -0.011993 1.131160 0.207800
v 3.201039 1.131160 0.207800
v 0.280885 5.373655 -0.195596
v 3.165544 1.376708 -0.195596
v 0.008229 5.176876 -0.195596
v 2.892889 1.179929 -0.195596
v 0.280885 5.373655 0.195595
v 3.165544 1.376708 0.195595
v 0.008229 5.176876 0.195595
v 2.892889 1.179929 0.195595
vt 0.994156 0.541545
vt 0.005844 0.541545
vt 0.005844 0.627082
vt 0.994156 0.627082
vt 0.005844 0.627082
vt 0.994156 0.627082
vt 0.005844 0.541545
vt 0.994156 0.541545
vt 0.994156 0.633925
vt 0.005844 0.633925
vt 0.005844 0.719463
vt 0.994156 0.719463
vt 0.005844 0.719463
vt 0.994156 0.719463
vt 0.005844 0.633925
vt 0.994156 0.633925
vt 0.994156 0.726306
vt 0.005844 0.726306
vt 0.005844 0.811843
vt 0.994156 0.811843
vt 0.005844 0.811843
vt 0.994156 0.811843
vt 0.005844 0.726306
vt 0.994156 0.726306
vt 0.994156 0.818686
vt 0.005844 0.818686
vt 0.005844 0.904223
vt 0.994156 0.904223
vt 0.005844 0.904223
vt 0.994156 0.904223
vt 0.005844 0.818686
vt 0.994156 0.818686
vt 0.994156 0.911066
vt 0.005844 0.911066
vt 0.005844 0.996603
vt 0.994156 0.996603
vt 0.005844 0.996603
vt 0.994156 0.996603
vt 0.005844 0.911066
vt 0.994156 0.911066
vt 0.162415 0.539848
vt 0.162415 0.994641
vt 0.214096 0.994641
vt 0.214096 0.539848
vt 0.214096 0.994641
vt 0.214096 0.539848
vt 0.162415 0.994641
vt 0.162415 0.539848
vt 0.769101 0.539848
vt 0.769101 0.994641
vt 0.820783 0.994641
vt 0.820783 0.539848
vt 0.820783 0.994641
vt 0.820783 0.539848
vt 0.769101 0.994641
vt 0.769101 0.539848
vt 0.168710 0.581303
vt 0.783042 0.989616
vt 0.813287 0.951023
vt 0.198955 0.542710
vt 0.813287 0.951023
vt 0.198955 0.542710
vt 0.783042 0.989616
vt 0.168710 0.581303
vn 0.0000 0.0000 -1.0000
vn 1.0000 0.0000 0.0000
vn -0.0000 0.0000 1.0000
vn -1.0000 0.0000 -0.0000
vn 0.0000 -1.0000 -0.0000
vn 0.0000 1.0000 0.0000
vn -0.8109 -0.5852 0.0000
vn 0.8109 0.5852 0.0000
vn -0.5852 0.8109 0.0000
vn 0.5852 -0.8109 0.0000
usemtl House_Wood
s off
f 1/1/1 2/2/1 4/3/1 3/4/1
f 3/4/2 4/3/2 8/5/2 7/6/2
f 7/6/3 8/5/3 6/7/3 5/8/3
f 5/8/4 6/7/4 2/2/4 1/1/4
f 3/4/5 7/6/5 5/8/5 1/1/5
f 8/5/6 4/3/6 2/2/6 6/7/6
f 9/9/1 10/10/1 12/11/1 11/12/1
f 11/12/2 12/11/2 16/13/2 15/14/2
f 15/14/3 16/13/3 14/15/3 13/16/3
f 13/16/4 14/15/4 10/10/4 9/9/4
f 11/12/5 15/14/5 13/16/5 9/9/5
f 16/13/6 12/11/6 10/10/6 14/15/6
f 17/17/1 18/18/1 20/19/1 19/20/1
f 19/20/2 20/19/2 24/21/2 23/22/2
f 23/22/3 24/21/3 22/23/3 21/24/3
f 21/24/4 22/23/4 18/18/4 17/17/4
f 19/20/5 23/22/5 21/24/5 17/17/5
f 24/21/6 20/19/6 18/18/6 22/23/6
f 25/25/1 26/26/1 28/27/1 27/28/1
f 27/28/2 28/27/2 32/29/2 31/30/2
f 31/30/3 32/29/3 30/31/3 29/32/3
f 29/32/4 30/31/4 26/26/4 25/25/4
f 27/28/5 31/30/5 29/32/5 25/25/5
f 32/29/6 28/27/6 26/26/6 30/31/6
f 33/33/1 34/34/1 36/35/1 35/36/1
f 35/36/2 36/35/2 40/37/2 39/38/2
f 39/38/3 40/37/3 38/39/3 37/40/3
f 37/40/4 38/39/4 34/34/4 33/33/4
f 35/36/5 39/38/5 37/40/5 33/33/5
f 40/37/6 36/35/6 34/34/6 38/39/6
f 41/41/1 42/42/1 44/43/1 43/44/1
f 43/44/5 44/43/5 48/45/5 47/46/5
f 47/46/3 48/45/3 46/47/3 45/48/3
f 45/48/6 46/47/6 42/42/6 41/41/6
f 43/44/4 47/46/4 45/48/4 41/41/4
f 48/45/2 44/43/2 42/42/2 46/47/2
f 49/49/1 50/50/1 52/51/1 51/52/1
f 51/52/5 52/51/5 56/53/5 55/54/5
f 55/54/3 56/53/3 54/55/3 53/56/3
f 53/56/6 54/55/6 50/50/6 49/49/6
f 51/52/4 55/54/4 53/56/4 49/49/4
f 56/53/2 52/51/2 50/50/2 54/55/2
f 57/57/1 58/58/1 60/59/1 59/60/1
f 59/60/7 60/59/7 64/61/7 63/62/7
f 63/62/3 64/61/3 62/63/3 61/64/3
f 61/64/8 62/63/8 58/58/8 57/57/8
f 59/60/9 63/62/9 61/64/9 57/57/9
f 64/61/10 60/59/10 58/58/10 62/63/10
o Door_cBox_Cube.075
v -0.048872 0.000000 0.349066
v -0.048872 6.461411 0.349066
v -0.048872 0.000000 -0.349066
v -0.048872 6.461411 -0.349066
v 3.294429 0.000000 0.349066
v 3.294429 6.461411 0.349066
v 3.294429 0.000000 -0.349066
v 3.294429 6.461411 -0.349066
vt 0.375000 0.000000
vt 0.625000 0.000000
vt 0.625000 0.250000
vt 0.375000 0.250000
vt 0.625000 0.500000
vt 0.375000 0.500000
vt 0.625000 0.750000
vt 0.375000 0.750000
vt 0.625000 1.000000
vt 0.375000 1.000000
vt 0.125000 0.500000
vt 0.125000 0.750000
vt 0.875000 0.500000
vt 0.875000 0.750000
vn -1.0000 0.0000 0.0000
vn 0.0000 0.0000 -1.0000
vn 1.0000 0.0000 0.0000
vn 0.0000 0.0000 1.0000
vn 0.0000 -1.0000 0.0000
vn 0.0000 1.0000 0.0000
usemtl None
s off
f 65/65/11 66/66/11 68/67/11 67/68/11
f 67/68/12 68/67/12 72/69/12 71/70/12
f 71/70/13 72/69/13 70/71/13 69/72/13
f 69/72/14 70/71/14 66/73/14 65/74/14
f 67/75/15 71/70/15 69/72/15 65/76/15
f 72/69/16 68/77/16 66/78/16 70/71/16
