# Blender v2.90.1 OBJ File: 'terrain.blend'
# www.blender.org
mtllib cube.mtl
o Portail_Cube.001
v 0.958483 0.000000 0.417054
v 0.721197 2.715564 0.239850
v 0.958483 0.000000 -0.417054
v 0.721197 2.715564 -0.239850
v 1.558483 0.000000 0.417054
v 1.558483 2.715564 0.239850
v 1.558483 0.000000 -0.417054
v 1.558483 2.715564 -0.239850
v 0.721197 3.805743 0.428401
v 0.721197 3.805743 -0.428401
v 1.990935 3.805743 0.428401
v 1.990935 3.805743 -0.428401
v -0.958483 0.000000 0.417054
v -0.721197 2.715564 0.239850
v -0.958483 0.000000 -0.417054
v -0.721197 2.715564 -0.239850
v -1.558483 0.000000 0.417054
v -1.558483 2.715564 0.239850
v -1.558483 0.000000 -0.417054
v -1.558483 2.715564 -0.239850
v -0.721197 3.805743 0.428401
v -0.721197 3.805743 -0.428401
v -1.990935 3.805743 0.428401
v -1.990935 3.805743 -0.428401
v 0.000000 2.715564 0.239850
v 0.000000 2.715564 -0.239850
v 0.000000 3.805743 0.428401
v 0.000000 3.805743 -0.428401
vt 0.340663 0.836540
vt 0.363357 0.504974
vt 0.424791 0.504974
vt 0.447485 0.836540
vt 0.507282 0.366850
vt 0.851467 0.337922
vt 0.851467 0.439997
vt 0.507282 0.439997
vt 0.335962 0.506998
vt 0.313268 0.834112
vt 0.251834 0.834112
vt 0.229140 0.506998
vt 0.492718 0.439997
vt 0.148533 0.439997
vt 0.148533 0.337922
vt 0.492718 0.366850
vt 0.623544 0.606264
vt 0.700384 0.606264
vt 0.700384 0.707951
vt 0.623544 0.707951
vt 0.337415 0.973549
vt 0.227686 0.973549
vt 0.111374 0.507282
vt 0.111374 0.662078
vt 0.001646 0.662078
vt 0.001646 0.507282
vt 0.992718 0.337922
vt 0.851467 0.250000
vt 0.992718 0.250000
vt 0.007282 0.492718
vt 0.007282 0.337922
vt 0.992718 0.492718
vt 0.560036 0.502638
vt 0.621469 0.502638
vt 0.621469 0.590560
vt 0.560036 0.590560
vt 0.007282 0.250000
vt 0.148533 0.250000
vt 0.111374 0.750000
vt 0.001646 0.750000
vt 0.450690 0.504974
vt 0.557512 0.504974
vt 0.534818 0.836540
vt 0.473384 0.836540
vt 0.507282 0.133150
vt 0.507282 0.060003
vt 0.851467 0.060003
vt 0.851467 0.162078
vt 0.116119 0.506998
vt 0.222941 0.506998
vt 0.200247 0.834112
vt 0.138813 0.834112
vt 0.492718 0.060003
vt 0.492718 0.133150
vt 0.148533 0.162078
vt 0.148533 0.060003
vt 0.700384 0.501525
vt 0.700384 0.603213
vt 0.623544 0.603213
vt 0.623544 0.501525
vt 0.224395 0.973549
vt 0.114666 0.973549
vt 0.111374 0.992719
vt 0.001646 0.992719
vt 0.001646 0.837923
vt 0.111374 0.837922
vt 0.992718 0.162078
vt 0.007282 0.162078
vt 0.007282 0.007282
vt 0.992718 0.007282
vt 0.560036 0.678483
vt 0.621469 0.678483
vn -0.9962 -0.0870 0.0000
vn 0.0000 0.0651 -0.9979
vn 1.0000 -0.0000 0.0000
vn 0.0000 0.0651 0.9979
vn 0.0000 -1.0000 0.0000
vn 0.9295 -0.3687 0.0000
vn 0.0000 1.0000 0.0000
vn 0.0000 -0.1704 -0.9854
vn 0.0000 -0.1704 0.9854
vn 0.9962 -0.0870 0.0000
vn -1.0000 -0.0000 0.0000
vn -0.9295 -0.3687 0.0000
usemtl Portail
s off
f 1/1/1 2/2/1 4/3/1 3/4/1
f 3/5/2 4/6/2 8/7/2 7/8/2
f 7/9/3 8/10/3 6/11/3 5/12/3
f 5/13/4 6/14/4 2/15/4 1/16/4
f 3/17/5 7/18/5 5/19/5 1/20/5
f 6/11/6 8/10/6 12/21/6 11/22/6
f 12/23/7 10/24/7 9/25/7 11/26/7
f 10/27/8 4/6/8 26/28/8 28/29/8
f 2/15/9 6/14/9 11/30/9 9/31/9
f 8/7/8 4/6/8 10/27/8 12/32/8
f 4/33/5 2/34/5 25/35/5 26/36/5
f 2/15/9 9/31/9 27/37/9 25/38/9
f 9/25/7 10/24/7 28/39/7 27/40/7
f 13/41/10 15/42/10 16/43/10 14/44/10
f 15/45/2 19/46/2 20/47/2 16/48/2
f 19/49/11 17/50/11 18/51/11 20/52/11
f 17/53/4 13/54/4 14/55/4 18/56/4
f 15/57/5 13/58/5 17/59/5 19/60/5
f 18/51/12 23/61/12 24/62/12 20/52/12
f 24/63/7 23/64/7 21/65/7 22/66/7
f 22/67/8 28/29/8 26/28/8 16/48/8
f 14/55/9 21/68/9 23/69/9 18/56/9
f 20/47/8 24/70/8 22/67/8 16/48/8
f 16/71/5 26/36/5 25/35/5 14/72/5
f 14/55/9 25/38/9 27/37/9 21/68/9
f 21/65/7 27/40/7 28/39/7 22/66/7
