# Blender v2.91.0 OBJ File: 'trees.blend'
# www.blender.org
mtllib Sapin_01.mtl
o Cylinder_Cylinder.002
v 0.000000 0.000000 -1.000000
v -0.000000 0.950301 -0.428112
v 0.500000 0.000000 -0.866025
v 0.256124 0.950301 -0.359484
v 0.866026 0.000000 -0.500000
v 0.443620 0.961973 -0.192413
v 1.000000 0.000000 0.000000
v 0.512248 0.982816 0.027236
v 0.866026 0.000000 0.500000
v 0.443620 0.996362 0.259654
v 0.500000 0.000000 0.866026
v 0.256124 0.998379 0.443620
v 0.000000 0.000000 1.000000
v 0.000000 0.998379 0.512248
v -0.500000 0.000000 0.866026
v -0.256124 0.998379 0.443620
v -0.866025 0.000000 0.500000
v -0.443620 0.996362 0.259654
v -1.000000 0.000000 0.000000
v -0.512248 0.982816 0.027236
v -0.866026 0.000000 -0.499999
v -0.443620 0.961973 -0.192413
v -0.500001 0.000000 -0.866025
v -0.256124 0.950301 -0.359483
v 0.013039 2.204118 -0.272454
v 0.151550 2.202561 -0.233432
v 0.252948 2.200422 -0.129638
v 0.290062 2.198330 0.011060
v 0.252948 2.197276 0.150531
v 0.151550 2.197019 0.251929
v 0.013039 2.196668 0.289043
v -0.125472 2.196317 0.251929
v -0.226869 2.196061 0.150531
v -0.263983 2.196926 0.011060
v -0.226869 2.199207 -0.129638
v -0.125472 2.201859 -0.233432
v 0.032336 2.844712 -0.161265
v 0.113118 2.847192 -0.139356
v 0.172255 2.848858 -0.079854
v 0.193901 2.849280 0.001284
v 0.172255 2.848397 0.082265
v 0.113118 2.846391 0.141443
v 0.032336 2.843652 0.163110
v -0.048447 2.840914 0.141461
v -0.107584 2.838908 0.082297
v -0.129229 2.838294 0.001353
v -0.107584 2.839376 -0.079828
v -0.048447 2.841783 -0.139406
v 0.073758 3.131095 -1.703587
v 0.925439 3.144944 -1.475350
v 1.548913 2.951541 -0.851793
v 1.777120 2.846287 0.000000
v 1.548912 2.816676 0.828153
v 0.925439 2.952597 1.402661
v 0.073758 3.009629 1.624092
v -0.777922 2.926242 1.411182
v -1.400717 2.768617 0.833590
v -1.628679 2.790943 0.000001
v -1.400718 2.903890 -0.851792
v -0.777924 3.117246 -1.475349
v 0.194030 4.356772 -0.930348
v 0.655733 4.380484 -0.803800
v 0.993723 4.402085 -0.461676
v 1.117436 4.520076 0.000000
v 0.993723 4.675785 0.462892
v 0.655733 4.744956 0.801752
v 0.194030 4.618350 0.925784
v -0.284674 4.417816 0.801752
v -0.663936 4.317946 0.462892
v -0.786552 4.290155 0.000000
v -0.663687 4.292924 -0.464944
v -0.286162 4.304138 -0.809232
v 0.189901 4.765546 -1.898405
v 1.141580 4.729487 -1.638432
v 1.838258 4.466737 -0.948026
v 2.093260 4.463124 0.000000
v 1.838258 4.539710 0.953570
v 1.141580 4.775007 1.651631
v 0.189901 4.435763 1.907138
v -0.819726 4.305582 1.651631
v -1.679508 4.210136 0.953570
v -1.922406 4.130856 0.000001
v -1.679509 4.218277 -0.962256
v -0.819727 4.638506 -1.673565
v 0.051103 7.494715 -0.944145
v 0.579017 7.292523 -0.817653
v 0.961904 7.088905 -0.472072
v 1.087503 7.101828 0.000000
v 0.961904 7.121163 0.472072
v 0.581031 7.259507 0.817653
v 0.051828 7.462663 0.944144
v -0.457864 7.554972 0.817653
v -0.803168 7.411192 0.472073
v -0.928672 7.205900 0.000000
v -0.803169 7.089319 -0.472072
v -0.456723 7.292619 -0.817653
v 0.082653 7.467628 -1.560722
v 0.943171 7.106534 -1.351624
v 1.509676 7.142224 -0.780361
v 1.717032 7.169155 0.000000
v 1.509676 7.142224 0.780361
v 0.943171 7.094841 1.351624
v 0.087313 7.300086 1.560721
v -0.746448 7.506500 1.351624
v -1.312954 7.199999 0.780361
v -1.520310 6.975502 0.000001
v -1.312955 6.969347 -0.780360
v -0.746449 7.080806 -1.351624
v -0.052061 9.946053 -0.633174
v 0.262959 9.997959 -0.548344
v 0.494758 10.090868 -0.316587
v 0.579709 10.152728 -0.000000
v 0.494758 10.206513 0.316587
v 0.262959 10.279039 0.548344
v -0.055324 10.323230 0.633173
v -0.385588 10.234837 0.548344
v -0.606841 10.045529 0.316587
v -0.675101 9.923123 0.000000
v -0.590218 9.929347 -0.316586
v -0.363155 9.953624 -0.548344
v -0.100335 9.898602 -1.382979
v 0.590098 9.949039 -1.197694
v 1.095740 10.022967 -0.691489
v 1.280814 10.180423 0.000000
v 1.095740 10.022967 0.691489
v 0.590098 10.025505 1.197694
v -0.100649 10.288850 1.382978
v -0.781673 9.930550 1.197694
v -1.226973 9.659698 0.691490
v -1.397191 9.585686 0.000001
v -1.226974 9.659698 -0.691489
v -0.768532 9.855517 -1.197694
v -0.003601 12.429709 -0.317387
v 0.144544 12.460167 -0.266746
v 0.252397 12.470852 -0.148215
v 0.291740 12.465986 0.005679
v 0.252397 12.448578 0.154755
v 0.144544 12.422326 0.262374
v -0.003601 12.391963 0.300846
v -0.152528 12.341882 0.255297
v -0.261979 12.312062 0.135722
v -0.302144 12.310462 -0.025612
v -0.261980 12.339654 -0.181989
v -0.152528 12.385793 -0.287644
v 0.012618 12.527649 -0.794222
v 0.393381 12.568770 -0.667344
v 0.668719 12.559398 -0.367193
v 0.768320 12.543047 0.017518
v 0.668719 12.506730 0.391291
v 0.393382 12.439174 0.669752
v 0.012618 12.361603 0.773456
v -0.372038 12.313935 0.669103
v -0.655607 12.273081 0.378410
v -0.759633 12.261969 -0.028954
v -0.655608 12.339355 -0.434988
v -0.372038 12.453708 -0.711654
v 0.058586 14.329252 -0.167799
v 0.141458 14.344423 -0.145318
v 0.202131 14.355507 -0.083899
v 0.224347 14.359562 0.000000
v 0.202131 14.355507 0.083899
v 0.141458 14.344423 0.145318
v 0.058586 14.329252 0.167798
v -0.024287 14.314047 0.145318
v -0.084945 14.302891 0.083899
v -0.107147 14.298803 0.000000
v -0.084945 14.302891 -0.083899
v -0.024287 14.314047 -0.145318
v 0.034611 15.561562 -0.043414
v 0.056245 15.564501 -0.037597
v 0.072097 15.566648 -0.021707
v 0.077894 15.567436 0.000000
v 0.072097 15.566648 0.021707
v 0.056245 15.564501 0.037598
v 0.034611 15.561562 0.043414
v 0.012992 15.558620 0.037598
v -0.002844 15.556471 0.021707
v -0.008641 15.555681 0.000000
v -0.002844 15.556471 -0.021707
v 0.012992 15.558620 -0.037597
vt 0.878557 0.457154
vt 0.855833 0.539197
vt 0.834428 0.535126
vt 0.846122 0.451143
vt 0.813696 0.534368
vt 0.813664 0.450486
vt 0.794891 0.536793
vt 0.781711 0.454261
vt 0.775691 0.541447
vt 0.750322 0.462001
vt 0.755637 0.547933
vt 0.719872 0.473903
vt 0.736711 0.556731
vt 0.691167 0.490161
vt 0.719688 0.567700
vt 0.665069 0.510977
vt 0.705658 0.580154
vt 0.642147 0.538155
vt 0.984994 0.533362
vt 0.922037 0.576539
vt 0.909150 0.564129
vt 0.963173 0.507135
vt 0.894767 0.553736
vt 0.937739 0.485612
vt 0.876644 0.545183
vt 0.845854 0.636117
vt 0.835779 0.633982
vt 0.909359 0.468805
vt 0.764844 0.643393
vt 0.774075 0.639105
vt 0.791752 0.682264
vt 0.786283 0.684435
vt 0.825525 0.632434
vt 0.814992 0.631717
vt 0.804382 0.632010
vt 0.855743 0.639196
vt 0.865188 0.643309
vt 0.874007 0.648442
vt 0.756251 0.648574
vt 0.783825 0.635772
vt 0.793940 0.633367
vt 0.359103 0.042520
vt 0.364250 0.036765
vt 0.467471 0.090210
vt 0.435271 0.120154
vt 0.809099 0.678888
vt 0.803222 0.679559
vt 0.838391 0.681947
vt 0.832690 0.680287
vt 0.826859 0.679235
vt 0.820957 0.678698
vt 0.781114 0.687218
vt 0.797425 0.680663
vt 0.815026 0.678610
vt 0.848940 0.687241
vt 0.843845 0.684268
vt 0.297473 0.148269
vt 0.321089 0.153869
vt 0.305631 0.250235
vt 0.269908 0.241480
vt 0.304461 0.031387
vt 0.308478 0.037957
vt 0.218513 0.102868
vt 0.190843 0.066141
vt 0.319932 0.045772
vt 0.326587 0.047342
vt 0.273867 0.139271
vt 0.352889 0.046263
vt 0.406807 0.141376
vt 0.339450 0.048704
vt 0.346334 0.048263
vt 0.377124 0.152606
vt 0.348374 0.158059
vt 0.304178 0.023694
vt 0.158020 0.001000
vt 0.313857 0.042678
vt 0.246843 0.125922
vt 0.332854 0.049694
vt 0.366745 0.028646
vt 0.518411 0.033772
vt 0.297752 0.304152
vt 0.261293 0.300152
vt 0.523005 0.218015
vt 0.476231 0.230385
vt 0.167230 0.210539
vt 0.129748 0.180784
vt 0.233173 0.238348
vt 0.428734 0.239688
vt 0.384605 0.246506
vt 0.344331 0.247089
vt 0.091750 0.149421
vt 0.199464 0.231392
vt 0.569308 0.204939
vt 0.133778 0.267978
vt 0.179596 0.288613
vt 0.146849 0.469943
vt 0.103600 0.478964
vt 0.541452 0.316574
vt 0.489693 0.316429
vt 0.080078 0.247559
vt 0.222755 0.294077
vt 0.434418 0.321779
vt 0.380668 0.322184
vt 0.334017 0.315308
vt 0.001000 0.211740
vt 0.618460 0.311183
vt 0.153503 0.511029
vt 0.112143 0.516492
vt 0.270384 0.481892
vt 0.231694 0.470937
vt 0.477789 0.546434
vt 0.437091 0.523582
vt 0.063613 0.482846
vt 0.191031 0.469019
vt 0.390568 0.518195
vt 0.348710 0.515027
vt 0.311534 0.496936
vt 0.025950 0.472226
vt 0.514203 0.568960
vt 0.457393 0.585304
vt 0.499308 0.609855
vt 0.368997 0.781647
vt 0.348784 0.764726
vt 0.262338 0.523263
vt 0.224533 0.517620
vt 0.420164 0.569244
vt 0.060733 0.524650
vt 0.186995 0.512611
vt 0.384055 0.557379
vt 0.336290 0.549651
vt 0.294696 0.529778
vt 0.001000 0.513352
vt 0.218055 0.727205
vt 0.245858 0.730105
vt 0.235076 0.774669
vt 0.211976 0.769320
vt 0.142583 0.720163
vt 0.118315 0.720278
vt 0.192493 0.727222
vt 0.322793 0.754210
vt 0.094567 0.716563
vt 0.167787 0.722204
vt 0.297424 0.744650
vt 0.273027 0.734898
vt 0.068863 0.710373
vt 0.256600 0.781987
vt 0.277047 0.791085
vt 0.202485 0.900205
vt 0.194361 0.896432
vt 0.346614 0.833417
vt 0.320864 0.814543
vt 0.143169 0.763791
vt 0.114784 0.767592
vt 0.187712 0.767334
vt 0.298685 0.800770
vt 0.080166 0.763471
vt 0.164915 0.763878
vt 0.038493 0.759487
vt 0.150856 0.887979
vt 0.159627 0.888660
vt 0.154782 0.909788
vt 0.146764 0.908182
vt 0.185469 0.894815
vt 0.176533 0.893247
vt 0.225685 0.913709
vt 0.218277 0.909647
vt 0.142446 0.887221
vt 0.168260 0.889538
vt 0.210541 0.904307
vt 0.133595 0.886872
vt 0.124370 0.887429
vt 0.151894 0.960886
vt 0.149284 0.960356
vt 0.194736 0.920909
vt 0.186600 0.918276
vt 0.178513 0.915734
vt 0.170650 0.913296
vt 0.223171 0.934185
vt 0.211404 0.927690
vt 0.138427 0.906824
vt 0.162728 0.911481
vt 0.202928 0.923741
vt 0.129129 0.905799
vt 0.116916 0.904433
vt 0.141404 0.959838
vt 0.144030 0.959698
vt 0.143504 0.996841
vt 0.142849 0.996796
vt 0.164999 0.963962
vt 0.162446 0.963101
vt 0.159822 0.962464
vt 0.157172 0.961909
vt 0.171394 0.968557
vt 0.169546 0.966696
vt 0.146669 0.959916
vt 0.154522 0.961418
vt 0.167387 0.965145
vt 0.624827 0.214372
vt 0.625502 0.215550
vt 0.625502 0.216907
vt 0.624827 0.218081
vt 0.623657 0.218757
vt 0.622306 0.218753
vt 0.621136 0.218071
vt 0.620460 0.216894
vt 0.620460 0.215536
vt 0.621135 0.214361
vt 0.622305 0.213685
vt 0.623656 0.213689
vt 0.145462 0.997230
vt 0.144812 0.997078
vt 0.148701 0.998056
vt 0.148064 0.997854
vt 0.147416 0.997686
vt 0.146762 0.997534
vt 0.150436 0.999000
vt 0.149894 0.998623
vt 0.144159 0.996941
vt 0.146111 0.997385
vt 0.149314 0.998309
vn 0.2238 0.5026 -0.8351
vn 0.6029 0.4810 -0.6365
vn 0.8583 0.4455 -0.2545
vn 0.8736 0.4269 0.2338
vn 0.6384 0.4262 0.6409
vn 0.2341 0.4268 0.8735
vn -0.2341 0.4268 0.8735
vn -0.6384 0.4262 0.6409
vn -0.8736 0.4269 0.2338
vn -0.8583 0.4455 -0.2545
vn -0.2618 0.1227 -0.9573
vn -0.6029 0.4810 -0.6365
vn -0.2238 0.5026 -0.8351
vn -0.2565 0.1925 0.9472
vn 0.2618 0.1172 -0.9580
vn 0.9442 0.1643 -0.2856
vn -0.6739 0.1490 -0.7237
vn 0.6753 0.1350 -0.7250
vn -0.9406 0.1839 -0.2855
vn -0.9450 0.1957 0.2620
vn -0.6910 0.1877 0.6981
vn -0.2548 0.1798 0.9501
vn 0.2547 0.1744 0.9512
vn 0.6927 0.1730 0.7002
vn 0.9484 0.1757 0.2638
vn 0.0256 -0.9931 -0.1145
vn 0.9557 0.1452 0.2560
vn -0.7038 0.1850 -0.6859
vn 0.2638 0.1560 -0.9519
vn -0.6940 0.2018 0.6911
vn 0.6970 0.1599 0.6990
vn -0.2673 0.1721 -0.9481
vn 0.7061 0.1422 -0.6937
vn -0.9462 0.2025 0.2525
vn 0.2525 0.1772 0.9512
vn 0.9577 0.1381 -0.2526
vn -0.9487 0.1958 -0.2483
vn 0.8934 0.3778 -0.2430
vn 0.0646 -0.9921 0.1076
vn -0.0031 -0.9994 -0.0344
vn 0.0766 -0.9702 -0.2300
vn 0.0654 -0.9815 -0.1798
vn 0.1157 -0.9856 0.1232
vn -0.0795 -0.9892 0.1234
vn -0.0317 -0.9824 -0.1842
vn -0.0433 -0.9723 -0.2297
vn 0.0333 -0.9989 -0.0328
vn -0.0295 -0.9936 0.1086
vn 0.0040 -0.9936 -0.1127
vn 0.0241 -0.9969 0.0744
vn -0.8519 0.4904 -0.1839
vn -0.3061 0.4208 0.8540
vn 0.9161 0.3374 0.2167
vn -0.6475 0.5319 -0.5458
vn 0.2117 0.5043 -0.8372
vn -0.6610 0.4588 0.5938
vn 0.6866 0.3269 0.6494
vn -0.2385 0.5415 -0.8062
vn 0.6740 0.4412 -0.5925
vn -0.8528 0.4695 0.2286
vn 0.2200 0.3565 0.9080
vn 0.2078 0.3269 0.9219
vn 0.1156 -0.9927 -0.0331
vn 0.2370 -0.9677 -0.0860
vn -0.1377 -0.9826 0.1243
vn 0.0901 -0.9544 -0.2845
vn 0.0917 -0.9265 -0.3650
vn 0.1482 -0.9889 0.0091
vn -0.1831 -0.9775 0.1044
vn 0.0229 -0.9241 -0.3815
vn 0.0382 -0.9639 -0.2634
vn 0.1323 -0.9904 0.0407
vn 0.2727 -0.9502 -0.1509
vn -0.3142 -0.9362 -0.1577
vn 0.9056 0.3462 -0.2450
vn -0.9196 0.3092 -0.2425
vn -0.2409 0.2751 0.9308
vn 0.9111 0.3488 0.2198
vn -0.7123 0.3128 -0.6283
vn 0.2885 0.3386 -0.8956
vn -0.6604 0.2697 0.7008
vn 0.7106 0.3587 0.6053
vn -0.2786 0.3165 -0.9068
vn 0.7229 0.3496 -0.5959
vn -0.9381 0.2936 0.1838
vn -0.9512 0.2671 0.1545
vn 0.1030 -0.9947 0.0043
vn 0.2577 -0.9526 0.1618
vn -0.1613 -0.9638 -0.2123
vn 0.0715 -0.9974 0.0130
vn 0.3543 -0.9346 0.0319
vn -0.3837 -0.9226 0.0389
vn 0.3795 -0.9221 0.0754
vn -0.1265 -0.9914 -0.0324
vn 0.4208 -0.9024 0.0929
vn -0.1588 -0.9872 -0.0164
vn 0.4117 -0.8900 0.1960
vn 0.0579 -0.9846 0.1648
vn 0.2902 0.2925 0.9111
vn 0.8989 0.3470 -0.2676
vn -0.9313 0.2667 -0.2481
vn -0.2067 0.2891 0.9347
vn 0.9101 0.3418 0.2342
vn -0.7066 0.2756 -0.6517
vn 0.3104 0.3340 -0.8900
vn -0.7659 0.2784 0.5795
vn 0.6773 0.3182 0.6633
vn -0.3314 0.3043 -0.8931
vn 0.6406 0.3358 -0.6906
vn -0.2730 0.3829 -0.8825
vn 0.4855 -0.8725 0.0551
vn -0.3205 -0.9385 -0.1286
vn 0.0288 -0.9783 0.2051
vn 0.4011 -0.9156 0.0286
vn 0.4216 -0.9027 -0.0855
vn -0.0827 -0.9888 -0.1238
vn 0.3199 -0.9473 0.0146
vn 0.0785 -0.9934 0.0841
vn 0.5648 -0.8252 0.0044
vn -0.2635 -0.9501 -0.1667
vn 0.0593 -0.9947 0.0842
vn 0.1744 -0.9825 -0.0657
vn 0.6384 0.3671 -0.6766
vn -0.9094 0.3691 0.1916
vn 0.3392 0.4066 0.8483
vn 0.8772 0.3744 -0.3005
vn -0.9132 0.3644 -0.1822
vn -0.4309 0.4261 0.7955
vn 0.8734 0.3748 0.3111
vn -0.7486 0.3760 -0.5461
vn 0.2179 0.3723 -0.9022
vn -0.7739 0.3910 0.4982
vn 0.6483 0.3755 0.6624
vn 0.6492 0.2809 0.7068
vn 0.1673 -0.9622 -0.2149
vn 0.1579 -0.9773 -0.1415
vn 0.1013 -0.9949 -0.0034
vn 0.1814 -0.9809 -0.0697
vn 0.1636 -0.9832 -0.0809
vn 0.1043 -0.9817 -0.1593
vn 0.1861 -0.9823 -0.0219
vn 0.1650 -0.9846 -0.0573
vn 0.1585 -0.9579 -0.2392
vn 0.1882 -0.9672 -0.1708
vn 0.1434 -0.9891 0.0331
vn -0.7155 0.0814 0.6939
vn -0.2658 0.3243 -0.9078
vn 0.7008 0.2881 -0.6526
vn -0.9279 0.2941 0.2293
vn 0.1984 0.2843 0.9380
vn 0.9315 0.2778 -0.2349
vn -0.9337 0.3035 -0.1901
vn -0.2866 0.2885 0.9136
vn 0.9219 0.2781 0.2699
vn -0.7206 0.3206 -0.6147
vn 0.2575 0.3088 -0.9156
vn -0.7051 0.2919 0.6462
vn -0.1346 0.9909 0.0000
vn 0.6967 0.1112 0.7087
vn -0.2750 0.0912 -0.9571
vn 0.6967 0.1112 -0.7087
vn -0.9647 0.0757 0.2523
vn 0.2435 0.1021 0.9645
vn 0.9587 0.1162 -0.2596
vn -0.9647 0.0757 -0.2523
vn -0.2750 0.0912 0.9571
vn 0.9587 0.1162 0.2596
vn -0.7155 0.0814 -0.6939
vn 0.2435 0.1021 -0.9645
usemtl Sapin_01
s off
f 1/1/1 2/2/1 4/3/1 3/4/1
f 3/4/2 4/3/2 6/5/2 5/6/2
f 5/6/3 6/5/3 8/7/3 7/8/3
f 7/8/4 8/7/4 10/9/4 9/10/4
f 9/10/5 10/9/5 12/11/5 11/12/5
f 11/12/6 12/11/6 14/13/6 13/14/6
f 13/14/7 14/13/7 16/15/7 15/16/7
f 15/16/8 16/15/8 18/17/8 17/18/8
f 17/19/9 18/20/9 20/21/9 19/22/9
f 19/22/10 20/21/10 22/23/10 21/24/10
f 2/2/11 24/25/11 36/26/11 25/27/11
f 21/24/12 22/23/12 24/25/12 23/28/12
f 23/28/13 24/25/13 2/2/13 1/1/13
f 32/29/14 31/30/14 43/31/14 44/32/14
f 4/3/15 2/2/15 25/27/15 26/33/15
f 8/7/16 6/5/16 27/34/16 28/35/16
f 24/25/17 22/23/17 35/36/17 36/26/17
f 6/5/18 4/3/18 26/33/18 27/34/18
f 22/23/19 20/21/19 34/37/19 35/36/19
f 20/21/20 18/20/20 33/38/20 34/37/20
f 18/17/21 16/15/21 32/29/21 33/39/21
f 16/15/22 14/13/22 31/30/22 32/29/22
f 14/13/23 12/11/23 30/40/23 31/30/23
f 12/11/24 10/9/24 29/41/24 30/40/24
f 10/9/25 8/7/25 28/35/25 29/41/25
f 47/42/26 46/43/26 58/44/26 59/45/26
f 29/41/27 28/35/27 40/46/27 41/47/27
f 36/26/28 35/36/28 47/48/28 48/49/28
f 26/33/29 25/27/29 37/50/29 38/51/29
f 33/39/30 32/29/30 44/32/30 45/52/30
f 30/40/31 29/41/31 41/47/31 42/53/31
f 25/27/32 36/26/32 48/49/32 37/50/32
f 27/34/33 26/33/33 38/51/33 39/54/33
f 34/37/34 33/38/34 45/55/34 46/56/34
f 31/30/35 30/40/35 42/53/35 43/31/35
f 28/35/36 27/34/36 39/54/36 40/46/36
f 35/36/37 34/37/37 46/56/37 47/48/37
f 52/57/38 51/58/38 63/59/38 64/60/38
f 44/61/39 43/62/39 55/63/39 56/64/39
f 41/65/40 40/66/40 52/57/40 53/67/40
f 48/68/41 47/42/41 59/45/41 60/69/41
f 38/70/42 37/71/42 49/72/42 50/73/42
f 45/74/43 44/61/43 56/64/43 57/75/43
f 42/76/44 41/65/44 53/67/44 54/77/44
f 37/71/45 48/68/45 60/69/45 49/72/45
f 39/78/46 38/70/46 50/73/46 51/58/46
f 46/43/47 45/79/47 57/80/47 58/44/47
f 43/62/48 42/76/48 54/77/48 55/63/48
f 40/66/49 39/78/49 51/58/49 52/57/49
f 64/60/50 63/59/50 75/81/50 76/82/50
f 59/45/51 58/44/51 70/83/51 71/84/51
f 56/64/52 55/63/52 67/85/52 68/86/52
f 53/67/53 52/57/53 64/60/53 65/87/53
f 60/69/54 59/45/54 71/84/54 72/88/54
f 50/73/55 49/72/55 61/89/55 62/90/55
f 57/75/56 56/64/56 68/86/56 69/91/56
f 54/77/57 53/67/57 65/87/57 66/92/57
f 49/72/58 60/69/58 72/88/58 61/89/58
f 51/58/59 50/73/59 62/90/59 63/59/59
f 58/44/60 57/80/60 69/93/60 70/83/60
f 55/63/61 54/77/61 66/92/61 67/85/61
f 79/94/62 78/95/62 90/96/62 91/97/62
f 71/84/63 70/83/63 82/98/63 83/99/63
f 68/86/64 67/85/64 79/94/64 80/100/64
f 65/87/65 64/60/65 76/82/65 77/101/65
f 72/88/66 71/84/66 83/99/66 84/102/66
f 62/90/67 61/89/67 73/103/67 74/104/67
f 69/91/68 68/86/68 80/100/68 81/105/68
f 66/92/69 65/87/69 77/101/69 78/95/69
f 61/89/70 72/88/70 84/102/70 73/103/70
f 63/59/71 62/90/71 74/104/71 75/81/71
f 70/83/72 69/93/72 81/106/72 82/98/72
f 67/85/73 66/92/73 78/95/73 79/94/73
f 91/97/74 90/96/74 102/107/74 103/108/74
f 76/82/75 75/81/75 87/109/75 88/110/75
f 83/99/76 82/98/76 94/111/76 95/112/76
f 80/100/77 79/94/77 91/97/77 92/113/77
f 77/101/78 76/82/78 88/110/78 89/114/78
f 84/102/79 83/99/79 95/112/79 96/115/79
f 74/104/80 73/103/80 85/116/80 86/117/80
f 81/105/81 80/100/81 92/113/81 93/118/81
f 78/95/82 77/101/82 89/114/82 90/96/82
f 73/103/83 84/102/83 96/115/83 85/116/83
f 75/81/84 74/104/84 86/117/84 87/109/84
f 82/98/85 81/106/85 93/119/85 94/111/85
f 106/120/86 105/121/86 117/122/86 118/123/86
f 88/110/87 87/109/87 99/124/87 100/125/87
f 95/112/88 94/111/88 106/120/88 107/126/88
f 92/113/89 91/97/89 103/108/89 104/127/89
f 89/114/90 88/110/90 100/125/90 101/128/90
f 96/115/91 95/112/91 107/126/91 108/129/91
f 86/117/92 85/116/92 97/130/92 98/131/92
f 93/118/93 92/113/93 104/127/93 105/132/93
f 90/96/94 89/114/94 101/128/94 102/107/94
f 85/116/95 96/115/95 108/129/95 97/130/95
f 87/109/96 86/117/96 98/131/96 99/124/96
f 94/111/97 93/119/97 105/121/97 106/120/97
f 111/133/98 110/134/98 122/135/98 123/136/98
f 103/108/99 102/107/99 114/137/99 115/138/99
f 100/125/100 99/124/100 111/133/100 112/139/100
f 107/126/101 106/120/101 118/123/101 119/140/101
f 104/127/102 103/108/102 115/138/102 116/141/102
f 101/128/103 100/125/103 112/139/103 113/142/103
f 108/129/104 107/126/104 119/140/104 120/143/104
f 98/131/105 97/130/105 109/144/105 110/134/105
f 105/132/106 104/127/106 116/141/106 117/145/106
f 102/107/107 101/128/107 113/142/107 114/137/107
f 97/130/108 108/129/108 120/143/108 109/144/108
f 99/124/109 98/131/109 110/134/109 111/133/109
f 121/146/110 132/147/110 144/148/110 133/149/110
f 118/123/111 117/122/111 129/150/111 130/151/111
f 115/138/112 114/137/112 126/152/112 127/153/112
f 112/139/113 111/133/113 123/136/113 124/154/113
f 119/140/114 118/123/114 130/151/114 131/155/114
f 116/141/115 115/138/115 127/153/115 128/156/115
f 113/142/116 112/139/116 124/154/116 125/157/116
f 120/143/117 119/140/117 131/155/117 132/147/117
f 110/134/118 109/144/118 121/146/118 122/135/118
f 117/145/119 116/141/119 128/156/119 129/158/119
f 114/137/120 113/142/120 125/157/120 126/152/120
f 109/144/121 120/143/121 132/147/121 121/146/121
f 138/159/122 137/160/122 149/161/122 150/162/122
f 123/136/123 122/135/123 134/163/123 135/164/123
f 130/151/124 129/150/124 141/165/124 142/166/124
f 127/153/125 126/152/125 138/159/125 139/167/125
f 124/154/126 123/136/126 135/164/126 136/168/126
f 131/155/127 130/151/127 142/166/127 143/169/127
f 128/156/128 127/153/128 139/167/128 140/170/128
f 125/157/129 124/154/129 136/168/129 137/160/129
f 132/147/130 131/155/130 143/169/130 144/148/130
f 122/135/131 121/146/131 133/149/131 134/163/131
f 129/158/132 128/156/132 140/170/132 141/171/132
f 126/152/133 125/157/133 137/160/133 138/159/133
f 150/162/134 149/161/134 161/172/134 162/173/134
f 133/149/135 144/148/135 156/174/135 145/175/135
f 135/164/136 134/163/136 146/176/136 147/177/136
f 142/166/137 141/165/137 153/178/137 154/179/137
f 139/167/138 138/159/138 150/162/138 151/180/138
f 136/168/139 135/164/139 147/177/139 148/181/139
f 143/169/140 142/166/140 154/179/140 155/182/140
f 140/170/141 139/167/141 151/180/141 152/183/141
f 137/160/142 136/168/142 148/181/142 149/161/142
f 144/148/143 143/169/143 155/182/143 156/174/143
f 134/163/144 133/149/144 145/175/144 146/176/144
f 141/171/145 140/170/145 152/183/145 153/184/145
f 165/185/146 164/186/146 176/187/146 177/188/146
f 145/175/147 156/174/147 168/189/147 157/190/147
f 147/177/148 146/176/148 158/191/148 159/192/148
f 154/179/149 153/178/149 165/193/149 166/194/149
f 151/180/150 150/162/150 162/173/150 163/195/150
f 148/181/151 147/177/151 159/192/151 160/196/151
f 155/182/152 154/179/152 166/194/152 167/197/152
f 152/183/153 151/180/153 163/195/153 164/186/153
f 149/161/154 148/181/154 160/196/154 161/172/154
f 156/174/155 155/182/155 167/197/155 168/189/155
f 146/176/156 145/175/156 157/190/156 158/191/156
f 153/184/157 152/183/157 164/186/157 165/185/157
f 170/198/158 169/199/158 180/200/158 179/201/158 178/202/158 177/203/158 176/204/158 175/205/158 174/206/158 173/207/158 172/208/158 171/209/158
f 162/173/159 161/172/159 173/210/159 174/211/159
f 157/190/160 168/189/160 180/212/160 169/213/160
f 159/192/161 158/191/161 170/214/161 171/215/161
f 166/194/162 165/193/162 177/216/162 178/217/162
f 163/195/163 162/173/163 174/211/163 175/218/163
f 160/196/164 159/192/164 171/215/164 172/219/164
f 167/197/165 166/194/165 178/217/165 179/220/165
f 164/186/166 163/195/166 175/218/166 176/187/166
f 161/172/167 160/196/167 172/219/167 173/210/167
f 168/189/168 167/197/168 179/220/168 180/212/168
f 158/191/169 157/190/169 169/213/169 170/214/169
