# Blender v2.91.0 OBJ File: 'master.blend'
# www.blender.org
mtllib map.mtl
o Carte_Plane.002
v 0.748955 0.108116 -0.383795
v 0.783100 0.115556 -0.318707
v -0.741852 0.109629 0.397336
v -0.704902 0.117680 0.467769
v 0.792069 0.076485 -0.301611
v -0.695198 0.075400 0.486269
v 0.762981 0.014958 -0.357058
v -0.726674 0.008821 0.426268
v 0.709662 0.058317 -0.458696
v -0.784372 0.055740 0.316283
v 0.738105 0.181526 -0.404478
v -0.753593 0.189068 0.374954
v 0.802835 0.174320 -0.281087
v -0.683547 0.181270 0.508478
v 0.820339 0.077609 -0.247722
v -0.664606 0.076617 0.544583
v 0.787857 -0.036952 -0.309640
v -0.699755 -0.047353 0.477580
v 0.702450 -0.033425 -0.472444
v -0.792176 -0.043536 0.301406
v 0.675284 0.114213 -0.524229
v -0.821574 0.116227 0.245368
v 0.720535 0.225658 -0.437969
v -0.772606 0.236825 0.338712
v -0.243266 0.102693 0.140105
v 0.253541 0.102693 -0.120518
v 0.277631 0.107941 -0.074598
v -0.219176 0.107941 0.186026
v 0.283958 0.080376 -0.062537
v -0.212848 0.080377 0.198087
v 0.263436 0.036968 -0.101656
v -0.233370 0.036969 0.158968
v 0.225819 0.067558 -0.173362
v -0.270987 0.067558 0.087261
v 0.245886 0.154484 -0.135111
v -0.250921 0.154485 0.125513
v 0.291554 0.149400 -0.048057
v -0.205252 0.149400 0.212567
v 0.303903 0.081170 -0.024517
v -0.192904 0.081170 0.236106
v 0.280986 0.000345 -0.068201
v -0.215820 0.000345 0.192422
v 0.220731 0.002833 -0.183062
v -0.276076 0.002833 0.077562
v 0.201564 0.106994 -0.219597
v -0.295242 0.106994 0.041027
v 0.233490 0.185620 -0.158739
v -0.263316 0.185620 0.101884
v 0.748115 0.124342 -0.385209
v 0.786594 0.129776 -0.311528
v -0.742516 0.125856 0.395829
v -0.700911 0.131885 0.474712
v 0.799202 0.073767 -0.287202
v -0.687306 0.072684 0.500274
v 0.764239 -0.000992 -0.353911
v -0.724713 -0.007125 0.429047
v 0.702214 0.052373 -0.471925
v -0.790910 0.049803 0.302582
v 0.733915 0.195616 -0.411531
v -0.756902 0.203157 0.367452
v 0.806773 0.187481 -0.272313
v -0.678416 0.194408 0.516636
v 0.827300 0.076175 -0.233055
v -0.656343 0.075185 0.558550
v 0.790914 -0.051225 -0.302392
v -0.695370 -0.061612 0.484125
v 0.697469 -0.046776 -0.480348
v -0.795666 -0.056864 0.292722
v 0.667152 0.116967 -0.538077
v -0.828147 0.118975 0.230726
v 0.714268 0.236376 -0.448528
v -0.777567 0.247532 0.327480
v -0.243979 0.118919 0.138625
v 0.252739 0.118919 -0.121953
v 0.281173 0.122234 -0.067586
v -0.215397 0.122241 0.192899
v 0.291260 0.077655 -0.048210
v -0.205164 0.077655 0.212211
v 0.264842 0.021010 -0.098600
v -0.231612 0.021011 0.161837
v 0.218568 0.061590 -0.186695
v -0.277779 0.061589 0.073690
v 0.241862 0.168553 -0.142311
v -0.254506 0.168549 0.118078
v 0.295711 0.162641 -0.039494
v -0.200502 0.162646 0.220805
v 0.311157 0.079732 -0.009984
v -0.184990 0.079733 0.250289
v 0.284333 -0.013950 -0.061105
v -0.211802 -0.013947 0.199163
v 0.216093 -0.010575 -0.191099
v -0.279955 -0.010574 0.069136
v 0.193758 0.109766 -0.233642
v -0.302261 0.109766 0.026576
v 0.227499 0.196350 -0.169459
v -0.268649 0.196347 0.090823
vt 0.000000 0.666667
vt 1.000000 0.666667
vt 1.000000 1.000000
vt 0.000000 1.000000
vt 1.000000 0.333333
vt 1.000000 0.000000
vt 1.000000 0.000000
vt 1.000000 0.333333
vt 1.000000 0.000000
vt 1.000000 0.333333
vt 1.000000 0.000000
vt 1.000000 0.333333
vt 1.000000 0.000000
vt 1.000000 0.333333
vt 1.000000 0.000000
vt 1.000000 0.333333
vt 1.000000 0.000000
vt 1.000000 0.333333
vt 1.000000 0.000000
vt 1.000000 0.333333
vt 1.000000 0.000000
vt 1.000000 0.333333
vt 1.000000 0.000000
vt 1.000000 0.333333
vt 1.000000 0.000000
vt 1.000000 0.333333
vt 1.000000 1.000000
vt 1.000000 0.666667
vt 1.000000 0.666667
vt 1.000000 1.000000
vt 1.000000 1.000000
vt 1.000000 0.666667
vt 1.000000 1.000000
vt 1.000000 0.666667
vt 1.000000 1.000000
vt 1.000000 0.666667
vt 1.000000 1.000000
vt 1.000000 0.666667
vt 1.000000 1.000000
vt 1.000000 0.666667
vt 1.000000 1.000000
vt 1.000000 0.666667
vt 1.000000 1.000000
vt 1.000000 0.666667
vt 1.000000 1.000000
vt 1.000000 0.666667
vt 0.000000 0.000000
vt 0.000000 0.333333
vt 0.000000 0.666667
vt 0.000000 1.000000
vt 1.000000 1.000000
vt 1.000000 0.666667
vt 1.000000 0.333333
vt 1.000000 0.333333
vt 1.000000 0.000000
vt 1.000000 0.000000
vt 1.000000 0.333333
vt 1.000000 0.000000
vt 1.000000 0.333333
vt 1.000000 0.000000
vt 1.000000 0.333333
vt 1.000000 0.000000
vt 1.000000 0.333333
vt 1.000000 0.000000
vt 1.000000 0.333333
vt 1.000000 0.000000
vt 1.000000 0.333333
vt 1.000000 0.000000
vt 1.000000 0.333333
vt 1.000000 0.000000
vt 1.000000 0.333333
vt 1.000000 0.000000
vt 1.000000 0.333333
vt 1.000000 0.000000
vt 1.000000 1.000000
vt 1.000000 1.000000
vt 1.000000 0.666667
vt 1.000000 0.666667
vt 1.000000 1.000000
vt 1.000000 0.666667
vt 1.000000 1.000000
vt 1.000000 0.666667
vt 1.000000 1.000000
vt 1.000000 0.666667
vt 1.000000 1.000000
vt 1.000000 0.666667
vt 1.000000 1.000000
vt 1.000000 0.666667
vt 1.000000 1.000000
vt 1.000000 0.666667
vt 1.000000 1.000000
vt 1.000000 0.666667
vt 1.000000 1.000000
vt 1.000000 0.666667
vt 0.000000 0.000000
vt 0.000000 0.333333
vn 0.0353 -0.9948 0.0952
vn -0.3845 -0.4427 -0.8100
vn -0.2941 0.7128 -0.6367
vn 0.1933 0.9350 0.2975
vn 0.4487 -0.4447 0.7752
vn 0.0178 -0.9976 -0.0676
vn -0.3719 -0.3622 -0.8547
vn -0.3359 0.5198 -0.7855
vn 0.0670 0.9977 -0.0135
vn 0.4991 0.3672 0.7849
vn 0.4152 -0.6562 0.6301
vn 0.2634 -0.6551 0.7081
vn 0.3498 -0.6581 0.6668
vn 0.3423 0.3665 0.8652
vn 0.4319 0.3683 0.8233
vn -0.0653 0.9963 0.0558
vn 0.0089 0.9998 0.0170
vn -0.4713 0.5190 -0.7131
vn -0.3965 0.5210 -0.7559
vn -0.5078 -0.3617 -0.7819
vn -0.4329 -0.3630 -0.8251
vn -0.0773 -0.9968 -0.0176
vn -0.0240 -0.9987 -0.0457
vn 0.3735 -0.4445 0.8142
vn 0.4160 -0.4450 0.7930
vn 0.1267 0.9346 0.3322
vn 0.1642 0.9355 0.3129
vn -0.3653 0.7125 -0.5991
vn -0.3256 0.7133 -0.6207
vn -0.4566 -0.4425 -0.7718
vn -0.4165 -0.4430 -0.7939
vn 0.0558 -0.9949 0.0845
vn 0.0468 -0.9949 0.0892
vn -0.0167 0.9980 -0.0613
vn 0.3851 0.4395 0.8115
vn 0.2960 -0.7088 0.6403
vn -0.2031 -0.9269 -0.3158
vn -0.4526 0.4272 -0.7827
vn -0.0179 0.9976 0.0673
vn 0.3704 0.3702 0.8519
vn 0.3350 -0.5229 0.7838
vn -0.0685 -0.9976 0.0106
vn -0.4988 -0.3692 -0.7841
vn -0.4206 0.6429 -0.6402
vn -0.2683 0.6423 -0.7179
vn -0.3562 0.6421 -0.6789
vn -0.3419 -0.3684 -0.8645
vn -0.4314 -0.3708 -0.8224
vn 0.0638 -0.9962 -0.0586
vn -0.0107 -0.9997 -0.0203
vn 0.4705 -0.5220 0.7115
vn 0.3955 -0.5246 0.7539
vn 0.5064 0.3694 0.7792
vn 0.4311 0.3728 0.8217
vn 0.0772 0.9969 0.0174
vn 0.0236 0.9987 0.0450
vn -0.3772 0.4278 -0.8214
vn -0.4207 0.4243 -0.8019
vn -0.1358 -0.9269 -0.3500
vn -0.1754 -0.9260 -0.3344
vn 0.3671 -0.7087 0.6025
vn 0.3278 -0.7087 0.6248
vn 0.4574 0.4393 0.7731
vn 0.4171 0.4401 0.7952
vn -0.0375 0.9981 -0.0486
vn -0.0251 0.9985 -0.0478
vn -0.4660 -0.1007 -0.8790
vn 0.8855 0.0108 -0.4644
vn -0.8855 0.0138 0.4645
vn 0.8952 0.0091 -0.4455
vn -0.8725 0.0117 0.4885
vn 0.8941 -0.0190 -0.4475
vn -0.8737 -0.0244 0.4858
vn 0.8795 -0.0299 -0.4750
vn -0.8919 -0.0383 0.4505
vn 0.8700 0.0156 -0.4929
vn -0.9038 0.0200 0.4275
vn 0.8861 0.0374 -0.4621
vn -0.8831 0.0478 0.4668
vn 0.9036 0.0158 -0.4280
vn -0.8600 0.0202 0.5099
vn 0.9027 -0.0238 -0.4297
vn -0.8610 -0.0304 0.5077
vn 0.8838 -0.0505 -0.4651
vn -0.8844 -0.0646 0.4622
vn 0.8606 -0.0201 -0.5090
vn -0.9136 -0.0257 0.4058
vn 0.3388 0.7515 0.5661
vn 0.8681 0.0301 -0.4955
vn -0.9051 0.0385 0.4235
vn -0.4573 -0.1007 -0.8836
vn -0.4622 -0.1007 -0.8810
vn 0.2802 0.7520 0.5966
vn 0.3057 0.7529 0.5828
usemtl Map
s off
f 25/1/1 28/2/1 4/3/1 3/4/1
f 27/5/2 2/6/2 5/7/2 29/8/2
f 29/8/3 5/7/3 7/9/3 31/10/3
f 31/10/4 7/9/4 9/11/4 33/12/4
f 33/12/5 9/11/5 11/13/5 35/14/5
f 35/14/6 11/13/6 13/15/6 37/16/6
f 37/16/7 13/15/7 15/17/7 39/18/7
f 39/18/8 15/17/8 17/19/8 41/20/8
f 41/20/9 17/19/9 19/21/9 43/22/9
f 43/22/10 19/21/10 21/23/10 45/24/10
f 45/24/11 21/23/11 23/25/11 47/26/11
f 22/27/12 46/28/12 48/29/12 24/30/12
f 46/28/13 45/24/13 47/26/13 48/29/13
f 20/31/14 44/32/14 46/28/14 22/27/14
f 44/32/15 43/22/15 45/24/15 46/28/15
f 18/33/16 42/34/16 44/32/16 20/31/16
f 42/34/17 41/20/17 43/22/17 44/32/17
f 16/35/18 40/36/18 42/34/18 18/33/18
f 40/36/19 39/18/19 41/20/19 42/34/19
f 14/37/20 38/38/20 40/36/20 16/35/20
f 38/38/21 37/16/21 39/18/21 40/36/21
f 12/39/22 36/40/22 38/38/22 14/37/22
f 36/40/23 35/14/23 37/16/23 38/38/23
f 10/41/24 34/42/24 36/40/24 12/39/24
f 34/42/25 33/12/25 35/14/25 36/40/25
f 8/43/26 32/44/26 34/42/26 10/41/26
f 32/44/27 31/10/27 33/12/27 34/42/27
f 6/45/28 30/46/28 32/44/28 8/43/28
f 30/46/29 29/8/29 31/10/29 32/44/29
f 4/3/30 28/2/30 30/46/30 6/45/30
f 28/2/31 27/5/31 29/8/31 30/46/31
f 1/47/32 2/6/32 27/5/32 26/48/32
f 26/48/33 27/5/33 28/2/33 25/1/33
f 73/49/34 51/50/34 52/51/34 76/52/34
f 75/53/35 77/54/35 53/55/35 50/56/35
f 77/54/36 79/57/36 55/58/36 53/55/36
f 79/57/37 81/59/37 57/60/37 55/58/37
f 81/59/38 83/61/38 59/62/38 57/60/38
f 83/61/39 85/63/39 61/64/39 59/62/39
f 85/63/40 87/65/40 63/66/40 61/64/40
f 87/65/41 89/67/41 65/68/41 63/66/41
f 89/67/42 91/69/42 67/70/42 65/68/42
f 91/69/43 93/71/43 69/72/43 67/70/43
f 93/71/44 95/73/44 71/74/44 69/72/44
f 70/75/45 72/76/45 96/77/45 94/78/45
f 94/78/46 96/77/46 95/73/46 93/71/46
f 68/79/47 70/75/47 94/78/47 92/80/47
f 92/80/48 94/78/48 93/71/48 91/69/48
f 66/81/49 68/79/49 92/80/49 90/82/49
f 90/82/50 92/80/50 91/69/50 89/67/50
f 64/83/51 66/81/51 90/82/51 88/84/51
f 88/84/52 90/82/52 89/67/52 87/65/52
f 62/85/53 64/83/53 88/84/53 86/86/53
f 86/86/54 88/84/54 87/65/54 85/63/54
f 60/87/55 62/85/55 86/86/55 84/88/55
f 84/88/56 86/86/56 85/63/56 83/61/56
f 58/89/57 60/87/57 84/88/57 82/90/57
f 82/90/58 84/88/58 83/61/58 81/59/58
f 56/91/59 58/89/59 82/90/59 80/92/59
f 80/92/60 82/90/60 81/59/60 79/57/60
f 54/93/61 56/91/61 80/92/61 78/94/61
f 78/94/62 80/92/62 79/57/62 77/54/62
f 52/51/63 54/93/63 78/94/63 76/52/63
f 76/52/64 78/94/64 77/54/64 75/53/64
f 49/95/65 74/96/65 75/53/65 50/56/65
f 74/96/66 73/49/66 76/52/66 75/53/66
f 1/47/67 26/48/67 74/96/67 49/95/67
f 2/6/68 1/47/68 49/95/68 50/56/68
f 3/4/69 4/3/69 52/51/69 51/50/69
f 5/7/70 2/6/70 50/56/70 53/55/70
f 4/3/71 6/45/71 54/93/71 52/51/71
f 7/9/72 5/7/72 53/55/72 55/58/72
f 6/45/73 8/43/73 56/91/73 54/93/73
f 9/11/74 7/9/74 55/58/74 57/60/74
f 8/43/75 10/41/75 58/89/75 56/91/75
f 11/13/76 9/11/76 57/60/76 59/62/76
f 10/41/77 12/39/77 60/87/77 58/89/77
f 13/15/78 11/13/78 59/62/78 61/64/78
f 12/39/79 14/37/79 62/85/79 60/87/79
f 15/17/80 13/15/80 61/64/80 63/66/80
f 14/37/81 16/35/81 64/83/81 62/85/81
f 17/19/82 15/17/82 63/66/82 65/68/82
f 16/35/83 18/33/83 66/81/83 64/83/83
f 19/21/84 17/19/84 65/68/84 67/70/84
f 18/33/85 20/31/85 68/79/85 66/81/85
f 21/23/86 19/21/86 67/70/86 69/72/86
f 20/31/87 22/27/87 70/75/87 68/79/87
f 24/30/88 48/29/88 96/77/88 72/76/88
f 23/25/89 21/23/89 69/72/89 71/74/89
f 22/27/90 24/30/90 72/76/90 70/75/90
f 25/1/91 3/4/91 51/50/91 73/49/91
f 26/48/92 25/1/92 73/49/92 74/96/92
f 47/26/93 23/25/93 71/74/93 95/73/93
f 48/29/94 47/26/94 95/73/94 96/77/94
o cBox_Map_Cube.055
v -1.584000 0.000000 1.584000
v -1.584000 3.168000 1.584000
v -1.584000 0.000000 -1.584000
v -1.584000 3.168000 -1.584000
v 1.584000 0.000000 1.584000
v 1.584000 3.168000 1.584000
v 1.584000 0.000000 -1.584000
v 1.584000 3.168000 -1.584000
vt 0.375000 0.000000
vt 0.625000 0.000000
vt 0.625000 0.250000
vt 0.375000 0.250000
vt 0.625000 0.500000
vt 0.375000 0.500000
vt 0.625000 0.750000
vt 0.375000 0.750000
vt 0.625000 1.000000
vt 0.375000 1.000000
vt 0.125000 0.500000
vt 0.125000 0.750000
vt 0.875000 0.500000
vt 0.875000 0.750000
vn -1.0000 0.0000 0.0000
vn 0.0000 0.0000 -1.0000
vn 1.0000 0.0000 0.0000
vn 0.0000 0.0000 1.0000
vn 0.0000 -1.0000 0.0000
vn 0.0000 1.0000 0.0000
usemtl None
s off
f 97/97/95 98/98/95 100/99/95 99/100/95
f 99/100/96 100/99/96 104/101/96 103/102/96
f 103/102/97 104/101/97 102/103/97 101/104/97
f 101/104/98 102/103/98 98/105/98 97/106/98
f 99/107/99 103/102/99 101/104/99 97/108/99
f 104/101/100 100/109/100 98/110/100 102/103/100
