# Blender v2.91.0 OBJ File: 'master.blend'
# www.blender.org
mtllib panel.mtl
o Panneau_Cube.071
v -0.637714 -0.019129 0.637714
v -0.637714 0.019129 0.637714
v -0.637714 -0.019129 -0.637714
v -0.637714 0.019129 -0.637714
v 0.637714 -0.019129 0.637714
v 0.637714 0.019129 0.637714
v 0.637714 -0.019129 -0.637714
v 0.637714 0.019129 -0.637714
vt 0.215914 0.284464
vt 0.215914 0.284464
vt 0.215914 0.719036
vt 0.215914 0.719036
vt 0.813615 0.719036
vt 0.813615 0.719036
vt 0.813615 0.284464
vt 0.813615 0.284464
vn -1.0000 0.0000 0.0000
vn 0.0000 0.0000 -1.0000
vn 1.0000 0.0000 0.0000
vn 0.0000 0.0000 1.0000
vn 0.0000 -1.0000 0.0000
vn 0.0000 1.0000 0.0000
usemtl panneau
s off
f 1/1/1 2/2/1 4/3/1 3/4/1
f 3/4/2 4/3/2 8/5/2 7/6/2
f 7/6/3 8/5/3 6/7/3 5/8/3
f 5/8/4 6/7/4 2/2/4 1/1/4
f 3/4/5 7/6/5 5/8/5 1/1/5
f 8/5/6 4/3/6 2/2/6 6/7/6
o cBox_Panel_Cube.087
v -1.584000 0.000000 1.584000
v -1.584000 3.168000 1.584000
v -1.584000 0.000000 -1.584000
v -1.584000 3.168000 -1.584000
v 1.584000 0.000000 1.584000
v 1.584000 3.168000 1.584000
v 1.584000 0.000000 -1.584000
v 1.584000 3.168000 -1.584000
vt 0.375000 0.000000
vt 0.625000 0.000000
vt 0.625000 0.250000
vt 0.375000 0.250000
vt 0.625000 0.500000
vt 0.375000 0.500000
vt 0.625000 0.750000
vt 0.375000 0.750000
vt 0.625000 1.000000
vt 0.375000 1.000000
vt 0.125000 0.500000
vt 0.125000 0.750000
vt 0.875000 0.500000
vt 0.875000 0.750000
vn -1.0000 0.0000 0.0000
vn 0.0000 0.0000 -1.0000
vn 1.0000 0.0000 0.0000
vn 0.0000 0.0000 1.0000
vn 0.0000 -1.0000 0.0000
vn 0.0000 1.0000 0.0000
usemtl None
s off
f 9/9/7 10/10/7 12/11/7 11/12/7
f 11/12/8 12/11/8 16/13/8 15/14/8
f 15/14/9 16/13/9 14/15/9 13/16/9
f 13/16/10 14/15/10 10/17/10 9/18/10
f 11/19/11 15/14/11 13/16/11 9/20/11
f 16/13/12 12/21/12 10/22/12 14/15/12
