# Blender v2.91.0 OBJ File: 'master.blend'
# www.blender.org
mtllib paper.mtl
o Paper_Plane.003
v -0.416959 0.101899 0.600000
v 0.416959 0.101899 0.600000
v -0.416959 0.101899 -0.600000
v 0.416959 0.101899 -0.600000
v -0.416959 0.087372 0.600000
v 0.416959 0.087372 0.600000
v -0.416959 0.087372 -0.600000
v 0.416959 0.087372 -0.600000
v -0.138986 0.051047 0.600000
v 0.138986 0.051047 0.600000
v 0.138986 0.051047 -0.600000
v -0.138986 0.051047 -0.600000
v -0.138986 0.036520 0.600000
v 0.138986 0.036520 0.600000
v 0.138986 0.036520 -0.600000
v -0.138986 0.036520 -0.600000
v -0.416959 0.051047 -0.200000
v -0.416959 0.051047 0.200000
v 0.416959 0.051047 0.200000
v 0.416959 0.051047 -0.200000
v -0.416959 0.036520 -0.200000
v -0.416959 0.036520 0.200000
v 0.416959 0.036520 0.200000
v 0.416959 0.036520 -0.200000
v -0.138986 0.001117 0.200000
v -0.138986 0.001117 -0.200000
v 0.138986 0.001117 0.200000
v 0.138986 0.001117 -0.200000
v -0.138986 0.015645 -0.200000
v -0.138986 0.015645 0.200000
v 0.138986 0.015645 -0.200000
v 0.138986 0.015645 0.200000
vt 0.666667 0.666667
vt 0.666667 1.000000
vt 1.000000 1.000000
vt 1.000000 0.666667
vt 0.666667 0.666667
vt 1.000000 0.666667
vt 1.000000 1.000000
vt 0.666667 1.000000
vt 0.000000 0.333333
vt 0.000000 0.000000
vt 0.000000 0.000000
vt 0.000000 0.333333
vt 0.333333 1.000000
vt 0.000000 1.000000
vt 0.000000 1.000000
vt 0.333333 1.000000
vt 0.666667 0.000000
vt 1.000000 0.000000
vt 1.000000 0.000000
vt 0.666667 0.000000
vt 0.333333 0.000000
vt 0.333333 0.000000
vt 0.000000 0.666667
vt 0.333333 0.666667
vt 0.000000 0.666667
vt 0.333333 0.666667
vt 0.333333 0.333333
vt 0.666667 0.333333
vt 0.666667 0.333333
vt 0.333333 0.333333
vt 1.000000 0.333333
vt 1.000000 0.333333
vn 0.1525 -0.9826 -0.1059
vn -0.1525 0.9826 0.1059
vn -1.0000 0.0000 0.0000
vn 1.0000 0.0000 0.0000
vn 0.0000 0.0000 1.0000
vn 0.0000 0.0000 -1.0000
vn 0.1525 0.9826 0.1059
vn 0.0000 0.9961 0.0882
vn -0.1525 -0.9826 -0.1059
vn 0.0000 -0.9961 -0.0882
vn 0.0000 -0.9961 0.0882
vn 0.0000 -1.0000 0.0000
vn -0.1525 -0.9826 0.1059
vn -0.1263 -0.9920 0.0000
vn 0.0000 0.9961 -0.0882
vn 0.0000 1.0000 0.0000
vn 0.1525 0.9826 -0.1059
vn 0.1263 0.9920 0.0000
vn -0.1525 0.9826 -0.1059
vn -0.1263 0.9920 0.0000
vn 0.1525 -0.9826 0.1059
vn 0.1263 -0.9920 0.0000
usemtl Paper
s off
f 31/1/1 11/2/1 4/3/1 20/4/1
f 28/5/2 24/6/2 8/7/2 15/8/2
f 20/4/3 4/3/3 8/7/3 24/6/3
f 18/9/4 1/10/4 5/11/4 22/12/4
f 12/13/5 3/14/5 7/15/5 16/16/5
f 10/17/6 2/18/6 6/19/6 14/20/6
f 1/10/6 9/21/6 13/22/6 5/11/6
f 9/21/6 10/17/6 14/20/6 13/22/6
f 4/3/5 11/2/5 15/8/5 8/7/5
f 11/2/5 12/13/5 16/16/5 15/8/5
f 21/23/7 26/24/7 16/16/7 7/15/7
f 26/24/8 28/5/8 15/8/8 16/16/8
f 17/25/9 3/14/9 12/13/9 29/26/9
f 29/26/10 12/13/10 11/2/10 31/1/10
f 9/21/11 30/27/11 32/28/11 10/17/11
f 30/27/12 29/26/12 31/1/12 32/28/12
f 1/10/13 18/9/13 30/27/13 9/21/13
f 18/9/14 17/25/14 29/26/14 30/27/14
f 13/22/15 14/20/15 27/29/15 25/30/15
f 25/30/16 27/29/16 28/5/16 26/24/16
f 5/11/17 13/22/17 25/30/17 22/12/17
f 22/12/18 25/30/18 26/24/18 21/23/18
f 3/14/4 17/25/4 21/23/4 7/15/4
f 17/25/4 18/9/4 22/12/4 21/23/4
f 2/18/3 19/31/3 23/32/3 6/19/3
f 19/31/3 20/4/3 24/6/3 23/32/3
f 14/20/19 6/19/19 23/32/19 27/29/19
f 27/29/20 23/32/20 24/6/20 28/5/20
f 10/17/21 32/28/21 19/31/21 2/18/21
f 32/28/22 31/1/22 20/4/22 19/31/22
o cBox_Paper_Cube.074
v -1.584000 0.000000 1.584000
v -1.584000 3.168000 1.584000
v -1.584000 0.000000 -1.584000
v -1.584000 3.168000 -1.584000
v 1.584000 0.000000 1.584000
v 1.584000 3.168000 1.584000
v 1.584000 0.000000 -1.584000
v 1.584000 3.168000 -1.584000
vt 0.375000 0.000000
vt 0.625000 0.000000
vt 0.625000 0.250000
vt 0.375000 0.250000
vt 0.625000 0.500000
vt 0.375000 0.500000
vt 0.625000 0.750000
vt 0.375000 0.750000
vt 0.625000 1.000000
vt 0.375000 1.000000
vt 0.125000 0.500000
vt 0.125000 0.750000
vt 0.875000 0.500000
vt 0.875000 0.750000
vn -1.0000 0.0000 0.0000
vn 0.0000 0.0000 -1.0000
vn 1.0000 0.0000 0.0000
vn 0.0000 0.0000 1.0000
vn 0.0000 -1.0000 0.0000
vn 0.0000 1.0000 0.0000
usemtl None
s off
f 33/33/23 34/34/23 36/35/23 35/36/23
f 35/36/24 36/35/24 40/37/24 39/38/24
f 39/38/25 40/37/25 38/39/25 37/40/25
f 37/40/26 38/39/26 34/41/26 33/42/26
f 35/43/27 39/38/27 37/40/27 33/44/27
f 40/37/28 36/45/28 34/46/28 38/39/28
