# Blender v2.91.0 OBJ File: 'key.blend'
# www.blender.org
mtllib map.mtl
o cBox_cBox_Cube.003
v -16.400110 -0.001025 16.214901
v -16.400110 32.795097 16.214907
v -16.400110 32.795105 -16.581215
v -16.400110 -0.001019 -16.581221
v 16.396013 32.795105 -16.581215
v 16.396013 -0.001019 -16.581221
v 16.396013 32.795097 16.214907
v 16.396013 -0.001025 16.214901
vt 0.375000 0.000000
vt 0.625000 0.000000
vt 0.625000 0.250000
vt 0.375000 0.250000
vt 0.625000 0.500000
vt 0.375000 0.500000
vt 0.625000 0.750000
vt 0.375000 0.750000
vt 0.625000 1.000000
vt 0.375000 1.000000
vt 0.125000 0.500000
vt 0.125000 0.750000
vt 0.875000 0.500000
vt 0.875000 0.750000
vn -1.0000 0.0000 0.0000
vn 0.0000 0.0000 -1.0000
vn 1.0000 -0.0000 0.0000
vn 0.0000 -0.0000 1.0000
vn 0.0000 -1.0000 -0.0000
vn 0.0000 1.0000 0.0000
usemtl sable
s 1
f 1/1/1 2/2/1 3/3/1 4/4/1
f 4/4/2 3/3/2 5/5/2 6/6/2
f 6/6/3 5/5/3 7/7/3 8/8/3
f 8/8/4 7/7/4 2/9/4 1/10/4
f 4/11/5 6/6/5 8/8/5 1/12/5
f 5/5/6 3/13/6 2/14/6 7/7/6
o map_Plane
v -3.862099 1.421306 3.897724
v 3.862099 1.421306 3.897724
v -3.862099 1.421306 -3.897724
v 3.862099 1.421306 -3.897724
v 0.000000 0.180049 3.897724
v 0.000000 0.180049 -3.897724
v -3.897724 1.309934 3.897724
v 3.897724 1.309934 3.897724
v -3.897724 1.309934 -3.897724
v 3.897724 1.309934 -3.897724
v 0.000000 0.063117 3.897724
v 0.000000 0.063117 -3.897724
vt 0.000000 0.000000
vt 0.000000 1.000000
vt 0.500000 1.000000
vt 0.500000 0.000000
vt 0.500000 0.000000
vt 1.000000 0.000000
vt 1.000000 1.000000
vt 0.500000 1.000000
vt 0.000000 0.000000
vt 0.000000 1.000000
vt 1.000000 1.000000
vt 1.000000 0.000000
vn -0.3047 -0.9525 0.0000
vn -0.3060 0.9520 0.0000
vn -0.9525 0.3047 0.0000
vn 0.3047 -0.9525 0.0000
vn 0.9525 0.3047 0.0000
vn 0.0000 0.0000 1.0000
vn -0.0000 0.0000 -1.0000
vn 0.3060 0.9520 0.0000
usemtl map
s off
f 15/15/7 17/16/7 20/17/7 19/18/7
f 13/19/8 10/20/8 12/21/8 14/22/8
f 9/23/9 11/24/9 17/16/9 15/15/9
f 19/18/10 20/17/10 18/25/10 16/26/10
f 12/21/11 10/20/11 16/26/11 18/25/11
f 10/20/12 13/19/12 19/18/12 16/26/12
f 11/24/13 14/22/13 20/17/13 17/16/13
f 13/19/12 9/23/12 15/15/12 19/18/12
f 14/22/13 12/21/13 18/25/13 20/17/13
f 9/23/14 13/19/14 14/22/14 11/24/14
