# Blender v2.91.0 OBJ File: 'master.blend'
# www.blender.org
mtllib trunk.mtl
o Cylinder.024_Cylinder.015
v -4.569403 0.436020 -0.909062
v 4.495803 0.490406 -1.002455
v -4.569403 -0.096410 -0.554636
v 4.486696 -0.047698 -0.614345
v -4.569401 -0.566121 0.020429
v 4.481190 -0.393211 0.086622
v -4.569401 -0.293003 0.788891
v 4.489826 -0.246379 0.801926
v -4.569401 0.403126 1.100124
v 4.488076 0.435515 1.129491
v -4.569403 1.049403 0.794860
v 4.487148 1.171592 0.574106
v -4.569404 1.250229 0.060838
v 4.491138 1.331160 0.038560
v -4.569404 0.946395 -0.484482
v 4.491391 0.938991 -0.723403
v -1.313981 0.364562 -0.563893
v 1.336934 0.330584 -0.502624
v 1.341787 0.049702 -0.234389
v -1.305718 -0.022134 -0.423456
v 1.348362 -0.194611 0.161410
v -1.318728 -0.253590 0.013970
v 1.351137 -0.087156 0.552269
v -1.326373 -0.150565 0.465240
v 1.351136 0.289430 0.722501
v -1.334636 0.332966 0.638404
v 1.351136 0.595036 0.544501
v -1.334637 0.682057 0.470005
v 1.348070 0.741216 0.141144
v -1.325701 0.767129 0.025138
v 1.341122 0.575733 -0.322494
v -1.313981 0.620870 -0.423550
v 3.288186 0.411923 -0.643507
v 3.288187 0.082311 -0.388228
v 3.288188 -0.225375 0.029748
v 3.288188 -0.019774 0.613091
v 3.288187 0.477298 0.851421
v 3.288187 0.891992 0.610695
v 3.288186 1.003833 0.060190
v 3.288186 0.718234 -0.481783
v 4.488525 0.890831 0.898652
v -3.532482 0.012954 -0.402801
v -3.532480 -0.327283 0.026447
v -3.532480 -0.115149 0.626389
v -3.532481 0.428678 0.871207
v -3.532482 0.909518 0.623130
v -3.532483 1.039613 0.058105
v -3.532483 0.749946 -0.496977
v -3.532482 0.426377 -0.667010
v -4.569404 0.774232 -0.727017
v -4.588871 0.476821 -0.671464
v 4.509743 0.525141 -0.753526
v -4.588871 0.045695 -0.407797
v 4.502314 0.090439 -0.461236
v -4.588870 -0.360078 0.033535
v 4.503370 -0.210406 0.076034
v -4.588870 -0.141365 0.651252
v 4.504688 -0.087176 0.656953
v -4.588870 0.417546 0.903351
v 4.506967 0.459939 0.922546
v -4.588871 0.911716 0.649874
v 4.503264 0.970371 0.491552
v -4.588872 1.038446 0.073136
v 4.509186 1.103685 0.051875
v -4.587402 0.756447 -0.405296
v 4.508412 0.818635 -0.561549
v -1.322301 0.384654 -0.461204
v 1.354679 0.375737 -0.202448
v 1.357906 0.175279 -0.035179
v -1.314038 0.113140 -0.306078
v 1.359456 0.046509 0.224228
v -1.321140 -0.016789 -0.003976
v 1.359456 0.091355 0.432812
v -1.330833 0.028648 0.299415
v 1.359456 0.327314 0.524329
v -1.342956 0.363776 0.444685
v 1.359456 0.500537 0.427177
v -1.341180 0.602632 0.321338
v 1.358098 0.593203 0.174116
v -1.330224 0.695298 -0.027808
v 1.354505 0.503678 -0.116989
v -1.322301 0.583270 -0.368326
v 3.304623 0.451979 -0.477165
v 3.304624 0.190871 -0.323133
v 3.304625 -0.026258 0.057506
v 3.304625 0.051293 0.500230
v 3.304624 0.381323 0.683746
v 3.304624 0.722095 0.497661
v 3.304623 0.817828 0.077916
v 3.304623 0.673463 -0.330957
v 4.502739 0.814027 0.698475
v -3.548919 0.117897 -0.339847
v -3.548918 -0.131178 0.052279
v -3.548918 0.015533 0.513591
v -3.548918 0.444272 0.703560
v -3.548919 0.809543 0.509918
v -3.548920 0.858874 0.075942
v -3.548920 0.677714 -0.349743
v -3.548919 0.422031 -0.498532
v -4.587402 0.710889 -0.532188
vt 0.830447 0.112778
vt 0.828010 0.010923
vt 0.755167 0.011222
vt 0.779866 0.112985
vt 0.718173 0.011373
vt 0.737655 0.113158
vt 0.733866 0.011309
vt 0.759683 0.113068
vt 0.823422 0.010942
vt 0.824235 0.112803
vt 0.884346 0.010691
vt 0.885455 0.112552
vt 0.917588 0.010555
vt 0.934667 0.010485
vt 0.901140 0.112487
vt 0.888846 0.010673
vt 0.870225 0.112614
vt 0.874824 0.911160
vt 0.865194 0.641088
vt 0.834081 0.641216
vt 0.833939 0.911327
vt 0.858550 0.357331
vt 0.828791 0.357453
vt 0.906779 0.911028
vt 0.882954 0.642271
vt 0.878639 0.357249
vt 0.890792 0.911094
vt 0.872631 0.643271
vt 0.860894 0.357321
vt 0.827652 0.911353
vt 0.830254 0.643445
vt 0.823795 0.357474
vt 0.761307 0.911625
vt 0.771554 0.642800
vt 0.778081 0.357661
vt 0.738578 0.911718
vt 0.759044 0.642033
vt 0.765037 0.357715
vt 0.781609 0.911542
vt 0.787135 0.640523
vt 0.794694 0.357593
vt 0.829183 0.990036
vt 0.763637 0.990305
vt 0.713311 0.990512
vt 0.742574 0.990392
vt 0.827592 0.990043
vt 0.907499 0.989715
vt 0.929667 0.989624
vt 0.897114 0.989758
vt 0.870179 0.989868
vt 0.827973 0.111027
vt 0.788827 0.111187
vt 0.771563 0.008960
vt 0.829567 0.008722
vt 0.758981 0.111310
vt 0.737742 0.009098
vt 0.773672 0.111249
vt 0.750940 0.009044
vt 0.823056 0.111047
vt 0.823024 0.008748
vt 0.869893 0.110854
vt 0.875454 0.008699
vt 0.881204 0.110808
vt 0.910296 0.008390
vt 0.896033 0.008615
vt 0.860757 0.110892
vt 0.873777 0.008540
vt 0.865077 0.912961
vt 0.831500 0.913098
vt 0.836523 0.642097
vt 0.860634 0.641999
vt 0.834269 0.356539
vt 0.849800 0.356476
vt 0.886860 0.912871
vt 0.874236 0.642792
vt 0.860667 0.356431
vt 0.875301 0.912919
vt 0.862992 0.644012
vt 0.849419 0.356477
vt 0.826483 0.913119
vt 0.833998 0.644321
vt 0.828391 0.356564
vt 0.775315 0.913329
vt 0.793311 0.643189
vt 0.799747 0.356681
vt 0.759596 0.913393
vt 0.787791 0.642173
vt 0.794303 0.356703
vt 0.791099 0.913264
vt 0.803560 0.641347
vt 0.809935 0.356639
vt 0.831002 0.992115
vt 0.778871 0.992329
vt 0.735396 0.992507
vt 0.758829 0.992411
vt 0.827189 0.992131
vt 0.891771 0.991866
vt 0.906985 0.991803
vt 0.876770 0.991770
vt 0.862499 0.991828
vn -0.2039 -0.5817 -0.7874
vn -0.1418 -0.8546 -0.4996
vn -0.1828 -0.9485 0.2586
vn -0.2182 -0.4226 0.8797
vn -0.1950 0.4675 0.8622
vn -0.2328 0.9437 0.2350
vn -0.2449 0.8603 -0.4472
vn -0.2676 0.4847 -0.8328
vn 0.0553 0.4712 -0.8803
vn 0.0338 0.5380 -0.8423
vn 0.0866 0.9142 -0.3960
vn 0.0258 0.9460 -0.3231
vn 0.1190 0.9709 0.2079
vn 0.0110 0.9647 0.2631
vn 0.1108 0.4458 0.8883
vn -0.0147 0.4676 0.8838
vn 0.0715 -0.3754 0.9241
vn -0.0282 -0.3709 0.9283
vn 0.0196 -0.9577 0.2873
vn 0.0116 -0.9701 0.2425
vn 0.0031 -0.8348 -0.5506
vn 0.0527 -0.8674 -0.4949
vn 0.0067 -0.4512 -0.8924
vn 0.0440 -0.5210 -0.8524
vn -0.0953 0.5250 -0.8457
vn -0.1195 0.9062 -0.4057
vn -0.1370 0.9561 0.2591
vn -0.1058 0.4997 0.8597
vn -0.0165 -0.4236 0.9057
vn 0.0146 -0.9520 0.3059
vn -0.0408 -0.8270 -0.5607
vn -0.0383 -0.6507 -0.7584
vn 0.1822 -0.5382 -0.8229
vn 0.1757 -0.7663 -0.6180
vn 0.2098 -0.9215 0.3268
vn 0.2077 -0.4003 0.8926
vn 0.1940 0.4323 0.8806
vn 0.1815 0.9530 0.2428
vn 0.1669 0.8678 -0.4680
vn 0.2043 0.4598 -0.8642
vn 0.1497 0.5327 0.8330
vn 0.1269 0.8639 0.4874
vn 0.1445 0.9710 -0.1906
vn 0.1560 0.4498 -0.8794
vn 0.1903 -0.4982 -0.8459
vn 0.2068 -0.9457 -0.2506
vn 0.2020 -0.9030 0.3792
vn 0.2201 -0.5351 0.8156
vn -0.0176 -0.4696 0.8827
vn -0.0912 -0.4773 0.8740
vn -0.0444 -0.9332 0.3566
vn -0.0578 -0.9512 0.3031
vn -0.0938 -0.9794 -0.1789
vn -0.0194 -0.9555 -0.2944
vn -0.1192 -0.4610 -0.8793
vn 0.0182 -0.4718 -0.8815
vn -0.0915 0.3990 -0.9124
vn 0.0346 0.3834 -0.9229
vn -0.0426 0.9688 -0.2440
vn -0.0114 0.9847 -0.1739
vn -0.0191 0.8776 0.4789
vn -0.0602 0.9068 0.4172
vn -0.0095 0.4785 0.8780
vn -0.0871 0.5605 0.8236
vn 0.1380 -0.5472 0.8255
vn 0.1203 -0.9417 0.3141
vn 0.1080 -0.9573 -0.2683
vn 0.0856 -0.4809 -0.8726
vn 0.0508 0.4365 -0.8983
vn 0.0238 0.9825 -0.1846
vn 0.0683 0.8778 0.4742
vn 0.1044 0.5687 0.8159
vn -0.1040 0.4954 0.8624
vn -0.1382 0.7788 0.6119
vn -0.1905 0.9298 -0.3149
vn -0.1811 0.4018 -0.8976
vn -0.1596 -0.4556 -0.8758
vn -0.1433 -0.9750 -0.1698
vn -0.1225 -0.8834 0.4523
vn -0.1665 -0.4995 0.8501
vn -0.9958 -0.0496 -0.0773
vn 0.9973 -0.0525 -0.0508
vn -0.9945 -0.0797 -0.0686
vn 0.9943 -0.0963 -0.0467
vn -0.9948 -0.0964 0.0342
vn 0.9947 -0.1016 0.0135
vn -0.9946 -0.0425 0.0947
vn 0.9964 -0.0372 0.0762
vn -0.9942 0.0472 0.0963
vn 0.9961 0.0468 0.0750
vn -0.9945 0.1012 0.0253
vn 0.9967 0.0742 0.0324
vn -0.9955 0.0819 -0.0483
vn 0.9960 0.0803 -0.0399
vn -0.0700 -0.6467 -0.7595
vn -0.9953 0.0495 -0.0836
vn 0.9967 0.0489 -0.0649
vn 0.1159 -0.4551 0.8829
vn 0.0946 0.7865 -0.6103
vn -0.0466 0.9302 0.3640
usemtl Tree
s off
f 33/1/1 2/2/1 4/3/1 34/4/1
f 34/4/2 4/3/2 6/5/2 35/6/2
f 35/6/3 6/5/3 8/7/3 36/8/3
f 36/8/4 8/7/4 10/9/4 37/10/4
f 37/10/5 10/9/5 41/11/5 38/12/5
f 38/12/6 12/13/6 14/14/6 39/15/6
f 39/15/7 14/14/7 16/16/7 40/17/7
f 40/17/8 16/16/8 2/2/8 33/1/8
f 48/18/9 32/19/9 17/20/9 49/21/9
f 32/19/10 31/22/10 18/23/10 17/20/10
f 47/24/11 30/25/11 32/19/11 48/18/11
f 30/25/12 29/26/12 31/22/12 32/19/12
f 46/27/13 28/28/13 30/25/13 47/24/13
f 28/28/14 27/29/14 29/26/14 30/25/14
f 45/30/15 26/31/15 28/28/15 46/27/15
f 26/31/16 25/32/16 27/29/16 28/28/16
f 44/33/17 24/34/17 26/31/17 45/30/17
f 24/34/18 23/35/18 25/32/18 26/31/18
f 43/36/19 22/37/19 24/34/19 44/33/19
f 22/37/20 21/38/20 23/35/20 24/34/20
f 42/39/21 20/40/21 22/37/21 43/36/21
f 20/40/22 19/41/22 21/38/22 22/37/22
f 49/21/23 17/20/23 20/40/23 42/39/23
f 17/20/24 18/23/24 19/41/24 20/40/24
f 31/22/25 40/17/25 33/1/25 18/23/25
f 29/26/26 39/15/26 40/17/26 31/22/26
f 27/29/27 38/12/27 39/15/27 29/26/27
f 25/32/28 37/10/28 38/12/28 27/29/28
f 23/35/29 36/8/29 37/10/29 25/32/29
f 21/38/30 35/6/30 36/8/30 23/35/30
f 19/41/31 34/4/31 35/6/31 21/38/31
f 18/23/32 33/1/32 34/4/32 19/41/32
f 1/42/33 49/21/33 42/39/33 3/43/33
f 3/43/34 42/39/34 43/36/34 5/44/34
f 5/44/35 43/36/35 44/33/35 7/45/35
f 7/45/36 44/33/36 45/30/36 9/46/36
f 9/46/37 45/30/37 46/27/37 11/47/37
f 11/47/38 46/27/38 47/24/38 13/48/38
f 13/48/39 47/24/39 48/18/39 15/49/39
f 50/50/40 48/18/40 49/21/40 1/42/40
f 83/51/41 84/52/41 54/53/41 52/54/41
f 84/52/42 85/55/42 56/56/42 54/53/42
f 85/55/43 86/57/43 58/58/43 56/56/43
f 86/57/44 87/59/44 60/60/44 58/58/44
f 87/59/45 88/61/45 91/62/45 60/60/45
f 88/61/46 89/63/46 64/64/46 62/65/46
f 89/63/47 90/66/47 66/67/47 64/64/47
f 90/66/48 83/51/48 52/54/48 66/67/48
f 98/68/49 99/69/49 67/70/49 82/71/49
f 82/71/50 67/70/50 68/72/50 81/73/50
f 97/74/51 98/68/51 82/71/51 80/75/51
f 80/75/52 82/71/52 81/73/52 79/76/52
f 96/77/53 97/74/53 80/75/53 78/78/53
f 78/78/54 80/75/54 79/76/54 77/79/54
f 95/80/55 96/77/55 78/78/55 76/81/55
f 76/81/56 78/78/56 77/79/56 75/82/56
f 94/83/57 95/80/57 76/81/57 74/84/57
f 74/84/58 76/81/58 75/82/58 73/85/58
f 93/86/59 94/83/59 74/84/59 72/87/59
f 72/87/60 74/84/60 73/85/60 71/88/60
f 92/89/61 93/86/61 72/87/61 70/90/61
f 70/90/62 72/87/62 71/88/62 69/91/62
f 99/69/63 92/89/63 70/90/63 67/70/63
f 67/70/64 70/90/64 69/91/64 68/72/64
f 81/73/65 68/72/65 83/51/65 90/66/65
f 79/76/66 81/73/66 90/66/66 89/63/66
f 77/79/67 79/76/67 89/63/67 88/61/67
f 75/82/68 77/79/68 88/61/68 87/59/68
f 73/85/69 75/82/69 87/59/69 86/57/69
f 71/88/70 73/85/70 86/57/70 85/55/70
f 69/91/71 71/88/71 85/55/71 84/52/71
f 68/72/72 69/91/72 84/52/72 83/51/72
f 51/92/73 53/93/73 92/89/73 99/69/73
f 53/93/74 55/94/74 93/86/74 92/89/74
f 55/94/75 57/95/75 94/83/75 93/86/75
f 57/95/76 59/96/76 95/80/76 94/83/76
f 59/96/77 61/97/77 96/77/77 95/80/77
f 61/97/78 63/98/78 97/74/78 96/77/78
f 63/98/79 65/99/79 98/68/79 97/74/79
f 100/100/80 51/92/80 99/69/80 98/68/80
f 1/42/81 3/43/81 53/93/81 51/92/81
f 4/3/82 2/2/82 52/54/82 54/53/82
f 3/43/83 5/44/83 55/94/83 53/93/83
f 6/5/84 4/3/84 54/53/84 56/56/84
f 5/44/85 7/45/85 57/95/85 55/94/85
f 8/7/86 6/5/86 56/56/86 58/58/86
f 7/45/87 9/46/87 59/96/87 57/95/87
f 10/9/88 8/7/88 58/58/88 60/60/88
f 9/46/89 11/47/89 61/97/89 59/96/89
f 41/11/90 10/9/90 60/60/90 91/62/90
f 11/47/91 13/48/91 63/98/91 61/97/91
f 14/14/92 12/13/92 62/65/92 64/64/92
f 13/48/93 15/49/93 65/99/93 63/98/93
f 16/16/94 14/14/94 64/64/94 66/67/94
f 15/49/95 48/18/95 98/68/95 65/99/95
f 50/50/96 1/42/96 51/92/96 100/100/96
f 2/2/97 16/16/97 66/67/97 52/54/97
f 12/13/98 38/12/98 88/61/98 62/65/98
f 38/12/99 41/11/99 91/62/99 88/61/99
f 48/18/100 50/50/100 100/100/100 98/68/100
