# Blender v2.91.0 OBJ File: 'grass.blend'
# www.blender.org
mtllib grass.mtl
o Plane.004_Plane.006
v -0.707107 0.000000 0.707107
v 0.707107 0.000000 -0.707107
v -0.707107 2.000000 0.707107
v 0.707107 2.000000 -0.707107
v -0.000000 0.000000 1.000000
v 0.000000 0.000000 -1.000000
v -0.000000 2.000000 1.000000
v 0.000000 2.000000 -1.000000
v 0.766044 0.000000 0.642788
v -0.766044 0.000000 -0.642788
v 0.766044 2.000000 0.642788
v -0.766044 2.000000 -0.642788
vt 0.003032 0.360847
vt 0.351157 0.360847
vt 0.351157 0.708973
vt 0.003032 0.708973
vt 0.003032 0.360847
vt 0.351157 0.360847
vt 0.351157 0.708973
vt 0.003032 0.708973
vt 0.003032 0.360847
vt 0.351157 0.360847
vt 0.351157 0.708973
vt 0.003032 0.708973
vn 0.7071 -0.0000 0.7071
vn 1.0000 -0.0000 0.0000
vn 0.6428 -0.0000 -0.7660
usemtl GrassBlade01.001
s off
f 1/1/1 2/2/1 4/3/1 3/4/1
f 5/5/2 6/6/2 8/7/2 7/8/2
f 9/9/3 10/10/3 12/11/3 11/12/3
