# Blender v2.91.0 OBJ File: 'master.blend'
# www.blender.org
mtllib mushroom01.mtl
o Cylinder.025_Cylinder.043
v 0.082200 0.811033 -0.480016
v 0.082200 0.845785 -0.486851
v 0.376722 0.833045 -0.360023
v 0.376722 0.867797 -0.366859
v 0.498717 0.886186 -0.070336
v 0.498717 0.920939 -0.077171
v 0.376722 0.939328 0.219352
v 0.376722 0.974081 0.212517
v 0.082200 0.961340 0.339345
v 0.082200 0.996093 0.332509
v -0.212321 0.939328 0.219352
v -0.212321 0.974081 0.212517
v -0.334316 0.886186 -0.070336
v -0.334316 0.920939 -0.077171
v -0.212321 0.833045 -0.360023
v -0.212321 0.867797 -0.366859
v 0.082200 0.933517 -0.422197
v 0.318036 0.951143 -0.326114
v 0.415723 0.993696 -0.094148
v 0.318036 1.036249 0.137817
v 0.082200 1.053875 0.233900
v -0.153636 1.036249 0.137817
v -0.251323 0.993696 -0.094148
v -0.153636 0.951143 -0.326114
v 0.082200 1.080023 -0.190667
v 0.133655 1.083869 -0.169704
v 0.154969 1.093153 -0.119093
v 0.133655 1.102437 -0.068483
v 0.082200 1.106283 -0.047519
v 0.030745 1.102437 -0.068483
v 0.009432 1.093153 -0.119093
v 0.030745 1.083869 -0.169704
v -0.012438 -0.095058 -0.025184
v -0.014406 0.362765 0.017794
v 0.033710 -0.095058 -0.054746
v 0.017155 0.364728 -0.002488
v 0.082385 -0.095057 -0.029562
v 0.050134 0.364724 0.014575
v 0.084913 -0.095057 0.025184
v 0.051756 0.363102 0.051954
v 0.038765 -0.095057 0.054746
v 0.020187 0.360923 0.072502
v -0.009911 -0.095058 0.029562
v -0.012976 0.360924 0.055344
v 0.047185 0.684364 -0.082322
v 0.068165 0.676593 -0.095995
v 0.091045 0.676593 -0.084157
v 0.092244 0.685069 -0.059034
v 0.071249 0.691909 -0.046054
v 0.049030 0.691909 -0.057549
v 0.068540 0.918518 -0.079627
v 0.081305 0.921774 -0.087565
v 0.094966 0.921774 -0.080497
v 0.095861 0.918518 -0.065492
v 0.083095 0.915261 -0.057554
v 0.069435 0.915261 -0.064622
v -0.079371 -0.100023 -0.032967
v -0.195939 0.314635 0.081299
v -0.029675 -0.091384 -0.054399
v -0.163935 0.319963 0.067412
v 0.013458 -0.083887 -0.021431
v -0.136269 0.324772 0.088557
v 0.006896 -0.085027 0.032967
v -0.140762 0.324226 0.123471
v -0.042800 -0.093666 0.054399
v -0.172499 0.319396 0.137183
v -0.085933 -0.101163 0.021431
v -0.200107 0.314597 0.116082
v -0.260558 0.575352 0.120683
v -0.244590 0.575216 0.114160
v -0.231013 0.577575 0.124536
v -0.233405 0.580072 0.141436
v -0.249373 0.580208 0.147959
v -0.262949 0.577848 0.137583
v -0.248598 0.560664 -0.077378
v -0.255996 0.577503 -0.077378
v -0.110881 0.618079 -0.015575
v -0.118280 0.634918 -0.015575
v -0.053837 0.641861 0.133631
v -0.061236 0.658700 0.133631
v -0.110881 0.618079 0.282836
v -0.118280 0.634918 0.282836
v -0.248598 0.560664 0.344639
v -0.255996 0.577503 0.344639
v -0.386315 0.503249 0.282836
v -0.393713 0.520088 0.282836
v -0.443359 0.479467 0.133631
v -0.450757 0.496306 0.133631
v -0.386315 0.503249 -0.015575
v -0.393713 0.520088 -0.015575
v -0.274077 0.614096 -0.035333
v -0.163801 0.660071 0.014155
v -0.118124 0.679114 0.133631
v -0.163801 0.660071 0.253106
v -0.274077 0.614096 0.302595
v -0.384353 0.568122 0.253106
v -0.430030 0.549078 0.133631
v -0.384353 0.568122 0.014155
v -0.299641 0.663853 0.096766
v -0.275581 0.673884 0.107563
v -0.265615 0.678039 0.133631
v -0.275581 0.673884 0.159698
v -0.299641 0.663853 0.170495
v -0.323701 0.653822 0.159698
v -0.333667 0.649667 0.133631
v -0.323701 0.653822 0.107563
vt 0.783570 0.159857
vt 0.787398 0.148032
vt 0.689600 0.108098
vt 0.685772 0.119924
vt 0.653943 0.076577
vt 0.650114 0.088403
vt 0.701308 0.071932
vt 0.697480 0.083757
vt 0.803955 0.096884
vt 0.800127 0.108710
vt 0.901749 0.136817
vt 0.897921 0.148642
vt 0.937407 0.168338
vt 0.933579 0.180163
vt 0.810320 0.077222
vt 0.888627 0.109197
vt 0.890042 0.172983
vt 0.886214 0.184809
vt 0.690198 0.060961
vt 0.718751 0.086202
vt 0.796114 0.061348
vt 0.789884 0.055841
vt 0.879253 0.138157
vt 0.797062 0.118178
vt 0.728126 0.057242
vt 0.917181 0.134438
vt 0.813200 0.068324
vt 0.831132 0.072683
vt 0.839407 0.071872
vt 0.833177 0.066365
vt 0.816093 0.059389
vt 0.798160 0.055029
vt 0.805980 0.969477
vt 0.796355 0.853731
vt 0.788335 0.853932
vt 0.794319 0.970497
vt 0.780002 0.854662
vt 0.782017 0.971574
vt 0.779627 0.855108
vt 0.781377 0.971630
vt 0.787653 0.854961
vt 0.793040 0.970609
vt 0.796035 0.854227
vt 0.767431 0.772442
vt 0.773046 0.771950
vt 0.805342 0.969533
vt 0.773678 0.773817
vt 0.762950 0.715955
vt 0.763105 0.715112
vt 0.768550 0.776244
vt 0.762767 0.776750
vt 0.762275 0.774635
vt 0.759806 0.714572
vt 0.759499 0.716257
vt 0.756199 0.715716
vt 0.756355 0.714873
vt 0.823005 0.969252
vt 0.843297 0.861881
vt 0.835090 0.861242
vt 0.810256 0.968168
vt 0.827993 0.860638
vt 0.799189 0.967226
vt 0.829140 0.860677
vt 0.800872 0.967370
vt 0.837268 0.861195
vt 0.813624 0.968454
vt 0.844350 0.861798
vt 0.850929 0.793582
vt 0.854412 0.793878
vt 0.824688 0.969395
vt 0.853864 0.794562
vt 0.849831 0.794950
vt 0.846347 0.794653
vt 0.846897 0.793970
vt 0.868556 0.281491
vt 0.872927 0.276576
vt 0.832389 0.241869
vt 0.828017 0.246784
vt 0.815597 0.227492
vt 0.811227 0.232408
vt 0.832389 0.241869
vt 0.828017 0.246784
vt 0.872927 0.276576
vt 0.868556 0.281491
vt 0.913466 0.311283
vt 0.909094 0.316198
vt 0.930257 0.325660
vt 0.925886 0.330575
vt 0.883111 0.266116
vt 0.915572 0.293907
vt 0.913466 0.311283
vt 0.909094 0.316198
vt 0.837206 0.226813
vt 0.850651 0.238324
vt 0.890209 0.245937
vt 0.887275 0.243425
vt 0.915572 0.293907
vt 0.883111 0.266116
vt 0.850651 0.238324
vt 0.929017 0.305419
vt 0.897292 0.252001
vt 0.904373 0.258064
vt 0.907305 0.260575
vt 0.904373 0.258064
vt 0.897292 0.252001
vt 0.890209 0.245937
vn 0.3827 -0.1783 -0.9065
vn 0.9239 -0.0739 -0.3755
vn 0.9239 0.0739 0.3755
vn 0.3827 0.1783 0.9065
vn -0.3827 0.1783 0.9065
vn -0.9239 0.0739 0.3755
vn -0.2611 0.8329 0.4880
vn -0.9239 -0.0739 -0.3755
vn -0.3827 -0.1783 -0.9065
vn -0.0000 -0.9836 0.1804
vn 0.3644 0.8766 -0.3143
vn -0.2729 0.5707 -0.7745
vn 0.2729 0.5707 -0.7745
vn 0.6385 0.7586 0.1297
vn -0.6385 0.7586 0.1297
vn 0.2611 0.8329 0.4880
vn -0.6503 0.6501 -0.3931
vn 0.6503 0.6501 -0.3931
vn -0.0000 0.9836 -0.1804
vn -0.3644 0.8766 -0.3143
vn -0.1465 0.9725 0.1811
vn 0.3580 0.9335 -0.0205
vn 0.1529 0.8351 -0.5284
vn -0.1529 0.8351 -0.5284
vn -0.3580 0.9335 -0.0205
vn 0.1465 0.9725 0.1811
vn -0.5397 0.0761 -0.8384
vn 0.4564 0.1167 -0.8821
vn 0.9963 0.0744 -0.0436
vn 0.5421 -0.0102 0.8403
vn -0.4283 0.3626 0.8277
vn -0.4589 -0.0532 0.8869
vn -0.9991 -0.0087 0.0427
vn 0.0000 -1.0000 0.0000
vn -0.9941 0.0913 0.0586
vn -0.5482 -0.1538 -0.8221
vn 0.9901 -0.1370 -0.0297
vn -0.9799 0.1965 0.0335
vn 0.5389 0.2111 0.8155
vn 0.4349 -0.3231 -0.8405
vn -0.1124 0.9696 0.2172
vn 0.5278 0.0155 0.8492
vn 0.4595 0.0059 -0.8881
vn -0.4584 0.0699 0.8860
vn 0.9986 -0.0160 -0.0500
vn -0.5329 0.0579 -0.8442
vn -0.4123 0.1324 -0.9014
vn 0.5141 0.3935 -0.7621
vn 0.9420 0.3125 0.1225
vn 0.4035 -0.0564 0.9133
vn -0.5724 -0.2016 0.7948
vn -0.5380 -0.3248 0.7778
vn -0.9640 -0.2379 -0.1191
vn 0.1713 -0.9852 0.0000
vn -0.3950 0.0420 -0.9177
vn 0.9362 0.3330 0.1119
vn -0.9684 -0.2225 -0.1123
vn 0.3832 0.0745 0.9207
vn 0.5415 0.3139 -0.7799
vn 0.3504 0.1540 -0.9239
vn 0.8459 0.3716 -0.3826
vn 0.8459 0.3716 0.3826
vn 0.3504 0.1540 0.9239
vn -0.3504 -0.1540 0.9239
vn -0.8459 -0.3716 0.3826
vn -0.5207 0.5204 0.6768
vn -0.8459 -0.3716 -0.3826
vn -0.3504 -0.1540 -0.9239
vn 0.3848 -0.9230 -0.0000
vn -0.0072 0.9879 -0.1547
vn -0.5207 0.5204 -0.6768
vn -0.0166 0.7507 -0.6605
vn 0.3253 0.9066 0.2689
vn -0.8921 0.3504 0.2852
vn -0.0166 0.7507 0.6605
vn -0.8921 0.3504 -0.2852
vn 0.3253 0.9066 -0.2689
vn -0.3848 0.9230 0.0000
vn -0.7124 0.6825 -0.1636
vn -0.4976 0.7755 0.3884
vn -0.0072 0.9879 0.1547
vn -0.2057 0.9020 -0.3796
vn -0.4976 0.7755 -0.3884
vn -0.7124 0.6825 0.1636
vn -0.2057 0.9020 0.3796
usemtl Tree
s off
f 1/1/1 2/2/1 4/3/1 3/4/1
f 3/4/2 4/3/2 6/5/2 5/6/2
f 5/6/3 6/5/3 8/7/3 7/8/3
f 7/8/4 8/7/4 10/9/4 9/10/4
f 9/10/5 10/9/5 12/11/5 11/12/5
f 11/12/6 12/11/6 14/13/6 13/14/6
f 12/11/7 10/9/7 21/15/7 22/16/7
f 13/14/8 14/13/8 16/17/8 15/18/8
f 15/18/9 16/17/9 2/2/9 1/1/9
f 1/1/10 3/4/10 5/6/10 7/8/10 9/10/10 11/12/10 13/14/10 15/18/10
f 19/19/11 18/20/11 26/21/11 27/22/11
f 2/2/12 16/17/12 24/23/12 17/24/12
f 4/3/13 2/2/13 17/24/13 18/20/13
f 8/7/14 6/5/14 19/19/14 20/25/14
f 14/13/15 12/11/15 22/16/15 23/26/15
f 10/9/16 8/7/16 20/25/16 21/15/16
f 16/17/17 14/13/17 23/26/17 24/23/17
f 6/5/18 4/3/18 18/20/18 19/19/18
f 26/21/19 25/27/19 32/28/19 31/29/19 30/30/19 29/31/19 28/32/19 27/22/19
f 24/23/20 23/26/20 31/29/20 32/28/20
f 22/16/21 21/15/21 29/31/21 30/30/21
f 20/25/22 19/19/22 27/22/22 28/32/22
f 18/20/23 17/24/23 25/27/23 26/21/23
f 17/24/24 24/23/24 32/28/24 25/27/24
f 23/26/25 22/16/25 30/30/25 31/29/25
f 21/15/26 20/25/26 28/32/26 29/31/26
f 33/33/27 34/34/27 36/35/27 35/36/27
f 35/36/28 36/35/28 38/37/28 37/38/28
f 37/38/29 38/37/29 40/39/29 39/40/29
f 39/40/30 40/39/30 42/41/30 41/42/30
f 44/43/31 42/41/31 49/44/31 50/45/31
f 41/42/32 42/41/32 44/43/32 43/46/32
f 43/46/33 44/43/33 34/34/33 33/33/33
f 33/33/34 35/36/34 37/38/34 39/40/34 41/42/34 43/46/34
f 45/47/35 50/45/35 56/48/35 51/49/35
f 36/35/36 34/34/36 45/47/36 46/50/36
f 40/39/37 38/37/37 47/51/37 48/52/37
f 34/34/38 44/43/38 50/45/38 45/47/38
f 42/41/39 40/39/39 48/52/39 49/44/39
f 38/37/40 36/35/40 46/50/40 47/51/40
f 52/53/41 51/49/41 56/48/41 55/54/41 54/55/41 53/56/41
f 49/44/42 48/52/42 54/55/42 55/54/42
f 47/51/43 46/50/43 52/53/43 53/56/43
f 50/45/44 49/44/44 55/54/44 56/48/44
f 48/52/45 47/51/45 53/56/45 54/55/45
f 46/50/46 45/47/46 51/49/46 52/53/46
f 57/57/47 58/58/47 60/59/47 59/60/47
f 59/60/48 60/59/48 62/61/48 61/62/48
f 61/62/49 62/61/49 64/63/49 63/64/49
f 63/64/50 64/63/50 66/65/50 65/66/50
f 68/67/51 66/65/51 73/68/51 74/69/51
f 65/66/52 66/65/52 68/67/52 67/70/52
f 67/70/53 68/67/53 58/58/53 57/57/53
f 57/57/54 59/60/54 61/62/54 63/64/54 65/66/54 67/70/54
f 60/59/55 58/58/55 69/71/55 70/72/55
f 64/63/56 62/61/56 71/73/56 72/74/56
f 58/58/57 68/67/57 74/69/57 69/71/57
f 66/65/58 64/63/58 72/74/58 73/68/58
f 62/61/59 60/59/59 70/72/59 71/73/59
f 75/75/60 76/76/60 78/77/60 77/78/60
f 77/78/61 78/77/61 80/79/61 79/80/61
f 79/80/62 80/79/62 82/81/62 81/82/62
f 81/82/63 82/81/63 84/83/63 83/84/63
f 83/84/64 84/83/64 86/85/64 85/86/64
f 85/86/65 86/85/65 88/87/65 87/88/65
f 86/85/66 84/83/66 95/89/66 96/90/66
f 87/88/67 88/87/67 90/91/67 89/92/67
f 89/92/68 90/91/68 76/76/68 75/75/68
f 75/75/69 77/78/69 79/80/69 81/82/69 83/84/69 85/86/69 87/88/69 89/92/69
f 93/93/70 92/94/70 100/95/70 101/96/70
f 76/76/71 90/91/71 98/97/71 91/98/71
f 78/77/72 76/76/72 91/98/72 92/94/72
f 82/81/73 80/79/73 93/93/73 94/99/73
f 88/87/74 86/85/74 96/90/74 97/100/74
f 84/83/75 82/81/75 94/99/75 95/89/75
f 90/91/76 88/87/76 97/100/76 98/97/76
f 80/79/77 78/77/77 92/94/77 93/93/77
f 100/95/78 99/101/78 106/102/78 105/103/78 104/104/78 103/105/78 102/106/78 101/96/78
f 98/97/79 97/100/79 105/103/79 106/102/79
f 96/90/80 95/89/80 103/105/80 104/104/80
f 94/99/81 93/93/81 101/96/81 102/106/81
f 92/94/82 91/98/82 99/101/82 100/95/82
f 91/98/83 98/97/83 106/102/83 99/101/83
f 97/100/84 96/90/84 104/104/84 105/103/84
f 95/89/85 94/99/85 102/106/85 103/105/85
