# Blender v2.91.0 OBJ File: 'master.blend'
# www.blender.org
mtllib rock01.mtl
o Cube.017_Cube.090
v -0.395294 -0.475510 -1.545473
v 0.737526 -0.475510 0.936735
v -0.360857 1.645943 -1.303117
v -0.395294 1.427184 -1.545473
v 1.387673 1.904316 -0.409445
v 0.668781 1.062380 0.756947
v 0.737526 0.843621 0.936735
v -0.512425 -0.475510 0.566419
v -0.859465 -0.475510 -0.074945
v -0.677749 1.431658 -0.158434
v -0.353715 1.255949 0.454018
v -0.859235 0.775927 -0.075778
v -0.512145 0.271936 0.566502
v 1.474727 -0.475510 -0.589707
v 1.491055 -0.475510 -0.285854
v 1.491055 1.575241 -0.285854
v 1.474727 1.661405 -0.589707
v 1.455052 1.836390 -0.428309
v 0.007141 3.980926 -0.430161
v 0.452301 4.046705 -0.202640
v 0.269278 3.832356 0.094313
v 0.008959 3.881636 0.017190
v -0.073537 3.926370 -0.138734
vt 0.581769 0.348472
vt 0.365206 0.389469
vt 0.331651 0.181057
vt 0.596328 0.302139
vt 0.734028 0.526791
vt 0.755924 0.457094
vt 0.748299 0.512405
vt 0.258090 0.022750
vt 0.258139 0.287802
vt 0.356400 0.425736
vt 0.356400 0.022750
vt 0.752465 0.475344
vt 0.752465 0.022750
vt 0.363694 0.472069
vt 0.296577 0.426684
vt 0.535918 0.980544
vt 0.497155 0.935145
vt 0.596328 0.022750
vt 0.331593 0.022750
vt 0.755924 0.022750
vt 0.441634 0.966612
vt 0.424548 0.955057
vt 0.442020 0.945583
vn -0.3128 0.2462 0.9174
vn 0.5199 0.5307 0.6693
vn -0.9536 -0.0000 -0.3010
vn 0.4551 0.0000 -0.8904
vn 0.2676 0.6670 -0.6953
vn -0.9438 0.2683 -0.1931
vn 0.7288 0.2569 0.6347
vn -0.2841 -0.0000 0.9588
vn -0.8000 0.2317 0.5534
vn -0.8796 0.0004 0.4758
vn 0.8513 0.0000 0.5247
vn 0.9917 0.1273 -0.0172
vn 0.9986 0.0000 -0.0537
vn 0.0000 -1.0000 -0.0000
vn -0.1408 0.9319 0.3344
vn -0.9479 0.2313 -0.2191
vn 0.4081 0.2626 -0.8744
vn -0.8412 0.1998 0.5024
vn -0.2452 0.1920 0.9503
usemtl Rock
s off
f 6/1/1 11/2/1 13/3/1 7/4/1
f 5/5/2 6/1/2 7/4/2 16/6/2 18/7/2
f 9/8/3 12/9/3 4/10/3 1/11/3
f 1/11/4 4/10/4 17/12/4 14/13/4
f 3/14/5 5/5/5 18/7/5 17/12/5 4/10/5
f 10/15/6 3/14/6 4/10/6 12/9/6
f 6/1/7 5/5/7 20/16/7 21/17/7
f 2/18/8 7/4/8 13/3/8 8/19/8
f 10/15/9 12/9/9 13/3/9 11/2/9
f 8/19/10 13/3/10 12/9/10 9/8/10
f 15/20/11 16/6/11 7/4/11 2/18/11
f 16/6/12 17/12/12 18/7/12
f 16/6/13 15/20/13 14/13/13 17/12/13
f 14/13/14 15/20/14 2/18/14 8/19/14 9/8/14 1/11/14
f 21/17/15 20/16/15 19/21/15 23/22/15 22/23/15
f 3/14/16 10/15/16 23/22/16 19/21/16
f 5/5/17 3/14/17 19/21/17 20/16/17
f 10/15/18 11/2/18 22/23/18 23/22/18
f 11/2/19 6/1/19 21/17/19 22/23/19
