# Blender v2.91.0 OBJ File: 'master.blend'
# www.blender.org
mtllib rock03.mtl
o Cube.018_Cube.088
v 1.955808 -0.578461 0.028684
v -0.703934 -0.578461 -1.339429
v 0.420331 -0.578461 -3.152975
v 1.830914 2.160497 -0.257483
v 1.955808 1.878063 0.028684
v -0.423569 2.494076 -1.417139
v -0.703934 2.211641 -1.339429
v 0.508483 1.407073 -2.920625
v 0.420331 1.124639 -3.152975
v -0.617433 -0.578461 2.981836
v 0.482351 -0.578461 -0.460780
v 2.516676 -0.578461 3.317842
v -0.200269 2.824342 2.701233
v -0.617433 2.269274 2.981836
v 0.679119 3.204567 -0.051486
v 0.482351 2.672338 -0.460780
v 2.262342 2.722113 2.965248
v 2.516676 1.268982 3.317842
v 0.488635 -0.578461 -0.820506
v -1.053425 -0.578461 2.373000
v 0.488635 3.033036 -0.820506
v -1.053426 1.755151 2.373000
v -4.319929 -0.578461 1.759905
v -4.774117 -0.578461 1.094830
v -3.925774 3.706032 1.209643
v -4.710172 2.646127 0.871608
v -3.598979 2.394147 1.732990
v -4.211023 -0.578461 -2.233783
v -3.780982 -0.578461 -2.476504
v -3.494073 4.248746 -1.872490
v -3.780668 2.391227 -2.476382
v -4.208258 2.370488 -2.233055
v 2.032866 -0.578461 -2.670681
v 2.478770 -0.578461 -1.841469
v 2.243881 1.883839 -1.734290
v 1.827582 1.656985 -2.526094
v 2.478470 1.037240 -1.840395
v 2.032505 0.386550 -2.670789
v 2.480620 -0.578461 0.358455
v 2.819177 -0.578461 0.905641
v 2.494482 2.722113 1.114126
v 2.174255 2.817922 0.561478
v 2.819224 2.037322 0.905269
v 2.480126 1.549354 0.358253
v -0.621143 3.855129 -0.758205
v 0.283920 3.379205 -0.739813
v -1.169586 2.588015 2.143017
v -1.808767 3.246636 1.723678
v -4.204801 3.842751 0.738817
v -4.477848 3.731489 0.644760
v -3.982833 4.115979 -1.837882
v -3.706798 4.244164 -1.755607
vt 0.693838 0.447689
vt 0.866390 0.495297
vt 0.893196 0.253280
vt 0.682307 0.393886
vt 0.883162 0.069446
vt 0.883162 0.537413
vt 0.535242 0.600959
vt 0.535242 0.069446
vt 0.951572 0.069446
vt 0.951532 0.377236
vt 0.682307 0.069446
vt 0.866825 0.591216
vt 0.571916 0.654763
vt 0.920846 0.538513
vt 0.893243 0.069446
vt 0.716159 0.790111
vt 0.911738 0.716455
vt 0.951749 0.474794
vt 0.690419 0.688722
vt 0.546557 0.069446
vt 0.546557 0.611938
vt 0.690419 0.069446
vt 0.996100 0.069446
vt 0.996107 0.567752
vt 0.956530 0.421383
vt 0.956530 0.069446
vt 0.951814 0.069446
vt 0.601126 0.717678
vt 0.953626 0.698204
vt 0.923260 0.698204
vt 0.002820 0.069446
vt 0.011184 0.683728
vt 0.076840 0.631219
vt 0.076479 0.069446
vt 0.390718 0.798125
vt 0.546071 0.914042
vt 0.170263 0.989026
vt 0.142437 0.988153
vt 0.077292 0.911684
vt 0.113792 0.885639
vt 0.691242 0.069446
vt 0.691242 0.757434
vt 0.489525 0.513998
vt 0.489525 0.069446
vt 0.474329 0.672658
vt 0.156541 0.635727
vt 0.106328 0.963734
vt 0.132773 0.635170
vt 0.664463 0.823379
vt 0.062232 0.069446
vt 0.041575 0.890489
vt 0.132732 0.069446
vn 0.3151 0.2462 -0.9165
vn -0.4574 0.0000 0.8893
vn 0.9631 0.0000 0.2693
vn -0.8499 0.0000 -0.5269
vn -0.3117 0.5737 0.7574
vn -0.5246 0.5256 -0.6697
vn 0.9342 0.3220 0.1537
vn 0.1417 0.9319 -0.3340
vn 0.2865 -0.0000 -0.9581
vn 0.4721 0.3094 -0.8255
vn -0.9526 0.0000 -0.3043
vn 0.9922 0.0000 0.1244
vn 0.0000 -1.0000 -0.0000
vn -0.8415 0.4995 -0.2057
vn 0.9487 0.2682 0.1673
vn 0.1078 0.9890 0.1016
vn -0.0423 0.3036 0.9519
vn -0.1066 0.0000 0.9943
vn -0.9865 0.0048 -0.1635
vn 0.0949 0.9701 0.2235
vn 0.9005 0.0000 0.4348
vn -0.1706 0.3215 0.9314
vn -0.3230 0.3153 -0.8923
vn 0.8174 0.2858 0.5003
vn -0.2072 0.0331 0.9777
vn -0.9712 0.1671 -0.1700
vn -0.6839 0.1157 0.7204
vn 0.3616 -0.0000 -0.9323
vn -0.4931 0.0004 -0.8700
vn 0.8015 0.2317 -0.5513
vn 0.8808 0.0004 -0.4735
vn 0.7385 0.3588 -0.5708
vn 0.8502 0.0000 -0.5265
vn 0.3793 0.0000 -0.9253
vn 0.4535 0.7821 0.4273
vn 0.3297 0.3227 -0.8872
vn -0.4153 0.9077 0.0605
vn -0.6132 0.2418 0.7520
usemtl Rock
s off
f 8/1/1 36/2/1 38/3/1 9/4/1
f 1/5/2 5/6/2 7/7/2 2/8/2
f 34/9/3 37/10/3 5/6/3 1/5/3
f 2/8/4 7/7/4 9/4/4 3/11/4
f 4/12/5 6/13/5 7/7/5 5/6/5
f 6/13/6 8/1/6 9/4/6 7/7/6
f 35/14/7 4/12/7 5/6/7 37/10/7
f 8/1/8 6/13/8 4/12/8 35/14/8 36/2/8
f 3/11/9 9/4/9 38/3/9 33/15/9
f 15/16/10 42/17/10 44/18/10 16/19/10
f 10/20/11 14/21/11 16/19/11 11/22/11
f 40/23/12 43/24/12 18/25/12 12/26/12
f 11/22/13 39/27/13 40/23/13 12/26/13 10/20/13
f 13/28/14 15/16/14 16/19/14 14/21/14
f 41/29/15 17/30/15 18/25/15 43/24/15
f 41/29/16 42/17/16 15/16/16 13/28/16 17/30/16
f 17/30/17 13/28/17 14/21/17 18/25/17
f 12/26/18 18/25/18 14/21/18 10/20/18
f 24/31/19 26/32/19 32/33/19 28/34/19
f 48/35/20 45/36/20 30/37/20 52/38/20 49/39/20 25/40/20
f 19/41/21 21/42/21 22/43/21 20/44/21
f 47/45/22 48/35/22 25/40/22 27/46/22 22/43/22
f 32/33/23 51/47/23 52/38/23 30/37/23 31/48/23
f 46/49/24 47/45/24 22/43/24 21/42/24
f 20/44/25 22/43/25 27/46/25 23/50/25
f 50/51/26 51/47/26 32/33/26 26/32/26
f 23/50/27 27/46/27 26/32/27 24/31/27
f 29/52/28 31/48/28 21/42/28 19/41/28
f 31/48/29 29/52/29 28/34/29 32/33/29
f 19/41/13 20/44/13 23/50/13 24/31/13 28/34/13 29/52/13
f 35/14/30 37/10/30 38/3/30 36/2/30
f 33/15/31 38/3/31 37/10/31 34/9/31
f 2/8/13 3/11/13 33/15/13 34/9/13 1/5/13
f 41/29/32 43/24/32 44/18/32 42/17/32
f 43/24/33 40/23/33 39/27/33 44/18/33
f 11/22/34 16/19/34 44/18/34 39/27/34
f 45/36/35 48/35/35 47/45/35 46/49/35
f 30/37/36 45/36/36 46/49/36 21/42/36 31/48/36
f 49/39/37 52/38/37 51/47/37 50/51/37
f 49/39/38 50/51/38 26/32/38 27/46/38 25/40/38
