# Blender v2.91.0 OBJ File: 'master.blend'
# www.blender.org
mtllib rock02.mtl
o Cube.016_Cube.089
v -0.703322 -0.405841 -2.163678
v 1.012424 -0.405841 1.368059
v -0.563685 2.638309 -1.845986
v -0.703322 2.324404 -2.163678
v 1.945344 3.009057 -0.563623
v 0.913779 1.800934 1.110075
v 1.012424 1.487029 1.368059
v -0.781176 -0.405841 0.836679
v -1.279156 -0.405841 -0.083638
v -1.018405 2.330824 -0.203438
v -0.553437 2.078692 0.675391
v -1.278826 1.389892 -0.084833
v -0.780774 0.666697 0.836798
v 1.980039 -0.405841 -0.792214
v 2.093689 -0.405841 -0.386278
v 2.093689 2.536857 -0.386278
v 1.980039 2.660497 -0.792214
v 2.042028 2.911589 -0.590692
vt 0.641858 0.644900
vt 0.220517 0.724663
vt 0.155233 0.319181
vt 0.670185 0.554755
vt 0.938094 0.991837
vt 0.980694 0.856235
vt 0.965857 0.963847
vt 0.012113 0.011180
vt 0.012208 0.526861
vt 0.177475 0.795225
vt 0.177475 0.011179
vt 0.948057 0.891740
vt 0.948057 0.011180
vt 0.217575 0.885369
vt 0.086992 0.797068
vt 0.670185 0.011180
vt 0.155117 0.011180
vt 0.980694 0.011180
vn -0.3128 0.2462 0.9174
vn 0.5199 0.5307 0.6693
vn -0.9638 -0.0000 -0.2668
vn 0.4551 0.0000 -0.8904
vn 0.3090 0.5750 -0.7576
vn -0.9346 0.3220 -0.1513
vn -0.1408 0.9319 0.3344
vn -0.2841 -0.0000 0.9588
vn -0.8000 0.2317 0.5534
vn -0.8796 0.0004 0.4758
vn 0.8513 0.0000 0.5247
vn 0.9615 -0.0171 -0.2744
vn 0.9630 0.0000 -0.2696
vn 0.0000 -1.0000 -0.0000
usemtl Rock
s off
f 6/1/1 11/2/1 13/3/1 7/4/1
f 5/5/2 6/1/2 7/4/2 16/6/2 18/7/2
f 9/8/3 12/9/3 4/10/3 1/11/3
f 1/11/4 4/10/4 17/12/4 14/13/4
f 3/14/5 5/5/5 18/7/5 17/12/5 4/10/5
f 10/15/6 3/14/6 4/10/6 12/9/6
f 6/1/7 5/5/7 3/14/7 10/15/7 11/2/7
f 2/16/8 7/4/8 13/3/8 8/17/8
f 10/15/9 12/9/9 13/3/9 11/2/9
f 8/17/10 13/3/10 12/9/10 9/8/10
f 15/18/11 16/6/11 7/4/11 2/16/11
f 16/6/12 17/12/12 18/7/12
f 16/6/13 15/18/13 14/13/13 17/12/13
f 14/13/14 15/18/14 2/16/14 8/17/14 9/8/14 1/11/14
