# Blender v2.91.0 OBJ File: 'master.blend'
# www.blender.org
mtllib tree03.mtl
o Cylinder.022_Cylinder.040
v -0.728522 -0.314683 -0.337393
v -0.509944 1.197551 -0.191213
v -0.223647 -0.314683 -0.674440
v -0.172453 1.197551 -0.416517
v 0.371682 -0.314683 -0.555767
v 0.225503 1.197551 -0.337189
v 0.708729 -0.314683 -0.050891
v 0.450806 1.197551 0.000302
v 0.590056 -0.314683 0.544438
v 0.371478 1.197551 0.398258
v 0.085181 -0.314683 0.881485
v 0.033987 1.197551 0.623562
v -0.510148 -0.314683 0.762812
v -0.363969 1.197551 0.544233
v -0.847195 -0.314683 0.257936
v -0.589272 1.197551 0.206743
v -0.115822 6.266773 -0.275682
v 0.042993 6.266773 -0.381683
v 0.230244 6.266773 -0.344278
v 0.336330 6.266773 -0.185508
v 0.299019 6.266773 0.001752
v 0.140292 6.266773 0.107623
v -0.046872 6.266773 0.070087
v -0.153045 6.266773 -0.088553
v -0.164649 14.342485 -0.078294
v -0.049822 14.342485 -0.154950
v 0.085576 14.342485 -0.127960
v 0.162233 14.342485 -0.013134
v 0.135242 14.342485 0.122265
v 0.020416 14.342485 0.198921
v -0.114983 14.342485 0.171931
v -0.191639 14.342485 0.057105
v 0.064874 21.480518 -0.210347
v 0.104993 21.480560 -0.237139
v 0.152297 21.480598 -0.227725
v 0.179063 21.480560 -0.187603
v 0.169625 21.480518 -0.140292
v 0.129511 21.480495 -0.113509
v 0.082212 21.480480 -0.122930
v 0.055441 21.480495 -0.163045
v -0.039843 13.570146 -0.175965
v 0.003195 13.479759 -0.171330
v 0.084780 13.442321 -0.126770
v 0.157121 13.479759 -0.068388
v 0.177842 13.570146 -0.030383
v 0.134805 13.660532 -0.035018
v 0.053220 13.697972 -0.079578
v -0.019122 13.660532 -0.137960
v 0.944490 13.697531 -1.607747
v 0.974503 13.634512 -1.604528
v 1.031390 13.608407 -1.573473
v 1.081816 13.634512 -1.532760
v 1.096254 13.697531 -1.506252
v 1.066245 13.760546 -1.509476
v 1.009363 13.786649 -1.540537
v 0.958932 13.760546 -1.581244
v 0.042127 18.136026 0.122833
v 0.004496 18.045641 0.101440
v -0.052591 18.008202 0.028072
v -0.095694 18.045641 -0.054292
v -0.099564 18.136026 -0.097405
v -0.061933 18.226414 -0.076012
v -0.004846 18.263853 -0.002644
v 0.038257 18.226414 0.079720
v -1.866872 18.571949 1.277108
v -1.880044 18.540371 1.269653
v -1.900009 18.527287 1.244042
v -1.915040 18.540371 1.215256
v -1.916364 18.571949 1.200180
v -1.903206 18.603523 1.207643
v -1.883254 18.616604 1.233263
v -1.868209 18.603523 1.262039
v 1.772100 14.036522 -2.858199
v 1.795665 13.993849 -2.859861
v 1.836458 13.976171 -2.839801
v 1.870576 13.993849 -2.809762
v 1.878041 14.036523 -2.787349
v 1.854478 14.079194 -2.785691
v 1.813688 14.096871 -2.805754
v 1.779567 14.079194 -2.835790
v -3.052156 19.066774 1.782153
v -3.061648 19.044018 1.776782
v -3.076034 19.034590 1.758326
v -3.086866 19.044018 1.737583
v -3.087820 19.066774 1.726718
v -3.078338 19.089525 1.732097
v -3.063961 19.098951 1.750558
v -3.053120 19.089525 1.771295
v 0.149785 11.171318 -0.145726
v 0.163012 11.097067 -0.112718
v 0.162132 11.066311 -0.036356
v 0.147662 11.097067 0.038627
v 0.128079 11.171318 0.068308
v 0.114853 11.245570 0.035299
v 0.115732 11.276326 -0.041062
v 0.130202 11.245570 -0.116045
v 1.238702 11.275963 0.013809
v 1.247935 11.224194 0.036823
v 1.247333 11.202749 0.090061
v 1.237234 11.224194 0.142336
v 1.223569 11.275963 0.163028
v 1.214342 11.327730 0.140014
v 1.214949 11.349174 0.086777
v 1.225042 11.327730 0.034501
v 2.546457 11.554442 0.137844
v 2.556746 11.519386 0.154299
v 2.557917 11.504864 0.191624
v 2.549276 11.519386 0.227954
v 2.535893 11.554443 0.242008
v 2.525608 11.589498 0.225554
v 2.524441 11.604019 0.188229
v 2.533078 11.589498 0.151899
vt 0.770372 0.011611
vt 0.779981 0.078086
vt 0.794816 0.078086
vt 0.792566 0.011611
vt 0.812309 0.078086
vt 0.818735 0.011611
vt 0.822213 0.078086
vt 0.833551 0.011611
vt 0.818726 0.078086
vt 0.828334 0.011611
vt 0.803890 0.078086
vt 0.806141 0.011611
vt 0.786397 0.078086
vt 0.779972 0.011611
vt 0.817181 0.300917
vt 0.815541 0.300917
vt 0.776493 0.078086
vt 0.765156 0.011611
vt 0.797305 0.300917
vt 0.795669 0.300917
vt 0.793973 0.655907
vt 0.795159 0.655907
vt 0.800336 0.300917
vt 0.804286 0.300917
vt 0.812518 0.300917
vt 0.808564 0.300917
vt 0.803294 0.655907
vt 0.808342 0.655907
vt 0.809853 0.969678
vt 0.808090 0.969677
vt 0.797342 0.655907
vt 0.809528 0.655907
vt 0.800206 0.655907
vt 0.806158 0.655907
vt 0.807012 0.969680
vt 0.805248 0.969678
vt 0.804834 0.969677
vt 0.806010 0.969677
vt 0.810268 0.969680
vt 0.809091 0.969682
vt 0.808322 0.625930
vt 0.810214 0.621956
vt 0.850585 0.627556
vt 0.849266 0.630326
vt 0.845233 0.624786
vt 0.843914 0.627556
vt 0.880294 0.642457
vt 0.881330 0.640581
vt 0.809303 0.617983
vt 0.806123 0.616338
vt 0.847734 0.623638
vt 0.849951 0.624786
vt 0.802537 0.617983
vt 0.800645 0.621956
vt 0.801556 0.625930
vt 0.844549 0.630326
vt 0.804736 0.627576
vt 0.846766 0.631474
vt 0.799674 0.826635
vt 0.718736 0.843212
vt 0.718158 0.841824
vt 0.798020 0.822662
vt 0.720333 0.841824
vt 0.668231 0.863576
vt 0.668188 0.864576
vt 0.720274 0.843212
vt 0.798190 0.818689
vt 0.718216 0.840436
vt 0.718877 0.839861
vt 0.800085 0.817043
vt 0.802594 0.818689
vt 0.719754 0.840436
vt 0.804248 0.822662
vt 0.804078 0.826635
vt 0.802184 0.828281
vt 0.719613 0.843787
vt 0.880622 0.644333
vt 0.882122 0.645110
vt 0.883915 0.644333
vt 0.884951 0.642457
vt 0.884623 0.640581
vt 0.883123 0.639804
vt 0.667813 0.862575
vt 0.667181 0.862161
vt 0.666705 0.862575
vt 0.666663 0.863576
vt 0.667080 0.864576
vt 0.667712 0.864990
vt 0.807445 0.519773
vt 0.808027 0.516510
vt 0.856182 0.521110
vt 0.855776 0.523385
vt 0.857253 0.518834
vt 0.856847 0.521110
vt 0.914333 0.533351
vt 0.914785 0.531810
vt 0.808888 0.513246
vt 0.809524 0.511894
vt 0.857226 0.517891
vt 0.856783 0.518834
vt 0.809562 0.513246
vt 0.808981 0.516510
vt 0.808120 0.519773
vt 0.856247 0.523385
vt 0.807484 0.521125
vt 0.855803 0.524328
vt 0.913745 0.534892
vt 0.913365 0.535530
vt 0.913417 0.534892
vt 0.913869 0.533351
vt 0.914457 0.531810
vt 0.914837 0.531171
vn -0.5482 0.1586 -0.8212
vn 0.1930 0.1586 -0.9683
vn 0.8212 0.1586 -0.5482
vn 0.9683 0.1586 0.1930
vn 0.5482 0.1586 0.8212
vn -0.1930 0.1586 0.9683
vn 0.9803 0.0293 0.1954
vn -0.8212 0.1586 0.5482
vn -0.9683 0.1586 -0.1930
vn 0.0000 -1.0000 0.0000
vn -0.9808 -0.0012 -0.1953
vn -0.8270 0.1034 0.5526
vn 0.1956 -0.0016 -0.9807
vn 0.5536 0.0728 0.8296
vn -0.9781 0.0728 -0.1948
vn -0.5550 0.0293 -0.8314
vn 0.8316 -0.0016 -0.5553
vn -0.1948 0.1034 0.9754
vn 0.5550 0.0279 0.8314
vn -0.1961 -0.0140 0.9805
vn 0.9806 0.0170 0.1954
vn 0.1956 0.0298 -0.9802
vn -0.8312 -0.0140 0.5557
vn 0.5550 -0.0012 0.8318
vn 0.8312 0.0298 -0.5552
vn -0.5551 0.0170 -0.8316
vn -0.0005 1.0000 0.0007
vn 0.8316 -0.0155 -0.5551
vn -0.5553 0.0025 -0.8317
vn -0.9803 0.0279 -0.1954
vn -0.1953 0.0459 0.9797
vn 0.9807 0.0025 0.1955
vn 0.1954 -0.0155 -0.9806
vn -0.8308 0.0459 0.5546
vn 0.7660 0.3909 0.5104
vn -0.7230 -0.3750 -0.5802
vn 0.3675 -0.9202 0.1348
vn -0.7450 -0.3828 -0.5463
vn -0.7754 0.3874 -0.4986
vn 0.2901 0.9248 0.2460
vn 0.8000 -0.3790 0.4651
vn -0.2689 -0.9211 -0.2817
vn -0.3427 0.9243 -0.1682
vn 0.4736 -0.3847 0.7923
vn -0.4942 -0.3914 -0.7762
vn 0.3878 0.8985 0.2056
vn -0.4173 0.3701 -0.8300
vn -0.5406 -0.3809 -0.7501
vn 0.0894 -0.9136 0.3967
vn 0.5974 0.3659 0.7136
vn -0.0327 0.9003 -0.4341
vn -0.3304 -0.9123 -0.2418
vn 0.5264 0.3213 -0.7872
vn -0.8171 0.3729 -0.4397
vn 0.2177 0.9069 0.3608
vn 0.8347 -0.3642 0.4131
vn -0.2000 -0.8995 -0.3884
vn -0.4263 0.9032 -0.0495
vn 0.7399 0.3833 0.5528
vn 0.4447 -0.8954 0.0227
vn 0.8208 -0.2176 -0.5281
vn -0.1164 -0.8449 0.5221
vn 0.5092 0.3881 0.7682
vn 0.1300 0.8382 -0.5296
vn -0.4365 -0.8829 -0.1731
vn 0.2694 -0.3264 0.9060
vn 0.4503 0.8777 0.1639
vn -0.2544 0.3214 -0.9121
vn -0.1160 0.3861 0.9151
vn 0.1667 -0.3767 -0.9112
vn 0.0700 -0.9181 0.3901
vn 0.1696 -0.3749 -0.9114
vn 0.0965 0.3913 -0.9152
vn -0.1043 0.9229 0.3705
vn -0.0435 -0.3807 0.9237
vn 0.1580 -0.9166 -0.3673
vn -0.0168 0.9239 -0.3822
vn 0.9421 0.3213 0.0955
vn 0.0084 0.3738 -0.9275
vn -0.2051 0.9092 0.3623
vn 0.0216 -0.3656 0.9305
vn 0.2359 -0.9026 -0.3600
vn -0.1454 0.9056 -0.3983
vn -0.1364 0.3844 0.9130
vn 0.1760 -0.8986 0.4020
usemtl Tree
s off
f 1/1/1 2/2/1 4/3/1 3/4/1
f 3/4/2 4/3/2 6/5/2 5/6/2
f 5/6/3 6/5/3 8/7/3 7/8/3
f 7/8/4 8/7/4 10/9/4 9/10/4
f 9/10/5 10/9/5 12/11/5 11/12/5
f 11/12/6 12/11/6 14/13/6 13/14/6
f 10/9/7 8/7/7 20/15/7 21/16/7
f 13/14/8 14/13/8 16/17/8 15/18/8
f 15/18/9 16/17/9 2/2/9 1/1/9
f 1/1/10 3/4/10 5/6/10 7/8/10 9/10/10 11/12/10 13/14/10 15/18/10
f 17/19/11 24/20/11 32/21/11 25/22/11
f 16/17/12 14/13/12 23/23/12 24/20/12
f 6/5/13 4/3/13 18/24/13 19/25/13
f 12/11/14 10/9/14 21/16/14 22/26/14
f 2/2/15 16/17/15 24/20/15 17/19/15
f 4/3/16 2/2/16 17/19/16 18/24/16
f 8/7/17 6/5/17 19/25/17 20/15/17
f 14/13/18 12/11/18 22/26/18 23/23/18
f 30/27/19 29/28/19 37/29/19 38/30/19
f 23/23/20 22/26/20 30/27/20 31/31/20
f 21/16/21 20/15/21 28/32/21 29/28/21
f 19/25/22 18/24/22 26/33/22 27/34/22
f 24/20/23 23/23/23 31/31/23 32/21/23
f 22/26/24 21/16/24 29/28/24 30/27/24
f 20/15/25 19/25/25 27/34/25 28/32/25
f 18/24/26 17/19/26 25/22/26 26/33/26
f 34/35/27 33/36/27 40/37/27 39/38/27 38/30/27 37/29/27 36/39/27 35/40/27
f 28/32/28 27/34/28 35/40/28 36/39/28
f 26/33/29 25/22/29 33/36/29 34/35/29
f 25/22/30 32/21/30 40/37/30 33/36/30
f 31/31/31 30/27/31 38/30/31 39/38/31
f 29/28/32 28/32/32 36/39/32 37/29/32
f 27/34/33 26/33/33 34/35/33 35/40/33
f 32/21/34 31/31/34 39/38/34 40/37/34
f 46/41/35 45/42/35 53/43/35 54/44/35
f 50/45/36 49/46/36 73/47/36 74/48/36
f 44/49/37 43/50/37 51/51/37 52/52/37
f 42/53/38 41/54/38 49/46/38 50/45/38
f 41/54/39 48/55/39 56/56/39 49/46/39
f 47/57/40 46/41/40 54/44/40 55/58/40
f 45/42/41 44/49/41 52/52/41 53/43/41
f 43/50/42 42/53/42 50/45/42 51/51/42
f 48/55/43 47/57/43 55/58/43 56/56/43
f 62/59/44 70/60/44 69/61/44 61/62/44
f 65/63/45 81/64/45 88/65/45 72/66/45
f 60/67/46 68/68/46 67/69/46 59/70/46
f 58/71/47 66/72/47 65/63/47 57/73/47
f 57/73/48 65/63/48 72/66/48 64/74/48
f 63/75/49 71/76/49 70/60/49 62/59/49
f 61/62/50 69/61/50 68/68/50 60/67/50
f 59/70/51 67/69/51 66/72/51 58/71/51
f 64/74/52 72/66/52 71/76/52 63/75/52
f 74/48/53 73/47/53 80/77/53 79/78/53 78/79/53 77/80/53 76/81/53 75/82/53
f 49/46/54 56/56/54 80/77/54 73/47/54
f 55/58/55 54/44/55 78/79/55 79/78/55
f 53/43/56 52/52/56 76/81/56 77/80/56
f 51/51/57 50/45/57 74/48/57 75/82/57
f 56/56/58 55/58/58 79/78/58 80/77/58
f 54/44/59 53/43/59 77/80/59 78/79/59
f 52/52/60 51/51/60 75/82/60 76/81/60
f 82/83/61 83/84/61 84/85/61 85/86/61 86/87/61 87/88/61 88/65/61 81/64/61
f 71/76/62 87/88/62 86/87/62 70/60/62
f 69/61/63 85/86/63 84/85/63 68/68/63
f 67/69/64 83/84/64 82/83/64 66/72/64
f 72/66/65 88/65/65 87/88/65 71/76/65
f 70/60/66 86/87/66 85/86/66 69/61/66
f 68/68/67 84/85/67 83/84/67 67/69/67
f 66/72/68 82/83/68 81/64/68 65/63/68
f 94/89/69 93/90/69 101/91/69 102/92/69
f 98/93/70 97/94/70 105/95/70 106/96/70
f 92/97/71 91/98/71 99/99/71 100/100/71
f 90/101/72 89/102/72 97/94/72 98/93/72
f 89/102/73 96/103/73 104/104/73 97/94/73
f 95/105/74 94/89/74 102/92/74 103/106/74
f 93/90/75 92/97/75 100/100/75 101/91/75
f 91/98/76 90/101/76 98/93/76 99/99/76
f 96/103/77 95/105/77 103/106/77 104/104/77
f 106/96/78 105/95/78 112/107/78 111/108/78 110/109/78 109/110/78 108/111/78 107/112/78
f 97/94/79 104/104/79 112/107/79 105/95/79
f 103/106/80 102/92/80 110/109/80 111/108/80
f 101/91/81 100/100/81 108/111/81 109/110/81
f 99/99/82 98/93/82 106/96/82 107/112/82
f 104/104/83 103/106/83 111/108/83 112/107/83
f 102/92/84 101/91/84 109/110/84 110/109/84
f 100/100/85 99/99/85 107/112/85 108/111/85
