# Blender v2.91.0 OBJ File: 'master.blend'
# www.blender.org
mtllib tree06.mtl
o Cylinder.002_Cylinder.031
v 0.000000 -0.314683 -0.793139
v 0.000000 1.197551 -0.530184
v 0.560834 -0.314683 -0.560834
v 0.374897 1.197551 -0.374897
v 0.793139 -0.314683 0.000000
v 0.530184 1.197551 0.000000
v 0.560834 -0.314683 0.560834
v 0.374897 1.197551 0.374897
v -0.000000 -0.314683 0.793139
v -0.000000 1.197551 0.530184
v -0.560834 -0.314683 0.560834
v -0.374897 1.197551 0.374897
v -0.793139 -0.314683 -0.000000
v -0.530184 1.197551 -0.000000
v -0.560834 -0.314683 -0.560834
v -0.374897 1.197551 -0.374897
v 0.206443 6.266773 -0.249531
v 0.382888 6.266773 -0.176445
v 0.455974 6.266773 -0.000000
v 0.382888 6.266773 0.176445
v 0.206443 6.266773 0.249531
v 0.029998 6.266773 0.176445
v -0.043088 6.266773 -0.000000
v 0.029998 6.266773 -0.176445
v 0.038384 15.040070 -0.180387
v 0.165937 15.040070 -0.127553
v 0.218771 15.040070 0.000000
v 0.165937 15.040070 0.127553
v 0.038384 15.040070 0.180387
v -0.089169 15.040070 0.127553
v -0.142004 15.040070 0.000000
v -0.089169 15.040070 -0.127553
v -0.000000 21.565334 -0.063009
v 0.044554 21.565334 -0.044554
v 0.063009 21.565334 0.000000
v 0.044554 21.565334 0.044554
v -0.000000 21.565334 0.063009
v -0.044554 21.565334 0.044554
v -0.063009 21.565334 0.000000
v -0.044554 21.565334 -0.044554
v 0.072109 13.452365 -3.128090
v 2.270794 13.329278 -2.209073
v 3.181477 13.277571 -0.006799
v 2.270794 13.324376 2.190169
v 0.072109 13.439451 3.093367
v -2.126703 13.558090 2.172473
v -3.037513 13.614923 -0.031657
v -2.126703 13.572568 -2.226747
v 0.356918 17.100378 -0.990386
v 0.812563 17.065739 -0.793696
v 1.001300 17.028273 -0.335919
v 0.812563 17.008408 0.114636
v 0.356918 17.016489 0.294008
v -0.098720 17.049295 0.097285
v -0.287449 17.088902 -0.360267
v -0.098720 17.110601 -0.810787
v 0.419392 15.886688 -3.093293
v 2.443931 15.850031 -2.237932
v 3.282515 15.778690 -0.208558
v 2.443931 15.705291 1.806039
v 0.019458 15.669890 2.455967
v -1.605174 15.690207 1.768875
v -2.443783 15.774673 -0.260420
v -1.605174 15.859419 -2.274146
v 0.298237 19.080357 -1.430957
v 1.073800 18.962791 -1.112747
v 1.395065 18.841282 -0.339491
v 1.073800 18.784233 0.434921
v 0.298237 18.822573 0.757161
v -0.477268 18.936703 0.439399
v -0.798476 19.061970 -0.332563
v -0.477268 19.122448 -1.107422
v -0.197094 23.173271 0.103943
v -0.225407 23.155983 0.173498
v -0.197094 23.155054 0.245163
v -0.128740 23.171036 0.276959
v -0.060387 23.194567 0.250260
v -0.032074 23.211857 0.180706
v -0.060387 23.212786 0.109040
v -0.128740 23.196802 0.077244
v 0.205708 18.372221 -2.515471
v 1.741480 18.298517 -1.877071
v 2.377624 18.149017 -0.346202
v 1.741480 18.007174 1.179731
v 0.205708 17.952459 1.806754
v -1.330039 18.021170 1.168229
v -1.966159 18.176334 -0.361729
v -1.330039 18.323187 -1.887536
v 0.024645 21.962324 -0.341641
v 0.267808 22.019180 -0.228529
v 0.368529 22.015884 0.026418
v 0.267808 21.954369 0.273852
v 0.024645 21.870670 0.368833
v -0.218517 21.813816 0.255720
v -0.319239 21.817112 0.000774
v -0.218517 21.878626 -0.246661
v -0.457266 20.181631 0.428248
v -0.717910 20.233538 -0.203517
v 0.801233 20.322191 0.446382
v 0.171984 20.218348 0.697445
v 0.801233 20.484224 -0.809639
v 1.061877 20.432316 -0.177873
v -0.457266 20.343664 -0.827772
v 0.171984 20.447502 -1.078836
v -1.167723 16.766298 1.258518
v -1.811581 16.880806 -0.296675
v 1.941141 16.693300 1.277050
v 0.386701 16.691040 1.910457
v 1.941141 16.870230 -1.827106
v 2.585015 16.765116 -0.271177
v -1.167723 16.960850 -1.844650
v 0.386701 16.953705 -2.478794
v 0.939012 15.675258 2.414884
v 0.066457 13.351428 -2.955526
v 2.142207 13.233669 -2.089398
v 3.008797 13.176750 -0.010498
v 2.153188 13.212178 2.073643
v 0.067159 13.316705 2.935544
v -2.022452 13.430523 2.059085
v -2.880941 13.490547 -0.035509
v -2.011325 13.459045 -2.109281
v 0.348959 16.999613 -0.817816
v 0.687260 16.970142 -0.670578
v 0.828278 16.928074 -0.331206
v 0.690007 16.896881 0.002657
v 0.350509 16.893848 0.136161
v 0.008644 16.921709 -0.013137
v -0.130455 16.965076 -0.355860
v 0.011293 16.997885 -0.687541
v 0.416377 15.786202 -2.920400
v 2.319880 15.742551 -2.123665
v 3.119106 15.663623 -0.216072
v 2.333228 15.587459 1.688317
v 0.083059 15.565724 2.297533
v -1.489301 15.584015 1.645201
v -2.270792 15.674546 -0.267299
v -1.479786 15.761485 -2.152963
v 0.299739 18.991615 -1.251734
v 0.949223 18.868574 -0.987841
v 1.221220 18.742414 -0.340974
v 0.952641 18.684988 0.310546
v 0.299934 18.727972 0.580959
v -0.349994 18.848354 0.312936
v -0.617312 18.977251 -0.333008
v -0.348321 19.037346 -0.980428
v -0.054762 23.134359 0.238945
v -0.025889 23.142229 0.171728
v -0.054762 23.151678 0.104705
v -0.125939 23.157272 0.077454
v -0.195004 23.156227 0.107409
v -0.221869 23.149323 0.172643
v -0.195004 23.139450 0.237487
v -0.125939 23.132860 0.266722
v 0.206336 18.258156 -2.351196
v 1.617806 18.189249 -1.764091
v 2.204639 18.049259 -0.357262
v 1.621987 17.916296 1.047592
v 0.207935 17.864710 1.627049
v -1.209082 17.928802 1.038476
v -1.794553 18.074249 -0.373057
v -1.206305 18.212051 -1.776467
v 0.034112 21.886564 -0.156790
v 0.139050 21.936310 -0.099875
v 0.181847 21.944717 0.017238
v 0.139050 21.906862 0.128377
v 0.034112 21.844309 0.170810
v -0.075007 21.793276 0.117947
v -0.121937 21.784668 -0.003407
v -0.075007 21.823797 -0.118611
v -0.325469 20.113792 0.293985
v -0.534329 20.154568 -0.211226
v 0.676950 20.246267 0.309317
v 0.176769 20.152058 0.508817
v 0.676468 20.382824 -0.690690
v 0.883869 20.341616 -0.187060
v -0.325915 20.250772 -0.708964
v 0.175713 20.345411 -0.906901
v -1.047669 16.667721 1.132549
v -1.634745 16.787493 -0.301063
v 1.824871 16.583233 1.157197
v 0.386786 16.586494 1.739962
v 1.815990 16.768499 -1.708841
v 2.416815 16.657013 -0.275590
v -1.041572 16.868633 -1.719830
v 0.383594 16.858322 -2.303038
v 0.877634 15.563480 2.260815
vt 0.827522 0.008096
vt 0.827522 0.075131
vt 0.844141 0.075131
vt 0.852383 0.008096
vt 0.851024 0.075131
vt 0.862681 0.008096
vt 0.844141 0.075131
vt 0.852383 0.008096
vt 0.827522 0.075131
vt 0.827522 0.008096
vt 0.810904 0.075131
vt 0.802661 0.008096
vt 0.804020 0.075131
vt 0.792364 0.008096
vt 0.844495 0.299842
vt 0.836673 0.299842
vt 0.810904 0.075131
vt 0.802661 0.008096
vt 0.836673 0.299842
vt 0.828852 0.299842
vt 0.823569 0.688749
vt 0.829224 0.688749
vt 0.825612 0.299842
vt 0.844495 0.299842
vt 0.847735 0.299842
vt 0.828852 0.299842
vt 0.823569 0.688749
vt 0.829224 0.688749
vt 0.827522 0.978004
vt 0.825547 0.978004
vt 0.821227 0.688749
vt 0.834878 0.688749
vt 0.834878 0.688749
vt 0.837220 0.688749
vt 0.829497 0.978004
vt 0.827522 0.978004
vt 0.825547 0.978004
vt 0.824729 0.978004
vt 0.829497 0.978004
vt 0.830315 0.978004
vt 0.020580 0.073076
vt 0.107385 0.067659
vt 0.300664 0.400391
vt 0.282677 0.404166
vt 0.316945 0.056352
vt 0.526491 0.045385
vt 0.387514 0.396494
vt 0.344088 0.397265
vt 0.613286 0.040924
vt 0.526491 0.045852
vt 0.387514 0.401958
vt 0.405502 0.398388
vt 0.107385 0.069039
vt 0.300664 0.406234
vt 0.316945 0.057583
vt 0.344088 0.405260
vt 0.137418 0.384333
vt 0.198782 0.373420
vt 0.264586 0.580272
vt 0.233973 0.592211
vt 0.346927 0.366247
vt 0.495074 0.366463
vt 0.412412 0.565741
vt 0.338497 0.569395
vt 0.556439 0.373307
vt 0.495074 0.383325
vt 0.412412 0.582759
vt 0.443030 0.571178
vt 0.198782 0.391962
vt 0.264586 0.597974
vt 0.346927 0.391281
vt 0.338497 0.593963
vt 0.335596 0.867873
vt 0.345195 0.873736
vt 0.307015 0.987719
vt 0.304317 0.986071
vt 0.279647 0.854792
vt 0.289246 0.854478
vt 0.291288 0.982305
vt 0.288589 0.982394
vt 0.312421 0.859896
vt 0.297803 0.983828
vt 0.289246 0.860654
vt 0.291288 0.984042
vt 0.312421 0.868631
vt 0.297803 0.986284
vt 0.335596 0.874050
vt 0.304317 0.987808
vt 0.241651 0.703868
vt 0.266492 0.698921
vt 0.326463 0.702420
vt 0.386434 0.712317
vt 0.411275 0.722813
vt 0.386434 0.727760
vt 0.266492 0.714364
vt 0.326463 0.724260
vt 0.329678 0.526473
vt 0.183312 0.521800
vt 0.476045 0.519449
vt 0.476045 0.491682
vt 0.536673 0.505201
vt 0.183312 0.493016
vt 0.329677 0.486468
vt 0.122686 0.507804
vt 0.350043 0.289588
vt 0.157090 0.286989
vt 0.542993 0.286094
vt 0.542993 0.272300
vt 0.622915 0.279295
vt 0.157090 0.270862
vt 0.311927 0.268926
vt 0.077166 0.278912
vt 0.399565 0.269437
vt 0.035502 0.061222
vt 0.297639 0.392365
vt 0.310896 0.388231
vt 0.117321 0.055501
vt 0.316473 0.044654
vt 0.343478 0.385576
vt 0.375834 0.385865
vt 0.515284 0.034692
vt 0.596828 0.031315
vt 0.389012 0.388838
vt 0.375573 0.392848
vt 0.514237 0.036740
vt 0.118382 0.058219
vt 0.311148 0.395491
vt 0.343330 0.395656
vt 0.316406 0.047963
vt 0.154272 0.375440
vt 0.251239 0.584136
vt 0.276716 0.571852
vt 0.210223 0.364025
vt 0.346935 0.356284
vt 0.338658 0.560379
vt 0.400865 0.556282
vt 0.483993 0.355973
vt 0.540409 0.363005
vt 0.426462 0.561755
vt 0.400539 0.573779
vt 0.483146 0.373630
vt 0.210805 0.383173
vt 0.276875 0.589864
vt 0.338638 0.585506
vt 0.346630 0.382190
vt 0.323325 0.863346
vt 0.291487 0.982417
vt 0.288926 0.981759
vt 0.327403 0.866953
vt 0.298452 0.851700
vt 0.307605 0.981083
vt 0.304853 0.981983
vt 0.302924 0.852520
vt 0.313323 0.857384
vt 0.298069 0.982517
vt 0.302924 0.855429
vt 0.304853 0.980333
vt 0.313323 0.861411
vt 0.298069 0.980190
vt 0.323325 0.866152
vt 0.291487 0.980818
vt 0.259147 0.696342
vt 0.279053 0.692455
vt 0.326919 0.696102
vt 0.374589 0.705081
vt 0.394310 0.714168
vt 0.374544 0.718096
vt 0.279011 0.705510
vt 0.326818 0.714530
vt 0.329737 0.515603
vt 0.195104 0.511208
vt 0.464259 0.509035
vt 0.464657 0.483021
vt 0.520187 0.495694
vt 0.194840 0.484213
vt 0.329890 0.478105
vt 0.139040 0.498075
vt 0.349755 0.280011
vt 0.169041 0.277655
vt 0.531170 0.275851
vt 0.532443 0.261070
vt 0.607341 0.268329
vt 0.168133 0.260742
vt 0.317988 0.258998
vt 0.093653 0.269370
vt 0.393715 0.258784
vn 0.3778 0.1586 -0.9122
vn 0.9122 0.1586 -0.3778
vn 0.9122 0.1586 0.3778
vn 0.3778 0.1586 0.9122
vn -0.3778 0.1586 0.9122
vn -0.9122 0.1586 0.3778
vn 0.3824 0.0355 0.9233
vn -0.9122 0.1586 -0.3778
vn -0.3778 0.1586 -0.9122
vn 0.0000 -1.0000 0.0000
vn -0.3827 -0.0000 -0.9239
vn -0.9203 0.0884 -0.3812
vn 0.9238 0.0135 -0.3826
vn -0.3818 0.0666 0.9218
vn -0.3818 0.0666 -0.9218
vn 0.3824 0.0355 -0.9233
vn 0.9238 0.0135 0.3826
vn -0.9203 0.0884 0.3812
vn -0.3826 0.0144 0.9238
vn -0.9238 -0.0104 0.3827
vn 0.3826 0.0146 0.9238
vn 0.9236 0.0250 -0.3826
vn -0.9238 -0.0104 -0.3827
vn -0.3827 -0.0000 0.9239
vn 0.9236 0.0250 0.3826
vn 0.3826 0.0146 -0.9238
vn 0.0000 1.0000 0.0000
vn 0.9237 0.0220 0.3826
vn 0.3826 0.0189 -0.9237
vn -0.3826 0.0144 -0.9238
vn -0.9238 0.0112 0.3827
vn 0.3826 0.0189 0.9237
vn 0.9237 0.0220 -0.3826
vn -0.9238 0.0112 -0.3827
vn -0.7253 0.6086 0.3217
vn 0.3346 0.5620 0.7565
vn 0.8301 0.4510 -0.3280
vn -0.7591 0.5669 -0.3199
vn -0.2793 0.6054 0.7453
vn 0.8023 0.4987 0.3281
vn 0.3686 0.4500 -0.8134
vn -0.3056 0.4993 -0.8107
vn -0.8308 0.4011 0.3859
vn 0.3423 0.4637 0.8172
vn 0.8356 0.4591 -0.3016
vn -0.8583 0.3905 -0.3330
vn -0.3165 0.4316 0.8447
vn 0.8029 0.4751 0.3600
vn 0.3785 0.4284 -0.8205
vn -0.3409 0.4017 -0.8500
vn 0.8769 0.2400 0.4166
vn -0.9298 0.0177 0.3676
vn 0.3302 0.1052 0.9380
vn -0.9298 0.1105 -0.3510
vn -0.4244 0.2432 -0.8722
vn 0.3302 0.3398 -0.8806
vn 0.8769 0.3378 -0.3420
vn -0.4244 0.0139 0.9054
vn -0.9077 0.1762 0.3809
vn 0.3218 0.2076 0.9238
vn 0.8510 0.4156 -0.3210
vn -0.9077 0.2671 -0.3237
vn -0.4102 0.1487 0.8998
vn 0.8510 0.3206 0.4159
vn 0.3218 0.4353 -0.8408
vn -0.4102 0.3722 -0.8326
vn -0.3493 0.5388 -0.7666
vn 0.3348 0.5331 -0.7770
vn 0.8074 0.4439 0.3887
vn -0.3462 0.4168 0.8405
vn -0.8152 0.5074 -0.2793
vn 0.8184 0.4942 -0.2933
vn 0.3166 0.4112 0.8548
vn -0.8052 0.4570 0.3778
vn -0.3365 0.4587 -0.8224
vn 0.3534 0.4839 -0.8006
vn 0.7561 0.5608 0.3375
vn -0.3180 0.5209 0.7922
vn -0.8277 0.4587 -0.3233
vn 0.7940 0.5274 -0.3023
vn 0.3069 0.5589 0.7704
vn -0.8000 0.4817 0.3576
vn 0.7250 -0.6085 -0.3226
vn -0.3341 -0.5618 -0.7568
vn -0.8302 -0.4511 0.3275
vn 0.7595 -0.5670 0.3190
vn 0.2792 -0.6052 -0.7455
vn -0.8020 -0.4987 -0.3288
vn -0.3688 -0.4502 0.8132
vn 0.3058 -0.4995 0.8105
vn 0.8294 -0.4012 -0.3887
vn -0.3435 -0.4637 -0.8167
vn -0.8367 -0.4591 0.2986
vn 0.8587 -0.3908 0.3316
vn 0.3135 -0.4315 -0.8459
vn -0.8025 -0.4750 -0.3612
vn -0.3814 -0.4286 0.8191
vn 0.3396 -0.4020 0.8503
vn -0.8591 -0.2333 -0.4555
vn 0.9509 -0.0223 -0.3086
vn -0.1991 -0.0820 -0.9765
vn 0.9510 -0.0999 0.2928
vn 0.5631 -0.2131 0.7985
vn -0.1991 -0.3271 0.9238
vn -0.8592 -0.3413 0.3812
vn 0.5631 -0.0035 -0.8264
vn 0.9078 -0.1782 -0.3797
vn -0.3163 -0.2075 -0.9257
vn -0.8512 -0.4151 0.3211
vn 0.9089 -0.2678 0.3195
vn 0.4149 -0.1501 -0.8974
vn -0.8496 -0.3198 -0.4194
vn -0.3174 -0.4348 0.8427
vn 0.4165 -0.3717 0.8296
vn 0.3491 -0.5387 0.7668
vn -0.3351 -0.5330 0.7769
vn -0.8076 -0.4436 -0.3886
vn 0.3463 -0.4162 -0.8407
vn 0.8154 -0.5071 0.2793
vn -0.8184 -0.4940 0.2934
vn -0.3166 -0.4107 -0.8550
vn 0.8054 -0.4565 -0.3781
vn 0.3364 -0.4590 0.8223
vn -0.3532 -0.4842 0.8005
vn -0.7563 -0.5605 -0.3374
vn 0.3163 -0.5166 -0.7957
vn 0.8277 -0.4587 0.3234
vn -0.7939 -0.5274 0.3026
vn -0.3051 -0.5545 -0.7742
vn 0.8002 -0.4815 -0.3575
vn 0.1604 -0.8516 -0.4990
vn 0.4728 -0.8538 -0.2179
vn 0.5131 -0.8276 0.2276
vn 0.2003 -0.7866 0.5841
vn -0.2883 -0.7539 0.5903
vn -0.6189 -0.7497 0.2343
vn -0.5844 -0.7781 -0.2303
vn -0.2528 -0.8212 -0.5116
vn -0.1477 0.8533 0.5001
vn -0.4451 0.8540 0.2693
vn -0.5330 0.8293 -0.1682
vn -0.2218 0.7864 -0.5765
vn 0.3102 0.7506 -0.5834
vn 0.6377 0.7480 -0.1837
vn 0.5540 0.7810 0.2885
vn 0.2129 0.8257 0.5224
vn 0.1997 -0.8335 -0.5152
vn 0.5321 -0.8083 -0.2522
vn 0.5761 -0.7903 0.2087
vn 0.2299 -0.8103 0.5390
vn -0.2161 -0.8436 0.4916
vn -0.5183 -0.8369 0.1759
vn -0.4734 -0.8489 -0.2352
vn -0.1887 -0.8487 -0.4941
vn -0.0571 0.8655 0.4976
vn -0.4167 0.8500 0.3223
vn -0.5092 0.8488 -0.1425
vn -0.1550 0.8572 -0.4912
vn 0.3047 0.8670 -0.3943
vn 0.4763 0.8784 -0.0402
vn 0.3903 0.8896 0.2374
vn 0.2247 0.8854 0.4069
vn 0.9460 -0.1578 0.2833
vn -0.9198 -0.1359 0.3682
vn -0.3268 0.2093 0.9216
vn -0.3271 0.4355 -0.8387
vn -0.9197 -0.0381 -0.3907
vn -0.9258 -0.0828 0.3689
vn -0.4854 0.3926 0.7812
vn -0.9258 0.0137 -0.3778
vn -0.4854 0.5784 -0.6556
vn 0.1946 -0.8043 -0.5615
vn 0.4853 -0.8271 -0.2835
vn 0.4975 -0.8582 0.1264
vn 0.2063 -0.8805 0.4268
vn -0.2163 -0.8788 0.4254
vn -0.5073 -0.8529 0.1235
vn -0.4952 -0.8201 -0.2867
vn -0.2038 -0.8009 -0.5630
vn -0.8927 -0.2786 0.3543
usemtl Tree
s off
f 1/1/1 2/2/1 4/3/1 3/4/1
f 3/4/2 4/3/2 6/5/2 5/6/2
f 5/6/3 6/5/3 8/7/3 7/8/3
f 7/8/4 8/7/4 10/9/4 9/10/4
f 9/10/5 10/9/5 12/11/5 11/12/5
f 11/12/6 12/11/6 14/13/6 13/14/6
f 10/9/7 8/7/7 20/15/7 21/16/7
f 13/14/8 14/13/8 16/17/8 15/18/8
f 15/18/9 16/17/9 2/2/9 1/1/9
f 1/1/10 3/4/10 5/6/10 7/8/10 9/10/10 11/12/10 13/14/10 15/18/10
f 17/19/11 24/20/11 32/21/11 25/22/11
f 16/17/12 14/13/12 23/23/12 24/20/12
f 6/5/13 4/3/13 18/24/13 19/25/13
f 12/11/14 10/9/14 21/16/14 22/26/14
f 2/2/15 16/17/15 24/20/15 17/19/15
f 4/3/16 2/2/16 17/19/16 18/24/16
f 8/7/17 6/5/17 19/25/17 20/15/17
f 14/13/18 12/11/18 22/26/18 23/23/18
f 30/27/19 29/28/19 37/29/19 38/30/19
f 23/23/20 22/26/20 30/27/20 31/31/20
f 21/16/21 20/15/21 28/32/21 29/28/21
f 19/25/22 18/24/22 26/33/22 27/34/22
f 24/20/23 23/23/23 31/31/23 32/21/23
f 22/26/24 21/16/24 29/28/24 30/27/24
f 20/15/25 19/25/25 27/34/25 28/32/25
f 18/24/26 17/19/26 25/22/26 26/33/26
f 34/35/27 33/36/27 40/37/27 39/38/27 38/30/27 37/29/27 36/39/27 35/40/27
f 28/32/28 27/34/28 35/40/28 36/39/28
f 26/33/29 25/22/29 33/36/29 34/35/29
f 25/22/30 32/21/30 40/37/30 33/36/30
f 31/31/31 30/27/31 38/30/31 39/38/31
f 29/28/32 28/32/32 36/39/32 37/29/32
f 27/34/33 26/33/33 34/35/33 35/40/33
f 32/21/34 31/31/34 39/38/34 40/37/34
f 47/41/35 46/42/35 54/43/35 55/44/35
f 45/45/36 44/46/36 52/47/36 53/48/36
f 43/49/37 42/50/37 50/51/37 51/52/37
f 48/53/38 47/41/38 55/44/38 56/54/38
f 46/42/39 45/45/39 53/48/39 54/43/39
f 44/46/40 43/49/40 51/52/40 52/47/40
f 42/50/41 41/55/41 49/56/41 50/51/41
f 41/55/42 48/53/42 56/54/42 49/56/42
f 106/57/43 105/58/43 70/59/43 71/60/43
f 108/61/44 107/62/44 68/63/44 69/64/44
f 110/65/45 109/66/45 66/67/45 67/68/45
f 111/69/46 106/57/46 71/60/46 72/70/46
f 105/58/47 108/61/47 69/64/47 70/59/47
f 107/62/48 110/65/48 67/68/48 68/63/48
f 109/66/49 112/71/49 65/72/49 66/67/49
f 112/71/50 111/69/50 72/70/50 65/72/50
f 92/73/51 91/74/51 78/75/51 77/76/51
f 95/77/52 94/78/52 75/79/52 74/80/52
f 93/81/53 92/73/53 77/76/53 76/82/53
f 96/83/54 95/77/54 74/80/54 73/84/54
f 89/85/55 96/83/55 73/84/55 80/86/55
f 90/87/56 89/85/56 80/86/56 79/88/56
f 91/74/57 90/87/57 79/88/57 78/75/57
f 94/78/58 93/81/58 76/82/58 75/79/58
f 98/89/59 97/90/59 94/78/59 95/77/59
f 100/91/60 99/92/60 92/73/60 93/81/60
f 102/93/61 101/94/61 90/87/61 91/74/61
f 103/95/62 98/89/62 95/77/62 96/83/62
f 97/90/63 100/91/63 93/81/63 94/78/63
f 99/92/64 102/93/64 91/74/64 92/73/64
f 101/94/65 104/96/65 89/85/65 90/87/65
f 104/96/66 103/95/66 96/83/66 89/85/66
f 81/97/67 88/98/67 103/95/67 104/96/67
f 82/99/68 81/97/68 104/96/68 101/94/68
f 84/100/69 83/101/69 102/93/69 99/92/69
f 86/102/70 85/103/70 100/91/70 97/90/70
f 88/98/71 87/104/71 98/89/71 103/95/71
f 83/101/72 82/99/72 101/94/72 102/93/72
f 85/103/73 84/100/73 99/92/73 100/91/73
f 87/104/74 86/102/74 97/90/74 98/89/74
f 57/105/75 64/106/75 111/69/75 112/71/75
f 58/107/76 57/105/76 112/71/76 109/66/76
f 60/108/77 59/109/77 110/65/77 107/62/77
f 62/110/78 61/111/78 108/61/78 105/58/78
f 64/106/79 63/112/79 106/57/79 111/69/79
f 59/109/80 58/107/80 109/66/80 110/65/80
f 113/113/81 60/108/81 107/62/81 108/61/81
f 63/112/82 62/110/82 105/58/82 106/57/82
f 120/114/83 128/115/83 127/116/83 119/117/83
f 118/118/84 126/119/84 125/120/84 117/121/84
f 116/122/85 124/123/85 123/124/85 115/125/85
f 121/126/86 129/127/86 128/115/86 120/114/86
f 119/117/87 127/116/87 126/119/87 118/118/87
f 117/121/88 125/120/88 124/123/88 116/122/88
f 115/125/89 123/124/89 122/128/89 114/129/89
f 114/129/90 122/128/90 129/127/90 121/126/90
f 179/130/91 144/131/91 143/132/91 178/133/91
f 181/134/92 142/135/92 141/136/92 180/137/92
f 183/138/93 140/139/93 139/140/93 182/141/93
f 184/142/94 145/143/94 144/131/94 179/130/94
f 178/133/95 143/132/95 142/135/95 181/134/95
f 180/137/96 141/136/96 140/139/96 183/138/96
f 182/141/97 139/140/97 138/144/97 185/145/97
f 185/145/98 138/144/98 145/143/98 184/142/98
f 165/146/99 150/147/99 151/148/99 164/149/99
f 168/150/100 147/151/100 148/152/100 167/153/100
f 166/154/101 149/155/101 150/147/101 165/146/101
f 169/156/102 146/157/102 147/151/102 168/150/102
f 162/158/103 153/159/103 146/157/103 169/156/103
f 163/160/104 152/161/104 153/159/104 162/158/104
f 164/149/105 151/148/105 152/161/105 163/160/105
f 167/153/106 148/152/106 149/155/106 166/154/106
f 171/162/107 168/150/107 167/153/107 170/163/107
f 173/164/108 166/154/108 165/146/108 172/165/108
f 175/166/109 164/149/109 163/160/109 174/167/109
f 176/168/110 169/156/110 168/150/110 171/162/110
f 170/163/111 167/153/111 166/154/111 173/164/111
f 172/165/112 165/146/112 164/149/112 175/166/112
f 174/167/113 163/160/113 162/158/113 177/169/113
f 177/169/114 162/158/114 169/156/114 176/168/114
f 154/170/115 177/169/115 176/168/115 161/171/115
f 155/172/116 174/167/116 177/169/116 154/170/116
f 157/173/117 172/165/117 175/166/117 156/174/117
f 159/175/118 170/163/118 173/164/118 158/176/118
f 161/171/119 176/168/119 171/162/119 160/177/119
f 156/174/120 175/166/120 174/167/120 155/172/120
f 158/176/121 173/164/121 172/165/121 157/173/121
f 160/177/122 171/162/122 170/163/122 159/175/122
f 130/178/123 185/145/123 184/142/123 137/179/123
f 131/180/124 182/141/124 185/145/124 130/178/124
f 133/181/125 180/137/125 183/138/125 132/182/125
f 135/183/126 178/133/126 181/134/126 134/184/126
f 137/179/127 184/142/127 179/130/127 136/185/127
f 132/182/128 183/138/128 182/141/128 131/180/128
f 186/186/129 181/134/129 180/137/129 133/181/129
f 136/185/130 179/130/130 178/133/130 135/183/130
f 41/55/131 42/50/131 115/125/131 114/129/131
f 42/50/132 43/49/132 116/122/132 115/125/132
f 43/49/133 44/46/133 117/121/133 116/122/133
f 44/46/134 45/45/134 118/118/134 117/121/134
f 45/45/135 46/42/135 119/117/135 118/118/135
f 46/42/136 47/41/136 120/114/136 119/117/136
f 47/41/137 48/53/137 121/126/137 120/114/137
f 48/53/138 41/55/138 114/129/138 121/126/138
f 50/51/139 49/56/139 122/128/139 123/124/139
f 51/52/140 50/51/140 123/124/140 124/123/140
f 52/47/141 51/52/141 124/123/141 125/120/141
f 53/48/142 52/47/142 125/120/142 126/119/142
f 54/43/143 53/48/143 126/119/143 127/116/143
f 55/44/144 54/43/144 127/116/144 128/115/144
f 56/54/145 55/44/145 128/115/145 129/127/145
f 49/56/146 56/54/146 129/127/146 122/128/146
f 57/105/147 58/107/147 131/180/147 130/178/147
f 58/107/148 59/109/148 132/182/148 131/180/148
f 59/109/149 60/108/149 133/181/149 132/182/149
f 60/108/150 113/113/150 186/186/150 133/181/150
f 61/111/151 62/110/151 135/183/151 134/184/151
f 62/110/152 63/112/152 136/185/152 135/183/152
f 63/112/153 64/106/153 137/179/153 136/185/153
f 64/106/154 57/105/154 130/178/154 137/179/154
f 66/67/155 65/72/155 138/144/155 139/140/155
f 67/68/156 66/67/156 139/140/156 140/139/156
f 68/63/157 67/68/157 140/139/157 141/136/157
f 69/64/158 68/63/158 141/136/158 142/135/158
f 70/59/159 69/64/159 142/135/159 143/132/159
f 71/60/160 70/59/160 143/132/160 144/131/160
f 72/70/161 71/60/161 144/131/161 145/143/161
f 65/72/162 72/70/162 145/143/162 138/144/162
f 108/61/163 61/111/163 134/184/163 181/134/163
f 80/86/164 73/84/164 146/157/164 153/159/164
f 73/84/165 74/80/165 147/151/165 146/157/165
f 74/80/166 75/79/166 148/152/166 147/151/166
f 75/79/167 76/82/167 149/155/167 148/152/167
f 76/82/168 77/76/168 150/147/168 149/155/168
f 77/76/169 78/75/169 151/148/169 150/147/169
f 79/88/170 80/86/170 153/159/170 152/161/170
f 78/75/171 79/88/171 152/161/171 151/148/171
f 81/97/172 82/99/172 155/172/172 154/170/172
f 82/99/173 83/101/173 156/174/173 155/172/173
f 83/101/174 84/100/174 157/173/174 156/174/174
f 84/100/175 85/103/175 158/176/175 157/173/175
f 85/103/176 86/102/176 159/175/176 158/176/176
f 86/102/177 87/104/177 160/177/177 159/175/177
f 87/104/178 88/98/178 161/171/178 160/177/178
f 88/98/179 81/97/179 154/170/179 161/171/179
f 113/113/180 108/61/180 181/134/180 186/186/180
