# Blender v2.91.0 OBJ File: 'master.blend'
# www.blender.org
mtllib tree04.mtl
o Cylinder.021_Cylinder.039
v 0.000000 -0.314683 -0.793139
v 0.000000 1.197551 -0.530184
v 0.560834 -0.314683 -0.560834
v 0.374897 1.197551 -0.374897
v 0.793139 -0.314683 0.000000
v 0.530184 1.197551 0.000000
v 0.560834 -0.314683 0.560834
v 0.374897 1.197551 0.374897
v -0.000000 -0.314683 0.793139
v -0.000000 1.197551 0.530184
v -0.560834 -0.314683 0.560834
v -0.374897 1.197551 0.374897
v -0.793139 -0.314683 -0.000000
v -0.530184 1.197551 -0.000000
v -0.560834 -0.314683 -0.560834
v -0.374897 1.197551 -0.374897
v 0.206443 6.266773 -0.249531
v 0.382888 6.266773 -0.176445
v 0.455974 6.266773 -0.000000
v 0.382888 6.266773 0.176445
v 0.206443 6.266773 0.249531
v 0.029998 6.266773 0.176445
v -0.043088 6.266773 -0.000000
v 0.029998 6.266773 -0.176445
v -0.275529 14.342485 -0.180387
v -0.147976 14.342485 -0.127553
v -0.095142 14.342485 -0.000000
v -0.147976 14.342485 0.127553
v -0.275529 14.342485 0.180387
v -0.403083 14.342485 0.127553
v -0.455917 14.342485 -0.000000
v -0.403083 14.342485 -0.127553
v -0.038167 21.480518 -0.063009
v 0.006406 21.480560 -0.044554
v 0.024878 21.480598 0.000000
v 0.006406 21.480560 0.044554
v -0.038167 21.480518 0.063009
v -0.082731 21.480495 0.044554
v -0.101193 21.480480 0.000000
v -0.082731 21.480495 -0.044554
v -0.124960 16.525091 -0.130940
v -0.104888 16.434706 -0.092588
v -0.096574 16.397266 0.000000
v -0.104888 16.434706 0.092589
v -0.124960 16.525091 0.130940
v -0.145032 16.615477 0.092589
v -0.153346 16.652918 0.000000
v -0.145032 16.615477 -0.092588
v 1.942589 16.827652 -0.091287
v 1.956598 16.764633 -0.064550
v 1.962407 16.738527 -0.000000
v 1.956598 16.764633 0.064550
v 1.942589 16.827652 0.091287
v 1.928587 16.890667 0.064550
v 1.922784 16.916769 -0.000000
v 1.928587 16.890667 -0.064550
v -0.327766 15.109009 0.103302
v -0.330902 15.018623 0.060129
v -0.301652 14.981184 -0.028110
v -0.257148 15.018623 -0.109726
v -0.223462 15.109009 -0.136910
v -0.220326 15.199395 -0.093737
v -0.249576 15.236835 -0.005498
v -0.294080 15.199395 0.076118
v -2.730808 15.544932 -1.033024
v -2.731933 15.513352 -1.048117
v -2.721742 15.500269 -1.078951
v -2.706171 15.513352 -1.107448
v -2.694375 15.544932 -1.116930
v -2.693263 15.576506 -1.101843
v -2.703468 15.589587 -1.071016
v -2.719025 15.576506 -1.042513
v 3.978741 17.892363 -0.063728
v 4.014076 17.864397 -0.045064
v 4.028718 17.852814 -0.000004
v 4.014076 17.864397 0.045056
v 3.978741 17.892365 0.063720
v 3.943409 17.920332 0.045056
v 3.928772 17.931917 -0.000004
v 3.943409 17.920332 -0.045064
v -3.834560 16.315033 -1.737521
v -3.835371 16.292276 -1.748397
v -3.828028 16.282848 -1.770615
v -3.816807 16.292276 -1.791150
v -3.808306 16.315033 -1.797983
v -3.807506 16.337784 -1.787111
v -3.814860 16.347210 -1.764897
v -3.826070 16.337784 -1.744358
vt 0.811363 0.020186
vt 0.811363 0.086791
vt 0.827874 0.086791
vt 0.836064 0.020186
vt 0.834714 0.086791
vt 0.846295 0.020186
vt 0.827874 0.086791
vt 0.836064 0.020186
vt 0.811363 0.086791
vt 0.811363 0.020186
vt 0.794851 0.086791
vt 0.786662 0.020186
vt 0.788011 0.086791
vt 0.776430 0.020186
vt 0.828226 0.310057
vt 0.820455 0.310057
vt 0.794851 0.086791
vt 0.786662 0.020186
vt 0.820455 0.310057
vt 0.812684 0.310057
vt 0.793609 0.665740
vt 0.799227 0.665740
vt 0.809465 0.310057
vt 0.828226 0.310057
vt 0.831445 0.310057
vt 0.812684 0.310057
vt 0.793609 0.665740
vt 0.799227 0.665740
vt 0.809682 0.980125
vt 0.807719 0.980124
vt 0.791282 0.665740
vt 0.804845 0.665740
vt 0.804845 0.665740
vt 0.807172 0.665740
vt 0.811645 0.980126
vt 0.809682 0.980125
vt 0.807719 0.980124
vt 0.806906 0.980123
vt 0.811645 0.980126
vt 0.812459 0.980128
vt 0.804975 0.765851
vt 0.805859 0.761870
vt 0.896921 0.775196
vt 0.896305 0.777971
vt 0.897538 0.772420
vt 0.896921 0.775196
vt 0.986601 0.822089
vt 0.988157 0.820858
vt 0.806743 0.757889
vt 0.807109 0.756240
vt 0.897794 0.771270
vt 0.897538 0.772420
vt 0.806743 0.757889
vt 0.805859 0.761870
vt 0.804975 0.765851
vt 0.896305 0.777971
vt 0.804609 0.767500
vt 0.896049 0.779121
vt 0.801659 0.703482
vt 0.801521 0.699501
vt 0.692693 0.718700
vt 0.692742 0.720091
vt 0.691088 0.718700
vt 0.691607 0.720091
vt 0.642849 0.753620
vt 0.642475 0.752618
vt 0.800037 0.695520
vt 0.798077 0.693871
vt 0.691487 0.716733
vt 0.692173 0.717309
vt 0.796788 0.695520
vt 0.796927 0.699501
vt 0.691039 0.717309
vt 0.798410 0.703482
vt 0.800370 0.705131
vt 0.692292 0.720667
vt 0.985044 0.823321
vt 0.984400 0.823832
vt 0.985044 0.823321
vt 0.986601 0.822090
vt 0.988157 0.820858
vt 0.988802 0.820348
vt 0.642439 0.751616
vt 0.643343 0.754035
vt 0.643667 0.753620
vt 0.643631 0.752618
vt 0.643257 0.751616
vt 0.642763 0.751201
vn 0.3778 0.1586 -0.9122
vn 0.9122 0.1586 -0.3778
vn 0.9122 0.1586 0.3778
vn 0.3778 0.1586 0.9122
vn -0.3778 0.1586 0.9122
vn -0.9122 0.1586 0.3778
vn 0.3824 0.0355 0.9233
vn -0.9122 0.1586 -0.3778
vn -0.3778 0.1586 -0.9122
vn 0.0000 -1.0000 0.0000
vn -0.3826 -0.0149 -0.9238
vn -0.9203 0.0884 -0.3812
vn 0.9238 0.0135 -0.3826
vn -0.3818 0.0666 0.9218
vn -0.3818 0.0666 -0.9218
vn 0.3824 0.0355 -0.9233
vn 0.9238 0.0135 0.3826
vn -0.9203 0.0884 0.3812
vn -0.3825 0.0279 0.9235
vn -0.9229 -0.0472 0.3823
vn 0.3825 0.0307 0.9234
vn 0.9220 0.0629 -0.3819
vn -0.9229 -0.0472 -0.3823
vn -0.3826 -0.0149 0.9238
vn 0.9220 0.0629 0.3819
vn 0.3825 0.0307 -0.9234
vn -0.0008 1.0000 0.0000
vn 0.9237 -0.0155 0.3827
vn 0.3826 0.0025 -0.9239
vn -0.3825 0.0279 -0.9235
vn -0.9229 0.0459 0.3823
vn 0.3826 0.0025 0.9239
vn 0.9237 -0.0155 -0.3827
vn -0.9229 0.0459 -0.3823
vn -0.0384 0.3831 0.9229
vn 0.1959 -0.3507 -0.9158
vn 0.1511 -0.9116 0.3822
vn 0.0727 -0.3758 -0.9238
vn -0.0384 0.3831 -0.9229
vn -0.1165 0.9171 0.3813
vn 0.0727 -0.3758 0.9238
vn 0.1511 -0.9116 -0.3822
vn -0.1165 0.9171 -0.3813
vn 0.3982 0.3841 -0.8330
vn -0.2984 0.3751 0.8776
vn -0.0112 -0.9065 -0.4220
vn -0.4511 -0.3718 0.8113
vn -0.3368 0.3841 0.8597
vn 0.2628 0.9164 -0.3018
vn 0.2848 -0.3718 -0.8835
vn -0.3160 -0.9065 0.2800
vn -0.0411 0.9164 0.3980
vn 0.6206 0.7841 -0.0000
vn -0.1762 0.3614 -0.9156
vn -0.4208 0.8309 0.3642
vn 0.1960 -0.3507 0.9158
vn 0.4418 -0.8198 -0.3644
vn -0.4208 0.8309 -0.3642
vn -0.1762 0.3614 0.9156
vn 0.4419 -0.8198 0.3644
vn -0.8953 0.2176 -0.3887
vn 0.6121 0.7803 -0.1284
vn 0.2837 -0.3714 -0.8840
vn -0.6229 -0.7727 0.1220
vn 0.2430 0.8245 0.5110
vn 0.6431 0.3116 -0.6995
vn -0.2562 -0.8177 -0.5154
vn -0.6549 -0.3068 0.6907
usemtl Tree
s off
f 1/1/1 2/2/1 4/3/1 3/4/1
f 3/4/2 4/3/2 6/5/2 5/6/2
f 5/6/3 6/5/3 8/7/3 7/8/3
f 7/8/4 8/7/4 10/9/4 9/10/4
f 9/10/5 10/9/5 12/11/5 11/12/5
f 11/12/6 12/11/6 14/13/6 13/14/6
f 10/9/7 8/7/7 20/15/7 21/16/7
f 13/14/8 14/13/8 16/17/8 15/18/8
f 15/18/9 16/17/9 2/2/9 1/1/9
f 1/1/10 3/4/10 5/6/10 7/8/10 9/10/10 11/12/10 13/14/10 15/18/10
f 17/19/11 24/20/11 32/21/11 25/22/11
f 16/17/12 14/13/12 23/23/12 24/20/12
f 6/5/13 4/3/13 18/24/13 19/25/13
f 12/11/14 10/9/14 21/16/14 22/26/14
f 2/2/15 16/17/15 24/20/15 17/19/15
f 4/3/16 2/2/16 17/19/16 18/24/16
f 8/7/17 6/5/17 19/25/17 20/15/17
f 14/13/18 12/11/18 22/26/18 23/23/18
f 30/27/19 29/28/19 37/29/19 38/30/19
f 23/23/20 22/26/20 30/27/20 31/31/20
f 21/16/21 20/15/21 28/32/21 29/28/21
f 19/25/22 18/24/22 26/33/22 27/34/22
f 24/20/23 23/23/23 31/31/23 32/21/23
f 22/26/24 21/16/24 29/28/24 30/27/24
f 20/15/25 19/25/25 27/34/25 28/32/25
f 18/24/26 17/19/26 25/22/26 26/33/26
f 34/35/27 33/36/27 40/37/27 39/38/27 38/30/27 37/29/27 36/39/27 35/40/27
f 28/32/28 27/34/28 35/40/28 36/39/28
f 26/33/29 25/22/29 33/36/29 34/35/29
f 25/22/30 32/21/30 40/37/30 33/36/30
f 31/31/31 30/27/31 38/30/31 39/38/31
f 29/28/32 28/32/32 36/39/32 37/29/32
f 27/34/33 26/33/33 34/35/33 35/40/33
f 32/21/34 31/31/34 39/38/34 40/37/34
f 46/41/35 45/42/35 53/43/35 54/44/35
f 50/45/36 49/46/36 73/47/36 74/48/36
f 44/49/37 43/50/37 51/51/37 52/52/37
f 42/53/38 41/54/38 49/46/38 50/45/38
f 41/54/39 48/55/39 56/56/39 49/46/39
f 47/57/40 46/41/40 54/44/40 55/58/40
f 45/42/41 44/49/41 52/52/41 53/43/41
f 43/50/42 42/53/42 50/45/42 51/51/42
f 48/55/43 47/57/43 55/58/43 56/56/43
f 62/59/44 61/60/44 69/61/44 70/62/44
f 65/63/45 72/64/45 88/65/45 81/66/45
f 60/67/46 59/68/46 67/69/46 68/70/46
f 58/71/47 57/72/47 65/63/47 66/73/47
f 57/72/48 64/74/48 72/64/48 65/63/48
f 63/75/49 62/59/49 70/62/49 71/76/49
f 61/60/50 60/67/50 68/70/50 69/61/50
f 59/68/51 58/71/51 66/73/51 67/69/51
f 64/74/52 63/75/52 71/76/52 72/64/52
f 74/48/53 73/47/53 80/77/53 79/78/53 78/79/53 77/80/53 76/81/53 75/82/53
f 49/46/54 56/56/54 80/77/54 73/47/54
f 55/58/55 54/44/55 78/79/55 79/78/55
f 53/43/56 52/52/56 76/81/56 77/80/56
f 51/51/57 50/45/57 74/48/57 75/82/57
f 56/56/58 55/58/58 79/78/58 80/77/58
f 54/44/59 53/43/59 77/80/59 78/79/59
f 52/52/60 51/51/60 75/82/60 76/81/60
f 82/83/61 81/66/61 88/65/61 87/84/61 86/85/61 85/86/61 84/87/61 83/88/61
f 71/76/62 70/62/62 86/85/62 87/84/62
f 69/61/63 68/70/63 84/87/63 85/86/63
f 67/69/64 66/73/64 82/83/64 83/88/64
f 72/64/65 71/76/65 87/84/65 88/65/65
f 70/62/66 69/61/66 85/86/66 86/85/66
f 68/70/67 67/69/67 83/88/67 84/87/67
f 66/73/68 65/63/68 81/66/68 82/83/68
